<?xml version="1.0" encoding="utf-8"?>
<!DOCTYPE svg PUBLIC "-//W3C//DTD SVG 1.0//EN" "http://www.w3.org/TR/2001/REC-SVG-20010904/DTD/svg10.dtd">
<svg version="1.0" xmlns="http://www.w3.org/2000/svg" width="500px" height="500px" viewBox="0 0 500 500" preserveAspectRatio="xMidYMid meet">
 <g fill="#000000">
  <path d="M230.6 498 c-13.9 -1.1 -20.4 -2.2 -40.3 -7 -59.9 -14.5 -110.2 -48.5 -146.3 -99 -7.6 -10.6 -16 -25.1 -20.4 -35 -1.6 -3.6 -4.6 -10.1 -6.7 -14.5 -5.2 -11.1 -7.9 -20.6 -8.6 -30.2 -0.4 -5.7 -1.1 -8.8 -2.3 -10 -0.9 -1 -2.6 -4.7 -3.8 -8.3 -2.1 -6.1 -2.2 -8.1 -2.2 -41.9 0 -27.7 0.3 -37 1.5 -42.1 0.8 -3.6 2.3 -10.5 3.4 -15.5 16 -71.4 64.3 -133.1 129.9 -165.9 26.9 -13.4 49.5 -20.5 80.3 -25.1 14.4 -2.2 55.7 -2.2 68.9 0 31.9 5.2 50.5 10.9 76.5 23.4 26.4 12.7 47.9 27.9 68.7 48.5 13 12.9 16.3 16.8 28.1 33.5 19.3 27.2 32.6 58.9 40.2 95.3 2.4 11.7 2.5 13.9 2.5 44.3 0 35.5 -0.7 42.2 -6.3 64.5 -22.4 88.3 -94.9 158.1 -185.9 178.9 -24.5 5.6 -53.8 7.9 -77.2 6.1z m14 -17.1 c-0.3 -3.4 -0.6 -12 -0.6 -19 l0 -12.9 -2.5 0 -2.5 0 0 19 0 19 3.1 0 3.2 0 -0.7 -6.1z m35.8 3.2 c0.7 -1 -1 -14.6 -2.5 -20.3 -0.5 -2.1 -1.2 -6.7 -1.6 -10.3 -0.5 -5.2 -0.9 -6.5 -2 -6 -0.8 0.3 -1.6 0.5 -1.7 0.5 -0.2 0 0.3 4.6 1 10.3 0.6 5.6 1.5 13.9 1.9 18.5 0.6 7 1 8.2 2.5 8.2 1.1 0 2.1 -0.4 2.4 -0.9z m-95.1 -2.2 c-0.7 -0.7 -1.9 -0.8 -3 -0.4 -1.6 0.7 -1.5 0.9 0.7 1.5 3 0.8 3.8 0.4 2.3 -1.1z m-17.3 -18.5 c0 -0.8 -0.7 -1.4 -1.5 -1.4 -1 0 -1.5 1 -1.5 2.6 0 2.2 0.2 2.5 1.5 1.4 0.8 -0.7 1.5 -1.9 1.5 -2.6z m-27.4 -2.4 c0.8 0 1.4 -0.6 1.4 -1.4 0 -2.4 1.7 -2.8 8.5 -2.1 5.5 0.6 6.5 1 6.5 2.6 0 1.4 0.7 1.9 3 1.9 2.3 0 3 -0.4 3 -2 0 -2.1 -2.7 -4 -5.8 -4 -2.1 0 -3.2 -1.8 -3.2 -5.1 0 -1.5 -0.7 -1.9 -3.5 -1.9 -2.4 0 -3.5 -0.5 -3.5 -1.5 0 -0.8 -0.6 -1.5 -1.2 -1.5 -2.4 0 -5.8 -4.7 -5.8 -7.9 0 -1.7 0.4 -3.1 0.9 -3.1 0.6 0 1.1 -1.5 1.3 -3.2 0.2 -2.4 0.9 -3.4 2.3 -3.6 1.1 -0.3 2.8 -1.3 3.8 -2.3 1 -1 2.4 -1.9 3.1 -1.9 0.7 0 1.8 -1.1 2.4 -2.5 0.7 -1.4 2.3 -3 3.6 -3.6 2 -1 2.5 -2 2.8 -6.3 0.5 -5.7 -0.8 -8 -4.8 -9 -2 -0.5 -2.4 -1.2 -2.4 -4.6 0 -3.9 0.1 -4 3.6 -4 4.6 0 9.7 3.1 12.2 7.3 2 3.5 3.9 19.7 2.7 22.9 -0.4 0.9 -1.9 2.2 -3.5 2.8 -2.5 1 -2.8 1.5 -1.9 3.7 0.5 1.3 0.9 3.8 0.9 5.4 0 2.2 0.5 2.9 2 2.9 1.1 0 2 0.7 2 1.5 0 0.8 0.9 1.5 1.9 1.5 1.1 0 2.1 0.4 2.3 0.9 0.2 0.5 2 1.3 4.2 1.6 l3.8 0.8 -0.5 -5.4 c-1.1 -10.5 -1.8 -12.9 -3.8 -12.9 -1.5 0 -1.9 -0.7 -1.9 -3.5 0 -1.9 0.5 -3.5 1 -3.5 0.6 0 1 -0.9 1 -2 0 -1.1 0.6 -2 1.4 -2 2.1 0 2.8 -4.6 1.2 -7.8 -3.2 -6.3 -13.4 -13.4 -21.1 -14.7 -3.9 -0.7 -8.4 -4.6 -8.5 -7.2 0 -0.7 -0.4 -1.3 -1 -1.3 -0.5 0 -1 -1.6 -1 -3.5 0 -3.3 0.2 -3.5 3.5 -3.5 2 0 4.8 0.6 6.3 1.4 5 2.6 9.6 2.9 11.4 0.9 1.6 -1.7 1.4 -1.8 -5 -1.8 -4.9 -0.1 -8.1 -0.7 -11.7 -2.4 -3.2 -1.5 -6.5 -2.3 -9.2 -2.2 -2.5 0.2 -4.3 -0.2 -4.3 -0.8 0 -0.6 -1.8 -1.1 -4 -1.1 -3.3 0 -4 -0.3 -4 -2 0 -1.3 -0.7 -2 -2 -2 -1.1 0 -2 -0.7 -2 -1.5 0 -1 -1 -1.5 -3 -1.5 -2 0 -3 -0.5 -3 -1.5 0 -1.1 -1.1 -1.5 -4 -1.5 -2.9 0 -4 -0.4 -4 -1.5 0 -1 -1 -1.5 -3 -1.5 -2.1 0 -3 -0.5 -3 -1.6 0 -2.5 -2.6 -4.4 -5.9 -4.4 l-3.1 0 2.1 4.2 c1.7 3.3 2 5.5 1.7 11.4 -0.3 6.3 -0.1 7.4 1.4 7.8 2.8 0.7 2.5 11.4 -0.4 15.1 -1.7 2.2 -1.9 3.1 -1 4.4 3.7 5 4.5 7.9 3.7 13.6 -0.5 4.1 -1.4 6.4 -3.3 8.5 -2.4 2.5 -3.6 2.9 -10.9 3.5 l-8.3 0.6 0 -3.7 c0 -2.8 0.8 -4.6 3.5 -7.5 4 -4.5 4 -4.4 2 -9.2 -0.8 -2 -1.5 -5.7 -1.5 -8.1 0 -3.7 0.6 -5.3 3.2 -8.3 1.8 -2.1 3.7 -4.1 4.1 -4.4 0.5 -0.3 0.1 -0.9 -0.8 -1.3 -1.4 -0.5 -1.6 -2 -1.5 -9.3 0.1 -4.9 -0.2 -10.7 -0.5 -13 -0.6 -3.5 -0.4 -4.2 1.2 -4.6 1.6 -0.4 1.6 -0.6 -0.4 -1.2 -1.3 -0.4 -2.3 -1.1 -2.3 -1.6 0 -0.4 -1.7 -0.9 -3.7 -1.1 -3.5 -0.3 -4.1 0.1 -7.3 4.2 -1.8 2.5 -7.2 8.9 -12 14.3 -11.9 13.8 -11.9 13.7 -12.6 18.5 -0.7 4.2 -0.6 4.2 2.5 4.2 2.9 0 3.1 0.2 3.1 3.6 0 2.7 -0.5 3.7 -2 4.1 -2.6 0.7 -2.5 1.2 0.5 4.8 l2.4 3 0.1 -3.7 c0 -3.8 0.1 -3.8 4 -3.8 3 0 4 0.4 4 1.6 0 1.1 0.6 1.4 2.3 0.9 1.2 -0.4 2.6 -1.1 3.2 -1.6 0.5 -0.5 2.6 -0.9 4.7 -0.9 3.6 0 3.8 0.2 3.8 3.3 0 2.7 -0.9 3.9 -6 8 -3.3 2.6 -6 5.3 -6 5.9 0 2.2 7.3 8.8 9.7 8.8 1.8 0 2.3 0.6 2.3 2.4 0 3.6 4.8 5.1 15.3 4.8 7.8 -0.2 8.7 -0.1 8.7 1.6 0 1.6 0.8 1.7 7 1.4 4.7 -0.3 7 -0.1 7 0.7 0 0.6 0.9 1.1 2 1.1 1.3 0 2 0.7 2 2 0 1.1 0.7 2 1.5 2 0.8 0 1.5 0.9 1.5 2 0 1.3 0.7 2 2 2 1.6 0 2 0.7 2 3 0 2.5 0.4 3 2.5 3 2.3 0 2.5 0.4 2.5 4.5 0 2.5 -0.4 4.5 -0.8 4.5 -0.5 0 -0.6 1.5 -0.3 3.3 0.4 2.6 0.6 2.8 0.9 1 0.2 -1.3 1 -2.3 1.8 -2.3z m198.2 -3.5 c-1.7 -3.5 -2.7 -4.5 -4.6 -4.5 -2.4 0 -12.7 -5.6 -19.1 -10.4 -1.9 -1.4 -4.3 -2.6 -5.2 -2.6 -1.5 0 -1.6 0.4 -0.6 3 0.8 2.2 1.8 3 3.5 3 1.3 0 6.7 2.8 12 6.3 5.3 3.5 10.8 7.1 12.2 8 3.9 2.5 4.1 2.1 1.8 -2.8z m45.2 -19.1 c0 -0.3 -1.2 -2.1 -2.7 -4 -2.1 -2.6 -3.6 -3.4 -5.9 -3.4 -3 0 -12 -2.9 -20.6 -6.7 -2 -0.8 -4.4 -1.3 -5.3 -0.9 -1.5 0.5 -1.4 0.8 0.2 3.1 1.3 1.7 2.8 2.4 5.1 2.5 1.8 0 4.7 0.8 6.5 1.7 3.2 1.6 20.5 8.2 22 8.3 0.4 0 0.7 -0.2 0.7 -0.6z m-124 -6.4 c3.6 -0.4 5 -0.8 3.3 -0.8 -1.8 -0.1 -3.3 -0.6 -3.3 -1.2 0 -1.3 -3.3 -1.3 -4.7 0.1 -0.6 0.6 -3.8 0.9 -7.7 0.7 -6.1 -0.3 -8.3 0.3 -5.3 1.5 1.7 0.7 10 0.6 17.7 -0.3z m21.4 -2.6 c1.7 -0.7 2.2 -3.4 0.6 -3.4 -0.5 0 -1 0.6 -1 1.4 0 0.8 -0.6 1.7 -1.2 1.9 -0.7 0.3 -1 0.6 -0.6 0.6 0.3 0.1 1.3 -0.2 2.2 -0.5z m128 -4.2 c0.3 -0.5 -2 -3.5 -4.9 -6.7 -3 -3.2 -5.5 -6.7 -5.5 -7.7 0 -1.1 -0.7 -1.8 -1.9 -1.8 -1 0 -4.1 -2.4 -6.9 -5.4 -7.9 -8.4 -7 -5.3 1.1 3.7 3.9 4.3 9.2 10.4 11.7 13.3 4.5 5.4 5.5 6.1 6.4 4.6z m-116.4 -5.3 c0 -1.8 0.5 -2 6 -1.8 3.3 0.1 6.3 -0.1 6.7 -0.4 0.3 -0.4 -2.8 -0.7 -7 -0.7 -7 0 -7.6 -0.2 -8 -2.2 -0.3 -1.5 -0.5 -1 -0.6 1.3 -0.1 2.7 -0.7 3.9 -2.3 4.7 -2.1 1 -2 1.1 1.5 1.1 3.1 0.1 3.7 -0.2 3.7 -2z m-52.8 -4.1 c0.3 -2.6 0 -3.8 -0.9 -3.8 -0.8 0 -1.3 1.2 -1.3 2.9 0 2.7 -0.4 3 -3.7 3.4 l-3.8 0.4 4.3 0.1 c2.5 0.1 4.2 0.7 4.3 1.5 0.1 1.9 0.7 -0.5 1.1 -4.5z m16 1 l0.3 -4.3 5.8 -0.3 c5.4 -0.3 5.7 -0.2 5.7 2 0 2.1 0.4 2.3 4.4 2 3.3 -0.3 4.5 -0.9 4.9 -2.3 0.4 -1.4 1.4 -1.9 3.6 -1.9 2.4 0 3.1 -0.4 3.1 -2 0 -2.3 -2.8 -2.7 -3.6 -0.5 -0.4 1 -2 1.5 -4.5 1.5 -3.2 0 -3.9 -0.3 -3.9 -2 0 -2.1 -1.5 -2.7 -2.5 -1 -0.3 0.6 -3.1 1 -6.1 1 -3 0 -5.4 -0.4 -5.4 -1 0 -1.5 -2.6 -1.2 -4 0.5 -0.7 0.8 -2.2 1.5 -3.4 1.6 -1.7 0 -1.6 0.2 0.7 1.1 2.7 0.9 2.9 1.4 2.5 5.4 -0.2 3 0.1 4.4 0.9 4.4 0.7 0 1.3 -1.8 1.5 -4.2z m53.8 -7 c0 -0.7 0.3 -2.3 0.6 -3.5 0.4 -1.4 0.2 -2.3 -0.5 -2.3 -0.6 0 -1.1 0.7 -1.1 1.5 0 0.8 -1.5 1.9 -3.2 2.4 -2.6 0.7 -2.8 0.9 -1 1 1.2 0.1 2.2 0.6 2.2 1.1 0 0.6 0.7 1 1.5 1 0.8 0 1.5 -0.6 1.5 -1.2z m-113.9 -6.4 c-0.2 -1 -0.4 -5.7 -0.5 -10.4 -0.1 -9.8 -1.2 -11.9 -5.2 -10.1 -1.3 0.6 -2.7 1.9 -3.1 2.8 -0.3 1 -1.5 2.8 -2.6 4.1 l-2.1 2.2 3.7 3.1 c3.4 2.8 3.7 3.5 3.7 8 l0 4.9 3.3 -1.3 c2.3 -1 3.1 -1.9 2.8 -3.3z m18.9 2.5 c0 -0.5 -0.7 -0.9 -1.5 -0.9 -1.5 0 -2 1.2 -0.9 2.3 0.8 0.8 2.4 -0.1 2.4 -1.4z m-6 -1.9 c-2 -1.3 -4 -1.3 -4 0 0 0.6 1.2 1 2.8 1 2.1 0 2.4 -0.2 1.2 -1z m46.3 -15 c0.4 -1.4 2.2 -1.8 11.5 -2.3 12.4 -0.7 31.7 0.7 33.8 2.4 1.1 0.9 2.5 0.9 5.9 -0.1 2.7 -0.7 7 -1 10.5 -0.7 4.7 0.4 6 0.2 6 -0.9 0 -1.6 2.1 -2.1 12.3 -2.8 6.7 -0.4 8.8 -1 16.2 -4.9 12.5 -6.7 19.1 -11.4 27.7 -19.6 5.1 -4.7 8.7 -9.3 10.5 -12.8 2.6 -5.4 2.6 -5.6 0.9 -8.7 -1.8 -3.4 -10.5 -11 -19.4 -16.9 -7.7 -5.1 -16.1 -9.1 -26.1 -12.2 -16.8 -5.3 -76.1 -16.7 -101.5 -19.5 -5.5 -0.6 -14.3 -1.9 -19.5 -3 -5.3 -1 -12.6 -2.4 -16.3 -3 -3.7 -0.6 -7.5 -1.3 -8.3 -1.6 -1 -0.4 -1.5 0 -1.5 1.5 0 1.6 0.6 2.1 2.8 2.1 1.6 0 6.4 0.9 10.8 1.9 10.1 2.4 18.3 3.9 25.9 4.5 3.3 0.3 8.7 1.3 12 2.2 3.3 0.8 8.3 1.9 11 2.4 5.1 0.8 26.1 6 32.5 7.9 6.9 2.1 13.5 6.2 16 9.8 2.2 3.3 2.5 4.7 2.5 13.4 l0 9.8 -4.3 4.3 c-6.2 6.4 -13.3 10.3 -25.2 13.8 -14.9 4.4 -29.3 6.7 -46.3 7.6 -13.9 0.6 -14.9 0.8 -15.7 2.8 -0.4 1.2 -4.4 7 -8.9 13 -4.4 5.9 -8.1 11.2 -8.1 11.8 0 0.8 4.2 0.9 13.8 0.5 7.5 -0.4 14.2 -0.3 14.9 0.1 0.6 0.4 6.1 0.3 12.1 -0.2 9.1 -0.7 11.1 -1.2 11.5 -2.6z m174.5 -11.6 c5.9 -2.8 8.5 -3.5 11.9 -3.2 l4.5 0.3 -2.7 -2.2 c-3.5 -3.1 -6.9 -2.9 -13.4 0.7 -4 2.2 -6.8 3 -10.5 3 l-5.1 0.1 2.8 2.4 c1.5 1.4 3.3 2.5 3.9 2.5 0.5 0 4.4 -1.6 8.6 -3.6z m-373.2 -24.9 c3.8 -4.4 9 -10.5 11.6 -13.7 l4.8 -5.6 -5.2 -0.4 -5.2 -0.3 -4.5 7 c-2.4 3.8 -6 8.9 -7.9 11.3 -2.7 3.2 -3.2 4.6 -2.4 5.4 0.7 0.7 1.2 2.1 1.2 3.2 0 1 0.2 1.7 0.3 1.5 0.2 -0.2 3.5 -4 7.3 -8.4z m85.3 -9.5 c-0.4 -5.8 -0.5 -13.7 -0.2 -17.7 l0.6 -7.1 -4.4 -0.6 c-11.3 -1.4 -10.9 -1.4 -10.9 1 0 1.3 -0.4 2.6 -1 2.9 -0.5 0.3 -1 1.4 -1 2.4 0 1 -0.9 3 -2 4.4 -1.1 1.4 -2 3.7 -2 5.1 0 1.5 -0.8 3.1 -2 3.8 -2.7 1.7 -2.5 3.6 0.5 4.4 1.4 0.3 2.5 1.2 2.5 1.9 0 0.7 2 1.5 5 1.9 3 0.4 5.9 1.5 7 2.6 1.1 1.1 2.4 2 3 2 0.5 0 1.3 0.6 1.7 1.4 0.6 1 3.5 2.7 3.9 2.2 0.1 0 -0.2 -4.8 -0.7 -10.6z m302.4 3.9 c1.2 -0.6 4.5 -2.9 7.3 -5 4.3 -3.3 5.9 -3.9 10 -3.9 l4.9 -0.1 -2.4 -1.9 c-3.1 -2.6 -6.1 -2.5 -10.2 0.3 -1.9 1.3 -5.2 3.6 -7.3 5 -2.6 1.9 -5.2 2.7 -8 2.7 l-4.1 0 3 2 c3.5 2.3 3.9 2.4 6.8 0.9z m-246.8 -12.1 c0.4 -1.7 0.3 -2.8 -0.3 -2.8 -1 0 -2.2 3.2 -2.2 6 0 2.2 1.8 -0.1 2.5 -3.2z m56.8 -4 c0.7 -0.4 2.2 -0.8 3.5 -0.8 1.2 0 2.2 -0.4 2.2 -1 0 -0.5 0.9 -1 2 -1 1.1 0 2 -0.7 2 -1.5 0 -1 -1 -1.5 -3.4 -1.5 -2.1 0 -3.6 -0.6 -4 -1.5 -0.9 -2.4 -2.6 -1.8 -2.6 0.9 0 1.3 -0.4 2.6 -0.9 2.8 -0.5 0.2 -1 1.9 -1.1 3.8 -0.3 4.9 0.2 7.1 0.7 3.5 0.3 -1.6 1 -3.3 1.6 -3.7z m-144.9 -1.8 c0.2 -1.5 1.4 -3.1 2.6 -3.6 1.6 -0.7 0.8 -0.9 -3.4 -0.9 -4.9 0 -5.6 0.3 -7 2.7 -2.1 3.4 -2.1 3.5 1.1 5.2 3.3 1.7 5.9 0.4 6.7 -3.4z m-22.5 -13.7 c1.2 -1.8 1.9 -3.3 1.4 -3.3 -1.7 0.1 -9.8 4.5 -9.5 5.3 0.1 0.4 0.2 2.3 0.2 4.2 l0 3.6 2.8 -3.3 c1.6 -1.8 3.8 -4.8 5.1 -6.5z m392.1 2.8 c0 -0.5 0.3 -1.6 0.6 -2.5 0.5 -1.3 -0.1 -1.6 -2.7 -1.6 -3.7 0 -9.6 -1.4 -14.4 -3.5 -1.6 -0.6 -5.7 -1.8 -9 -2.5 -3.3 -0.6 -7 -1.4 -8.2 -1.7 -1.6 -0.4 -2.3 -0.1 -2.3 1 0 0.9 1.3 1.7 3.3 2.1 1.8 0.3 9.3 2.6 16.7 5 14.6 4.8 16 5.1 16 3.7z m-404 -31.9 c-1.1 -2.5 -2 -5.1 -2 -5.8 0 -2.1 -5.8 -1.7 -9.6 0.7 -3 1.8 -3.4 2.5 -3.3 6.2 0 2.3 0.3 3.6 0.6 3 0.2 -0.8 2.2 -1.3 4.4 -1.3 3.2 0 3.9 0.3 3.9 2 0 1.2 0.7 2 1.6 2 0.8 0 2.3 0.7 3.2 1.6 1.5 1.6 1.7 1.5 2.4 -1.2 0.5 -1.9 0.1 -4.1 -1.2 -7.2z m17.8 -3.3 c0.2 -0.5 1.2 -0.9 2.3 -0.9 1 0 1.9 -0.3 1.9 -0.7 0 -0.5 2.8 -1.7 6.3 -2.7 6.3 -2 8.7 -3.5 8.7 -5.6 0 -0.6 1.2 -2.3 2.6 -3.7 1.9 -1.9 2.1 -2.4 0.7 -1.9 -1 0.4 -4.5 1.3 -7.8 2.1 -3.3 0.8 -10.1 2.3 -15 3.6 l-9.1 2.1 2.5 4.9 c2 4.2 2.7 4.8 4.5 4.3 1.2 -0.4 2.3 -1.1 2.4 -1.5z m396.2 -11.2 c0 -2.4 -0.1 -2.4 -14.3 -3 -7.9 -0.4 -16.5 -1 -19 -1.3 -4.3 -0.6 -4.7 -0.5 -4.7 1.5 0 1.8 0.6 2.1 4.8 2.2 2.6 0 9.2 0.7 14.7 1.4 5.5 0.7 11.9 1.3 14.3 1.4 3.8 0.1 4.2 -0.1 4.2 -2.2z m-358.6 -4.3 c0.9 -0.3 1.6 -1.2 1.6 -1.9 0 -0.7 1.2 -1.8 2.8 -2.3 5.3 -2 -0.4 -1.1 -8.3 1.2 l-8 2.4 5 0.4 c2.8 0.2 5.1 0.5 5.2 0.6 0.1 0.1 0.8 -0.1 1.7 -0.4z m10.6 -6.3 c0 -0.5 1.2 -1.1 2.8 -1.3 2.2 -0.3 2.4 -0.6 1 -1.2 -1.2 -0.5 -2.6 -0.1 -4.4 1.3 -1.9 1.5 -2.2 2.1 -1 2.1 0.9 0 1.6 -0.4 1.6 -0.9z m105.9 -20.7 c12.5 -1.3 17.6 -1.4 27.7 -0.5 17 1.5 29.3 1.4 52.2 -0.5 15.7 -1.3 21.5 -1.4 30.1 -0.5 12.6 1.3 27.5 1.3 42.6 0.1 6.1 -0.5 16.3 -1.3 22.8 -1.6 l11.9 -0.7 -0.7 -5.6 c-2.1 -17.5 -8.5 -40.2 -15.9 -55.5 -29 -60.9 -84.1 -99.8 -151.9 -107.3 -12.7 -1.4 -16.8 -1.5 -28 -0.5 -7.3 0.7 -17.7 2.1 -23.2 3.3 -72.1 14.8 -129.5 70.7 -144.8 141 -1.4 6.3 -2.7 13 -3 15 l-0.5 3.6 13.9 1.3 c8.1 0.7 17.7 1 23.1 0.6 6.8 -0.5 11.6 -0.2 17.8 0.9 4.7 0.9 12.8 2 18 2.5 5.2 0.4 11.5 1.2 14 1.8 2.5 0.6 12.4 1.3 22 1.7 10.4 0.4 18.9 1.3 21 2 4.4 1.7 28.5 1.1 50.9 -1.1z m-195.9 -26.4 c0 -1.6 -0.7 -2 -3.1 -2 -2.8 0 -9.6 -1 -27.2 -4.1 -6.5 -1.2 -6.2 -1.2 -7.1 1.8 -0.6 2 -0.3 2.2 6.1 2.8 3.7 0.3 11.3 1.2 16.8 1.9 14.4 1.9 14.5 1.9 14.5 -0.4z m417.4 -2.6 c2.2 -2.1 2 -4 -0.5 -5.8 -3.9 -2.7 -8.4 2 -5.3 5.5 2.1 2.3 3.8 2.4 5.8 0.3z m-413.4 -15.8 c0 -0.2 0.3 -1.1 0.6 -2 0.5 -1.2 0 -1.6 -2.1 -1.6 -1.4 0 -9.6 -1.9 -18.1 -4.2 -8.5 -2.2 -15.6 -3.9 -15.8 -3.7 -0.2 0.2 -0.7 1.4 -1 2.7 -0.7 2 -0.4 2.2 3.6 2.2 5.5 0.1 12.2 1.6 12.6 2.9 0.2 0.6 2.5 1.1 5 1.2 2.6 0 6.5 0.6 8.7 1.4 4.3 1.4 6.5 1.8 6.5 1.1z m392.9 -18.7 c3 -1 7.1 -1.9 9.3 -1.9 3.5 0 3.8 -0.2 3.8 -2.8 0 -1.5 2.1 -6.3 4.6 -10.6 2.5 -4.3 4.3 -8 4 -8.4 -0.8 -0.7 -0.6 -1 -6.6 9.1 -2.9 4.8 -5.3 8.7 -5.4 8.7 0 0 -3.4 1.4 -7.5 3 -4 1.7 -8.2 3 -9.2 3 -1.1 0 -1.9 0.7 -1.9 1.6 0 1.1 0.5 1.4 1.8 0.9 0.9 -0.4 4.1 -1.6 7.1 -2.6z m-379.1 -18.6 c0.2 -0.9 -0.8 -1.3 -3.3 -1.3 -2 0 -6.6 -0.4 -10.3 -0.9 -3.7 -0.5 -9.8 -1.2 -13.6 -1.5 -6.8 -0.5 -6.8 -0.5 -5.1 1.4 1.4 1.6 3.2 2 8.4 2.1 3.6 0.1 7.7 0.5 9.1 0.9 3.8 1.3 14.3 0.7 14.8 -0.7z m363 -20.4 c4.2 -2.3 9.5 -5.2 11.7 -6.4 2.2 -1.3 5.7 -3.2 7.7 -4.3 3.2 -1.6 3.5 -2.2 2.5 -3.5 -1.1 -1.4 -2.9 -0.6 -15.5 7.3 -7.9 5 -14.8 9 -15.3 9 -0.5 0 -0.9 0.5 -0.9 1 0 1.7 1.8 1.1 9.8 -3.1z m-375 -11.9 c1.5 0 6.8 0.7 11.7 1.5 10.8 1.8 10.5 1.7 10.5 0.5 0 -0.5 -1.5 -1 -3.4 -1 -1.8 0 -8.7 -1.1 -15.2 -2.4 -11 -2.3 -11.8 -2.4 -13 -0.8 -1.1 1.5 -0.8 2 2.4 3.9 3.6 2.3 3.7 2.3 4 0.3 0.2 -1.4 1.1 -2 3 -2z m359.5 -11.8 c0.9 -0.8 1.7 -2.5 1.7 -3.6 0 -1.2 1.1 -6.6 2.5 -12 3 -11.8 3.1 -14.7 0.6 -17 -1.7 -1.6 -1.9 -1.6 -2.5 0.6 -0.3 1.3 -0.6 3.4 -0.6 4.8 0 1.4 -1.3 8.5 -3 15.8 -1.6 7.4 -3 13.6 -3 13.8 0 0.7 2 -0.5 4.3 -2.4z m-322.1 -20.7 c-7 -7 -13 -12.1 -13.5 -11.6 -0.8 0.8 3.4 5.1 17.3 17.6 3.6 3.3 6.7 6.3 6.8 6.7 0.2 0.5 0.8 0.6 1.2 0.3 0.5 -0.3 -4.8 -6.2 -11.8 -13z m-27.2 6.5 c-1.9 -1.3 -3 -1.3 -3 0 0 0.6 1 1 2.3 1 1.8 0 1.9 -0.2 0.7 -1z m319.1 -14.7 c7.7 -8.2 16.9 -18.9 16.9 -19.7 0 -1.1 -2.8 -0.6 -3.3 0.7 -0.6 1.7 -16.4 20.8 -18.9 23 -1.1 0.9 -1.6 1.7 -1.1 1.7 0.6 0 3.4 -2.6 6.4 -5.7z m-259.3 3.3 c-0.2 0 -1.4 -1 -2.7 -2.1 l-2.5 -2 2 2.6 c1 1.5 2.3 2.5 2.7 2.2 0.5 -0.3 0.7 -0.6 0.5 -0.7z m-8.4 -10.3 c-8.2 -13.1 -12 -18.3 -12.9 -17.9 -2.1 0.7 -0.5 3.6 7.6 13.4 4.6 5.6 8.5 10.2 8.6 10.2 0.2 0 -1.4 -2.6 -3.3 -5.7z m256.1 -15.3 c3.7 -5.2 7.4 -10 8.2 -10.7 1.3 -1 1.2 -1.3 -0.6 -2.2 -1.6 -0.9 -2.1 -0.8 -2.6 0.8 -0.3 1.1 -4 7.2 -8.1 13.6 -10.9 17.2 -9.9 16.7 3.1 -1.5z m-213.3 6.4 c0.4 -0.3 -0.6 -3.6 -2.2 -7.2 -1.6 -3.7 -4.4 -10.5 -6.4 -15.2 -2 -4.6 -3.6 -9.3 -3.6 -10.3 0 -1.4 -0.5 -1.7 -2.2 -1.1 -1.3 0.3 -2.4 0.8 -2.6 0.9 -0.2 0.2 3.1 7.1 7.2 15.4 4.2 8.3 7.6 15.8 7.6 16.6 0 1.5 1.2 2 2.2 0.9z m192.8 -7.4 c7 -7 9.3 -13.7 6.8 -19.7 l-1.1 -2.8 -0.8 4.6 c-0.9 6.1 -5 14.5 -9.6 19.8 -2.8 3.4 -3.2 4.1 -1.4 3.2 1.2 -0.7 4 -3 6.1 -5.1z m-21 -17.3 c1.2 -3.1 3.3 -7.1 4.7 -8.8 3.3 -3.9 2.6 -4.5 -2 -1.3 -7 4.7 -10.6 16.1 -7.4 23.1 1.2 2.7 1.2 2.7 1.8 -2.2 0.4 -2.8 1.7 -7.6 2.9 -10.8z m-151.8 5.1 c-1.7 -4.4 -2.7 -9 -3.1 -15.3 l-0.6 -9 -2.2 4.6 c-2.8 5.6 -2.9 9.1 -0.2 14.9 1.6 3.5 7.4 11 8.5 11 0.1 0 -1 -2.8 -2.4 -6.2z m24.3 -1.8 c0.8 -1.6 1.5 -4.7 1.5 -7 0 -4.4 -3.5 -12.4 -6.7 -15.2 -1.8 -1.7 -1.8 -1.4 0.3 5 1.5 4.3 2.4 9.1 2.4 13.5 0 3.7 0.2 6.7 0.5 6.7 0.2 0 1.1 -1.3 2 -3z m90.4 -21.4 l2.1 -4.9 -2.1 1.9 c-3.6 3.3 -7.2 10.3 -7.2 14.3 0 2 0.9 5.5 1.9 7.7 l1.9 3.9 0.6 -9 c0.4 -6.1 1.3 -10.6 2.8 -13.9z m-52.9 12.4 c0 -4.6 -0.2 -5 -2.3 -5 -1.7 0 -4.7 -2.7 -11.2 -10 -7.9 -9.1 -11.4 -11.6 -12.8 -9.2 -0.3 0.4 -0.3 1.9 0 3.5 0.4 2 1.1 2.7 2.9 2.7 2.4 0 10.8 8 19.1 18.2 2.1 2.7 3.9 4.8 4.1 4.8 0.1 0 0.2 -2.2 0.2 -5z"/>
  <path d="M109 415.5 c0 -2.8 0.4 -3.5 2 -3.5 1.1 0 2 -0.6 2 -1.3 0 -0.7 1.9 -2 4.3 -2.8 3.8 -1.4 4.2 -1.9 4.5 -5.2 0.2 -2.5 0.9 -3.8 2.3 -4.2 3.3 -1.1 2.3 -3.5 -1.6 -3.5 -3.4 0 -3.5 -0.1 -3.5 -3.8 0 -4.9 3.2 -8.2 7.9 -8.2 3.2 0 3.3 0.1 2.9 3.9 -0.2 2.2 0 3.7 0.4 3.5 0.5 -0.3 0.8 -1.2 0.8 -2 0 -1.7 3.1 -1.8 9.9 -0.2 4.9 1.1 5.1 1.3 5.1 4.5 0 3.2 -0.1 3.3 -4 3.3 -3.9 0 -4 0.1 -4 3.7 0 5.4 -2 10.2 -4.4 10.5 -1.3 0.2 -2.2 1.2 -2.4 2.5 -0.3 1.8 -1.2 2.2 -7.3 2.8 -4.9 0.5 -6.9 1.1 -6.9 2.1 0 1 -1.2 1.4 -4 1.4 -3.9 0 -4 -0.1 -4 -3.5z"/>
  <path d="M76.2 384 c-2.6 -2.1 -3.7 -6.5 -2.8 -11.3 0.5 -2.5 1.6 -3.9 4.5 -5.5 2.3 -1.3 4.1 -3.2 4.5 -4.7 0.5 -2.1 1.2 -2.5 4.1 -2.5 4.6 0 5.8 2.5 5.3 10.8 -0.4 5.6 -0.8 6.7 -3.1 8.4 -1.6 1.2 -2.7 2.9 -2.7 4.4 0 2.1 -0.4 2.4 -3.7 2.4 -2.2 -0.1 -4.8 -0.9 -6.1 -2z"/>
  <path d="M173.8 170.8 l-6.8 -1.1 0 -9.4 0 -9.3 3.5 0 c2.4 0 3.5 0.5 3.5 1.5 0 0.8 1.4 3 3 4.9 3.6 4 8.5 5.6 10.7 3.4 1.8 -1.9 0.4 -3.1 -9 -7.8 -8.8 -4.3 -11.7 -8.1 -11.7 -15.2 0 -10.8 5.1 -16 16.3 -16.6 3.8 -0.3 9.5 0.1 12.8 0.8 l5.9 1.3 0 7.8 0 7.9 -3.2 0 c-2.4 0 -3.9 -0.9 -6.5 -4 -3.6 -4.2 -6.2 -5 -8.3 -2.5 -1 1.2 0.1 2.1 7.6 5.7 10.7 5.2 12.7 7.6 13.2 16.1 0.4 7.4 -1.7 12.2 -6.5 15 -4 2.3 -15.1 3 -24.5 1.5z"/>
  <path d="M207 166.8 c0 -1.8 0.7 -4.2 1.5 -5.2 2.1 -2.8 2.1 -27.9 0 -32 -0.8 -1.5 -1.5 -4.4 -1.5 -6.2 l0 -3.4 18.8 0.2 18.7 0.3 0.3 8.3 c0.3 8.2 0.3 8.2 -2.3 8.2 -2.5 0 -2.5 0.1 -2.5 8 l0 8 3.4 0 c3.4 0 3.5 0.1 3.8 4.3 0.3 4.1 0.4 4.1 1.6 1.7 0.6 -1.4 4.5 -10.6 8.6 -20.5 l7.4 -18 4.1 0 4.1 0 5.9 14.6 c3.3 8 7.3 17.7 9 21.4 3 6.5 3.2 6.8 4.9 5.2 1.5 -1.5 1.7 -3.8 1.6 -17.5 -0.1 -8.6 -0.5 -17.6 -0.9 -19.9 l-0.7 -4.3 11.6 0 11.6 0 0 3 c0 1.7 -0.9 3.9 -2 5 -1.8 1.8 -2 3.3 -2 17 l0 15 2.5 0 c2.7 0 9.1 -5.1 10 -8.1 0.5 -1.4 1.5 -1.9 4.1 -1.9 l3.4 0 -0.1 6.8 c-0.1 3.7 -0.4 8 -0.8 9.6 l-0.6 3 -31.3 0.3 -31.2 0.2 0 -3.2 c0 -1.8 0.4 -3.7 0.9 -4.2 0.5 -0.6 0.5 -2 0 -3.3 -0.7 -1.9 -1.5 -2.3 -4.1 -2 -3.7 0.3 -5.2 3.5 -2.4 5 1 0.6 1.6 2.2 1.6 4.3 l0 3.5 -28.5 0 -28.5 0 0 -3.2z m30.1 -9.4 c2.7 -2.4 2.4 -3.4 -1 -3.4 -2 0 -3.4 -0.8 -4.5 -2.5 -2.8 -4.3 -4.6 -3.2 -4.6 2.9 0 3.5 0.5 5.6 1.3 5.9 1.8 0.6 6.7 -1 8.8 -2.9z m-5.6 -20.4 c1 -1.1 2.8 -2 3.9 -2 1.9 -0.1 1.9 -0.2 -0.7 -2.5 -1.5 -1.4 -3.9 -2.5 -5.3 -2.5 -2.2 0 -2.4 0.4 -2.4 4.5 0 5 1.5 5.8 4.5 2.5z"/>
  <path d="M178.3 117.1 c-4.7 -2.9 -6.5 -10.4 -4.3 -18.2 1.5 -5.4 5.6 -7.2 15.3 -6.7 4.2 0.2 7.7 0 7.7 -0.4 0 -0.5 11.7 -0.8 26 -0.8 22.6 0 26 0.2 26 1.5 0 1.4 0.3 1.4 2.8 0.1 1.9 -1 6.6 -1.4 16.5 -1.4 l13.7 -0.1 0 3.4 c0 1.9 -0.4 3.7 -1 4 -0.5 0.3 -1 3.1 -1 6.2 0 3.1 0.3 5.3 0.8 4.9 0.4 -0.4 2.1 -4.4 3.7 -8.9 l3.1 -8.2 3.9 0 3.9 0 3.7 8.3 c2 4.5 4 8.6 4.4 9 0.7 0.7 0.2 -6.3 -1.1 -14.5 l-0.6 -4.3 7.1 0 7.1 0 0 3.5 c0 1.9 -0.4 3.5 -1 3.5 -0.6 0 -1 2.7 -1 6 0 5.7 1.1 7.8 2.4 4.5 0.3 -0.9 1.9 -1.5 4.1 -1.5 l3.5 0 0 5.5 0 5.5 -15.9 0 -15.8 0 -0.7 -3.1 c-0.7 -3.5 -2.6 -3 -2.6 0.7 0 2.4 -0.1 2.4 -10 2.4 -6.2 0 -10 -0.4 -10 -1 0 -0.7 -0.6 -0.7 -1.9 0 -2.5 1.3 -13.7 1.3 -16.2 0 -1.3 -0.7 -1.9 -0.7 -1.9 0 0 0.6 -2.7 1 -6.6 1 l-6.5 0 0.7 -8.5 c0.7 -8.2 0.6 -8.5 -1.5 -8.5 -1.8 0 -2.1 0.6 -2.1 4.5 0 4 -0.2 4.5 -2.3 4.5 -2 0 -2.2 0.4 -1.9 4 l0.4 4 -6.6 0 -6.7 0 0.7 -8.5 c0.6 -7.5 0.5 -8.5 -1 -8.5 -1.3 0 -1.6 1 -1.6 5 0 4.3 -0.3 5 -2 5 -1.6 0 -2 0.7 -2 3.6 l0 3.5 -7.2 0 c-4 0 -10.4 0.2 -14.3 0.5 -5.9 0.4 -7.5 0.2 -10.2 -1.5z m10.6 -9.3 c1 -2.9 -0.1 -7.3 -2 -7.3 -1.6 0 -2.4 3.6 -1.5 7.1 0.8 3 2.4 3.1 3.5 0.2z m73.6 1.2 c0.3 -0.5 2.2 -1 4.1 -1 3.1 0 3.4 -0.2 3.4 -3 0 -2.7 -0.3 -3 -3.4 -3 -1.8 0 -3.9 -0.7 -4.6 -1.5 -1.5 -1.8 -2.8 -1.1 -4 2.1 -1.6 4.2 2.4 9.8 4.5 6.4z"/>
 </g>
 <g fill="#037b1a">
  <path d="M207.8 492.3 c-1 -0.3 -1.8 -0.9 -1.8 -1.4 0 -0.6 -0.5 -0.7 -1.1 -0.3 -0.6 0.3 -1.5 0 -2 -0.7 -1.4 -2.2 -1.1 -3.3 0.5 -2 2 1.7 0.1 -4.1 -5.9 -18.4 -2.6 -6 -5.5 -13.7 -6.4 -17 -2.4 -8.1 -3.5 -16.5 -2.1 -16.5 0.5 0 1 -1.1 1 -2.5 0 -1.4 0.7 -4.2 1.6 -6.3 0.9 -2 1.7 -4.8 1.8 -6.2 0.1 -1.4 0.7 -2.4 1.4 -2.2 1.2 0.2 3.8 -4.8 5.7 -10.7 0.7 -2.2 0.5 -2.2 -2.4 0.8 -1.7 1.7 -3.1 2.6 -3.1 1.9 0 -0.9 -0.2 -1 -0.8 -0.1 -0.4 0.6 -2.4 1 -4.5 0.9 -2.8 -0.1 -3.6 0.2 -3.2 1.3 0.3 0.7 0 2 -0.6 2.7 -0.6 0.8 -0.9 2.1 -0.5 3 0.5 1.2 0.1 1.4 -1.5 0.9 -1.6 -0.5 -1.9 -0.4 -1.4 0.5 0.5 0.8 0.1 1.8 -1 2.7 -1.5 1 -1.5 1.3 -0.4 1.3 0.8 0 1.9 -0.4 2.5 -1 0.7 -0.7 0.9 0.2 0.6 2.5 -0.2 2 0.2 4.5 1 5.8 2 3.1 1.6 15 -0.6 17.2 -0.9 0.9 -1.6 2.1 -1.6 2.6 0 0.5 -0.7 0.9 -1.5 0.9 -1.8 0 -1.9 -1.2 -0.3 -2.8 0.6 -0.6 -1.2 -0.3 -4 0.8 -5.7 2.2 -6.4 1.9 -2.9 -1.2 l2.2 -2 -2.2 0.6 c-1.3 0.3 -3.3 0.9 -4.5 1.2 -2.2 0.6 -2.2 0.5 0.2 -1.5 l2.5 -2.2 -3.7 0.7 c-4.1 0.7 -4.8 -0.1 -2 -2.3 1.5 -1.3 1.3 -1.4 -1.8 -0.8 -1.9 0.4 -5.9 1 -8.7 1.4 -7.1 1 -7.8 2.1 -1.4 2.1 l5.1 0 -1.6 2.5 c-1.5 2.4 -1.5 2.5 0.2 2.5 1.6 0 1.7 0.2 0.4 1 -1.2 0.8 -1.1 1 0.7 1 3.8 0 7.4 2.2 6.8 4.1 -0.5 1.5 -0.1 1.6 3.6 0.8 5.2 -1.2 5.9 -0.6 2.9 2.6 -2.6 2.7 -1.7 3.3 1.4 1 1.1 -0.8 2.9 -1.5 3.9 -1.5 1.7 0 1.8 0.2 0.6 1.7 -1.3 1.5 -1.2 1.5 1.8 0 4.1 -2.2 4.2 -2.1 3.5 0.5 -0.4 1.7 -0.2 2 1.1 1.5 1 -0.4 2.4 -1 3.3 -1.4 1.3 -0.5 1.5 -0.2 0.9 1.5 -0.6 2 -0.4 2.1 1.8 1.3 2.4 -0.9 3.7 -0.6 3.7 1 0 0.4 -1.6 2 -3.6 3.6 -3.4 2.5 -3.7 2.6 -4.9 1 -0.7 -1 -1.9 -1.5 -2.9 -1.1 -0.9 0.3 -1.6 0.1 -1.6 -0.6 0 -0.7 -0.8 -0.9 -2 -0.5 -1.4 0.5 -1.8 0.2 -1.5 -0.7 0.8 -2 -3.2 -1.7 -7.8 0.6 -4.7 2.3 -5.2 3.1 -3 4.8 1 0.7 1.8 2.4 1.8 3.7 0 1.9 0.7 2.6 2.9 3.2 2.3 0.6 4 0.2 8.2 -2.1 2.9 -1.7 5.7 -3 6.2 -3 0.6 0 1.3 1.5 1.6 3.4 0.4 1.9 1.3 3.7 2.1 4 2.2 0.8 1.8 2.2 -1.1 4.1 -2.5 1.6 -3 1.5 -15.5 -2.5 -11.7 -3.7 -15.9 -6 -11.1 -6 1.5 0 1.7 -0.6 1.4 -3.4 -0.5 -3.9 -2.8 -4 -3.8 -0.1 -0.7 2.9 -2.7 3.7 -5.9 2.5 -3.2 -1.2 -3.2 -2.5 0.3 -4.1 3 -1.3 7.8 -6.6 6.8 -7.6 -0.3 -0.3 -1.7 0.2 -3 1.1 -1.8 1.1 -2.7 1.3 -3.2 0.4 -0.5 -0.8 -1.1 -0.6 -1.9 0.6 -1.1 1.4 -1.4 1.5 -2.5 0.1 -1.8 -2.1 -3.3 -1.9 -2.5 0.4 0.9 3 -5.4 3.9 -10.6 1.5 -3.3 -1.4 -3.9 -2.1 -3.5 -4 0.7 -2.7 -1.3 -4.5 -4.7 -4.2 -2.8 0.2 -7.7 -2 -7.7 -3.5 0 -0.6 0.5 -0.6 1.3 0 1.7 1.4 5.6 2.3 6.1 1.4 0.5 -0.8 -6.3 -3.7 -7.6 -3.3 -0.5 0.1 -0.8 -0.5 -0.8 -1.3 0 -0.8 -0.6 -1.5 -1.2 -1.5 -0.7 -0.1 -2.6 -0.7 -4.3 -1.5 -3 -1.4 -3 -1.4 1.7 -0.9 2.6 0.3 5.3 0.2 6 -0.2 0.7 -0.5 2.9 -1.4 4.8 -1.9 3.3 -1 3.2 -1.1 -2.9 -1.3 -3.5 -0.1 -6.9 -0.6 -7.5 -1.2 -0.7 -0.7 -0.5 -1 0.7 -1 0.9 0 1.7 -0.4 1.7 -1 0 -0.5 -1.7 -1 -3.7 -1 -3.5 -0.1 -3.6 -0.2 -1.6 -1.3 1.2 -0.7 2.2 -1.6 2.2 -2.2 0 -0.5 0.8 -1.3 1.8 -1.7 1 -0.4 -1.2 -0.5 -4.8 -0.2 -6.7 0.6 -10.9 0 -10.9 -1.6 0 -0.5 0.8 -1 1.8 -1.2 0.9 -0.2 -2.6 -0.3 -7.8 -0.3 -7.1 0 -10.3 -0.5 -12.7 -1.8 -3.9 -2.1 -5 -3.7 -3.2 -4.8 1 -0.6 0.7 -0.9 -1.2 -0.9 -2.9 0 -10.9 -7.7 -10.9 -10.4 0 -3.4 2.2 -6.7 7.4 -10.7 5.9 -4.6 6.6 -5.8 2 -3.4 -1.6 0.8 -4.1 1.5 -5.6 1.5 -2.1 0 -2.8 0.5 -2.8 2 0 1.6 -0.7 2 -3.4 2 -1.9 0 -4.1 0.2 -4.9 0.5 -0.8 0.4 -2.8 -1.2 -5.1 -4 -3.1 -3.7 -3.6 -4.8 -2.6 -6 1 -1.2 0.9 -1.5 -0.9 -1.5 -1.1 0 -2.1 -0.4 -2.1 -1 0 -0.5 1.5 -1 3.4 -1 1.9 0 3.8 -0.5 4.1 -1 0.4 -0.6 -1.3 -1 -4.4 -1 -2.7 0 -5.3 -0.4 -5.6 -1 -0.3 -0.5 0.1 -1 0.9 -1 1.9 0 2.1 -1.6 0.4 -2.3 -0.7 -0.3 -0.3 -0.6 1 -0.6 3.4 -0.1 2.6 -2.1 -0.8 -2.1 -4.1 0 -3.8 -1.6 0.6 -3 2.2 -0.7 3.2 -1.5 2.5 -1.9 -0.8 -0.5 0.9 -3 4.6 -7.2 8.8 -9.8 16.4 -18.7 21.7 -25.7 2.6 -3.4 5.1 -6.2 5.6 -6.2 0.5 0 1.4 0.9 2.1 2.1 0.8 1.7 1.7 2 4 1.5 1.7 -0.3 3.1 -0.1 3.6 0.7 1.5 2.2 5.2 3.7 9.6 3.7 5.2 0 14.7 -2.7 14.7 -4.1 0 -0.6 -0.9 -0.7 -2.1 -0.4 -1.5 0.5 -1.9 0.4 -1.5 -0.4 0.7 -1.1 -1.7 -1.6 -5.6 -1.2 -1 0.1 -1.8 -0.4 -1.8 -1.3 0 -0.9 0.8 -1.6 1.8 -1.6 2.2 0 4.2 -1.9 4.2 -4 0 -0.8 0.9 -2.1 2 -2.8 1.1 -0.7 2 -1.8 1.9 -2.5 0 -0.9 -0.2 -0.9 -0.6 0.1 -0.7 1.9 -3.5 1.5 -3.1 -0.6 0.2 -0.9 1.1 -1.6 2.1 -1.6 0.9 0.1 1.7 -0.3 1.7 -0.8 0 -0.5 0.9 -2.1 1.9 -3.5 1.1 -1.3 1.7 -3.1 1.4 -4 -0.4 -0.9 0.1 -1.9 1 -2.5 1 -0.5 1.7 -2.1 1.7 -3.5 0 -2.5 0 -2.5 6.8 -1.9 3.7 0.4 8.4 0.9 10.4 1.2 l3.7 0.6 0 15.1 c0 8.4 0.4 17.2 1 19.7 1.4 6.2 5.8 19 7.1 20.5 0.6 0.7 3.7 2.3 6.9 3.5 5 1.8 6.4 2 9.8 1.1 4.6 -1.3 10.9 -7.5 14.2 -14 3.3 -6.3 2.5 -6.1 -1.5 0.5 -5.2 8.7 -8.3 11.5 -13.5 12.1 -3.6 0.4 -4.9 0.1 -6.9 -1.7 -2.1 -1.8 -2.2 -2 -0.5 -1.4 5.5 2 7.2 1.6 11.4 -2.2 4.8 -4.2 8.4 -9.9 10.7 -16.8 1.5 -4.2 4.3 -6.4 4.5 -3.3 0.2 4.6 6.3 -24 6.8 -32.1 0.1 -2 6.1 -0.4 8.3 2.2 2.6 3.1 2.4 5.1 -0.4 3.2 -2.8 -2 -5 -2 -2.4 -0.1 1.8 1.4 1.9 1.5 0.2 1.5 -1.6 0 -1.5 0.3 0.5 2 l2.4 1.9 -2.2 0.1 c-2.9 0 -3 1.6 -0.1 2.3 1.8 0.5 1.9 0.9 0.9 2.1 -0.9 1.1 -1 2 -0.2 3.5 1.4 2.6 1.4 2.9 -0.6 3.4 -1.2 0.3 -0.8 0.5 0.9 0.6 4 0.2 4.5 2.1 0.6 2.1 -1.8 0 -4 0.5 -4.8 1.1 -1.2 0.8 -1 0.9 0.7 0.4 2.7 -0.7 9.3 0.4 9.3 1.6 0 0.5 -1.9 0.9 -4.2 0.9 -5.3 0 -8.8 0.9 -8.8 2.2 0 0.6 0.7 0.7 1.8 0.2 2.1 -0.9 17.2 -1.2 17.2 -0.3 0 1.2 -4.7 1.9 -7.9 1.3 -3.4 -0.7 -12.4 1.4 -11.6 2.6 0.3 0.5 2.1 0.4 4.1 -0.1 1.9 -0.6 4.5 -0.8 5.7 -0.6 2 0.4 1.9 0.5 -1 1.8 -2.5 1 -3.2 1.8 -2.7 3.2 0.5 1.6 0.2 1.8 -3.3 1.2 -2.1 -0.4 -4.5 -0.9 -5.3 -1.1 -1 -0.2 -2.3 1.2 -3.8 4.3 -2.1 4.3 -2.1 4.9 -0.7 5.9 0.9 0.7 1.8 2.9 2.1 5 0.6 4.1 0 3.9 -3.3 -1.3 -1.1 -1.6 -1.2 -1.6 -1.2 0.8 -0.1 1.5 -0.8 3.2 -1.6 3.9 -0.8 0.7 -1.2 1.6 -1 2.1 0.3 0.4 -0.7 1.6 -2.2 2.6 -1.5 0.9 -4.2 2.9 -6 4.4 -4 3.5 -6.6 3.3 -19.8 -1.6 -1.6 -0.5 -1.7 -0.5 -0.5 0.4 0.8 0.6 1.5 1.4 1.5 1.8 0.1 2.8 3.9 6.1 7.6 6.7 2.3 0.4 5.9 1.6 8.1 2.7 4.8 2.5 12.5 9.4 13.3 12 0.9 2.9 2.5 2.3 2.5 -0.9 0 -2.1 -1.1 -3.9 -4.1 -6.6 -3.5 -3.1 -4 -4 -3.4 -6.4 0.3 -1.5 1.4 -3.6 2.4 -4.7 1 -1.1 2.1 -2.8 2.4 -3.7 0.8 -2.2 9 -6.5 9.5 -4.9 0.2 0.6 0.8 1.1 1.3 1.1 0.6 0 2.1 1.1 3.5 2.4 2.2 2 2.4 2.7 1.5 4.4 -2.1 3.9 -1.1 3.7 1.5 -0.3 l2.5 -4 -0.4 3.5 c-0.2 1.9 -0.7 4.3 -1.2 5.3 -0.6 1.4 -0.2 1.7 2.4 1.7 2.1 0 3.1 0.5 3.1 1.5 0 0.8 -0.7 1.5 -1.5 1.5 -0.9 0 -1.5 0.9 -1.5 2.5 0 2 0.5 2.5 2.6 2.5 1.4 0 3.3 0.4 4.2 0.9 2.3 1.2 7.2 0.2 7.2 -1.5 0 -1 0.6 -1.1 2.6 -0.4 1.4 0.6 3.6 1 5 1 1.5 0 2.4 0.6 2.4 1.5 0 0.8 0.7 1.5 1.5 1.5 1.3 0 1.3 -0.3 0.3 -1.9 -0.7 -1.1 -2.1 -2.4 -3.3 -3 -1.8 -0.9 -1.7 -1 1 -1.1 2.9 -0.1 2.9 -0.1 1.1 -1.5 -1.9 -1.4 -1.8 -1.5 1.5 -1.5 4.6 0 6.5 1.3 4.4 3 -2.1 1.8 -1.9 3.3 0.5 2.5 2.1 -0.7 2.8 0.9 1 2 -0.6 0.4 -0.8 1 -0.5 1.5 0.8 1.2 5.5 -1 5.5 -2.6 0 -1.2 4.8 -2.9 5.8 -1.9 0.3 0.3 -0.3 1.2 -1.4 2 -1.8 1.4 -1.7 1.5 1.1 0.9 1.7 -0.4 3.2 -1.1 3.3 -1.6 0.2 -0.4 1.2 -0.8 2.3 -0.8 2.4 0 2.5 -2.8 0.2 -4.6 -1.6 -1.2 -1.3 -1.3 2.6 -1.4 4.2 0 4.3 0.1 2.7 1.8 -1.5 1.8 -1.7 5.4 -0.4 6.8 1.1 1 4.8 -0.7 4.8 -2.2 0 -2.4 2.8 -2.7 5.1 -0.5 2.6 2.4 2.8 2.4 4.8 1.2 2.1 -1.3 -0.3 -4.1 -3.5 -4.1 -1.2 0 -2.6 -0.4 -2.9 -1 -0.3 -0.5 0.3 -1 1.4 -1 1.2 0 2.1 -0.4 2.1 -1 0 -0.5 3 -0.8 6.9 -0.7 7.5 0.2 8.8 1.7 1.5 1.7 -2.4 0 -4.4 0.5 -4.4 1 0 0.6 1.1 1 2.5 1 1.4 0 2.5 0.4 2.5 0.9 0 0.5 1.4 0.9 3 0.9 2.2 -0.1 2.9 -0.5 2.6 -1.5 -0.6 -1.6 3.9 -1.9 4.9 -0.3 0.3 0.6 0.1 1 -0.4 1 -0.6 0 -1.1 0.6 -1.1 1.4 0 0.9 1.5 1.5 4.5 1.8 3 0.2 4.5 -0.1 4.5 -0.9 0 -1.5 3.5 -2.6 6 -1.8 1.5 0.5 2 0.2 2 -1.3 0 -1.1 -0.8 -2.3 -1.7 -2.6 -3 -1.2 0 -2.4 7.2 -3 6 -0.4 6.4 -0.4 2.6 0.4 -4.6 1 -7.9 3 -4.9 3 1.3 0 1.6 0.7 1.1 3.5 -0.4 2.3 -0.2 3.5 0.6 3.5 0.6 0 1.1 -0.7 1.1 -1.5 0 -1 1 -1.5 3.3 -1.5 1.8 0 3.7 -0.4 4.3 -0.9 1.6 -1.5 7.3 -2.1 8 -0.9 0.5 0.7 1.1 0.5 2.1 -0.7 1.8 -2.6 1.7 -3.3 -0.9 -3.8 -2 -0.4 -1.9 -0.4 0.4 -0.6 2.2 -0.1 2.9 0.4 3.4 2.4 0.3 1.4 1 2.5 1.5 2.5 0.5 0 0.9 0.8 0.9 1.8 0.1 1.5 0.2 1.5 1.3 0.1 0.7 -0.8 2 -1.8 3 -2.2 0.9 -0.3 1.7 -1.3 1.7 -2.1 0 -1.2 1.3 -1.5 5.5 -1.5 3 0.1 5.5 0.4 5.5 0.8 0 1 6.9 1 7.6 0 0.3 -0.5 2.2 -0.9 4.3 -0.9 2 0 4.2 -0.5 4.8 -1.1 0.6 -0.6 1.6 -0.8 2.3 -0.4 1.8 1.1 -2.3 4.9 -13.9 12.7 -27.8 18.6 -58.6 29.1 -94 32 -19.2 1.5 -40.6 -0.5 -60.9 -5.9 -3.4 -0.9 -6.5 -1.4 -6.8 -1.1 -1.3 1.4 -2.1 11.9 -1.3 17.7 0.8 5.8 5.9 19.3 11 29.3 3 5.8 6.9 16.7 6.1 17.1 -0.4 0.2 -1.5 0.2 -2.4 0z m-53.8 -29.4 c0 -1.7 -0.5 -1.9 -3.5 -1.3 -2.4 0.4 -3.5 0.2 -3.5 -0.5 0 -0.7 -0.5 -0.9 -1.1 -0.5 -1.3 0.8 -0.4 1.8 3.5 3.8 3.4 1.7 4.6 1.3 4.6 -1.5z m-18 -8.5 c0 -1.2 -0.6 -1.5 -2.2 -1 -1.3 0.3 -3 0.6 -3.8 0.7 -0.8 0 -0.4 0.5 1 0.9 3.9 1.3 5 1.1 5 -0.6z m20.6 -11.9 c1.8 -0.3 4 -1.9 5.3 -3.6 2.5 -3.4 2.1 -5.1 -0.6 -2.7 -2 1.7 -9.4 4.5 -13.3 5.1 l-2.5 0.4 2.5 1.1 c1.4 0.6 3.2 0.9 4 0.7 0.8 -0.2 2.9 -0.6 4.6 -1z m-1.5 -4.6 c1.9 -0.5 4.6 -2 6 -3.5 l2.4 -2.6 -3 0.8 c-1.6 0.4 -5.2 1.8 -8 3.1 -2.7 1.2 -6 2.3 -7.3 2.3 -1.3 0 -2.1 0.4 -1.7 0.9 0.6 1 5.3 0.6 11.6 -1z m3.1 -7.7 c1.4 -0.6 2.9 -2 3.2 -3 0.4 -1.1 2 -2.5 3.6 -3.2 3.7 -1.5 4.2 -2.9 3 -9.1 -0.6 -2.8 -0.8 -5.5 -0.5 -5.9 1.4 -2.2 -7.5 -12 -10.9 -12 -1.7 0 -0.3 2 1.8 2.6 3.3 0.8 5.8 3.8 5.7 6.6 -0.1 2.3 -0.8 11.7 -1 12.9 -0.1 0.3 -1.2 1.1 -2.6 1.7 -1.4 0.7 -3 2.3 -3.7 3.7 -0.6 1.4 -1.7 2.5 -2.5 2.5 -0.7 0 -2.1 0.9 -3 2 -1 1.1 -2.5 2 -3.5 2 -0.9 0 -1.9 0.4 -2.2 0.8 -0.6 1 9.2 -0.2 12.6 -1.6z m68.8 -0.8 c0 -2.1 -2.9 -2.3 -5.2 -0.4 l-2.3 2 3.7 -0.3 c2.1 -0.1 3.8 -0.7 3.8 -1.3z m48.3 -2.1 c-0.3 -0.7 0.2 -1.3 1.1 -1.3 0.9 0 1.6 -0.4 1.6 -1 0 -0.5 -1.3 -1 -2.9 -1 -1.9 0 -3.4 0.8 -4.5 2.5 -2.4 3.6 -2 4.3 1.8 3.1 2.1 -0.6 3.2 -1.5 2.9 -2.3z m-25.8 -5 c0.8 -2.9 -1.6 -3.1 -4.2 -0.4 -1 1 -2.5 2.1 -3.3 2.4 -1.2 0.4 -1.2 0.6 0.1 0.6 0.9 0.1 2 0.9 2.3 1.8 0.6 1.5 0.8 1.5 2.5 -0.3 1.1 -1 2.2 -2.9 2.6 -4.1z m6.5 2.4 c0 -1.6 -4.5 -0.2 -4.8 1.5 -0.3 1.4 0 1.5 2.2 0.5 1.4 -0.7 2.6 -1.6 2.6 -2z m-53.7 1.6 c-1.7 -0.6 -1.6 -2.3 0.1 -2.3 0.8 0 1.6 -1 2 -2.3 0.3 -1.3 1.7 -2.9 3.1 -3.5 1.4 -0.6 2.5 -1.6 2.5 -2.2 0 -2.1 -3 -0.9 -6.3 2.5 -1.9 1.9 -4.1 3.5 -5.1 3.5 -0.9 0 -1.6 0.2 -1.6 0.5 0 1.2 3.6 4.3 5 4.3 1 0 1.1 -0.1 0.3 -0.5z m14.7 -0.3 c0 -1.3 -4 -1.3 -6 0 -1.1 0.7 -0.5 1 2.3 1 2 0 3.7 -0.4 3.7 -1z m15 -0.4 c0 -0.7 1 -1.7 2.3 -2.1 1.8 -0.6 1.9 -0.8 0.5 -1.2 -0.9 -0.2 -2.6 0.1 -3.7 0.6 -1.1 0.6 -2.9 1.1 -4 1.1 -2.8 0 -2.7 1.8 0.2 2.3 4.1 0.8 4.7 0.7 4.7 -0.7z m57.5 0.4 c1.8 -0.8 1.7 -0.9 -0.7 -0.9 -1.6 -0.1 -2.8 0.4 -2.8 0.9 0 1.2 0.8 1.2 3.5 0z m-24.5 -2.5 c0.5 0.3 1 0.2 1 -0.4 0 -0.6 -1 -1.3 -2.3 -1.6 -2.8 -0.7 -3.2 -4.5 -0.5 -4.5 1 0 1.8 -0.5 1.8 -1.1 0 -0.6 -1.2 -0.9 -2.7 -0.7 -2.6 0.3 -2.8 0.6 -2.9 5.5 l-0.2 5.2 2.4 -1.5 c1.3 -0.9 2.8 -1.3 3.4 -0.9z m14.8 -2.5 c-0.4 -1.9 -6 -2.5 -8.8 -1 -3.4 1.8 -2.2 2.8 3.5 2.6 4.3 -0.1 5.5 -0.4 5.3 -1.6z m20.2 1 c0 -0.5 -0.9 -1 -2 -1 -1.1 0 -2 0.5 -2 1 0 0.6 0.9 1 2 1 1.1 0 2 -0.4 2 -1z m13 -0.2 c0 -1.2 -5.8 -1 -6.5 0.2 -0.4 0.6 0.8 0.9 2.9 0.8 2 -0.2 3.6 -0.6 3.6 -1z m-85 -0.9 c0 -0.8 -2.6 -1.9 -4.4 -1.9 -0.7 0 -2.1 0.6 -3.2 1.4 -1.7 1.3 -1.5 1.4 2.8 1.3 2.7 -0.1 4.8 -0.5 4.8 -0.8z m20.4 -3.9 c3.3 0 3.4 -1.8 0.1 -2.6 -3 -0.8 -5.5 1 -5.5 4 0.1 2 0.2 2 1.4 0.4 0.7 -1 2.5 -1.8 4 -1.8z m-153.3 0.6 c2.7 0.5 3.8 0.1 5.7 -1.9 4.7 -5 4.6 -12.7 -0.2 -16.6 -2.3 -2 -1.9 -6.2 0.9 -10.1 2.4 -3.3 3.3 -8.4 1.7 -9.4 -0.4 -0.2 -0.6 1 -0.4 2.8 0.3 2.4 -0.3 4 -2.1 6.2 -3.9 4.6 -3.9 9 -0.2 12.5 1.3 1.3 2.5 3.3 2.4 4.4 0 2.5 -4 9.5 -6.1 10.9 -2.9 1.8 -3.2 -0.2 -0.5 -3.4 3.7 -4.4 4.1 -6.4 1.7 -10.9 -2.8 -5.7 -2.6 -11.2 0.6 -15.1 3.8 -4.5 2.3 -4.8 -2 -0.3 -4.5 4.8 -5.2 7 -3.2 11.8 2.7 6.3 2.1 10.9 -1.9 15.4 -3.9 4.3 -4.4 5.7 -1.6 4.2 1 -0.6 3.3 -0.8 5.2 -0.5z m123.9 0.4 c0 -0.5 -0.9 -1 -1.9 -1 -1.1 0 -2.3 0.5 -2.6 1 -0.4 0.6 0.5 1 1.9 1 1.4 0 2.6 -0.4 2.6 -1z m67.4 -2.1 c-0.8 -1.3 -5.2 -1.1 -6 0.2 -0.3 0.6 -0.1 1.5 0.6 1.9 1.5 1 6.2 -0.9 5.4 -2.1z m36.7 2.1 c1.1 0 1.7 -0.4 1.4 -1 -1 -1.6 -4.1 -1.2 -5.6 0.7 -1.2 1.5 -1.2 1.6 0.4 1 1 -0.4 2.8 -0.7 3.8 -0.7z m-12.1 -0.9 c0 -0.5 1.2 -1.4 2.8 -2 2.7 -1 2.7 -1 -0.8 -0.8 -2.4 0.1 -3.6 0.7 -3.8 2 -0.2 0.9 0.1 1.7 0.7 1.7 0.6 0 1.1 -0.4 1.1 -0.9z m-76 -3.3 c0 -1.1 -4.7 -2.1 -6.5 -1.4 -2.9 1.1 -1.5 2.3 2.5 2.2 2.2 0 4 -0.4 4 -0.8z m64.4 -5.7 c-0.1 -0.2 -1.5 -0.1 -2.9 0.3 -1.8 0.5 -2.5 1.3 -2.5 3 l0 2.4 2.9 -2.7 c1.6 -1.4 2.7 -2.8 2.5 -3z m4.6 4.9 c0 -0.5 -1.1 -1 -2.5 -1 -1.4 0 -2.5 0.5 -2.5 1 0 0.6 1.1 1 2.5 1 1.4 0 2.5 -0.4 2.5 -1z m25.2 -1.6 c3.1 0.5 3.2 0.5 1.3 -1 -1.1 -0.8 -3.3 -1.4 -5 -1.2 -2.3 0.2 -3.1 0.9 -3.4 2.8 -0.3 2.5 -0.3 2.5 1.8 0.6 1.5 -1.4 2.9 -1.7 5.3 -1.2z m-203.4 0.6 c1.3 0 2.1 -0.4 1.7 -1 -0.9 -1.5 1.8 -5 3.5 -4.5 1.1 0.4 2 -0.5 2.8 -2.8 1.4 -3.9 1.6 -15.5 0.2 -12.2 -0.4 1.1 -1.8 2.8 -2.9 3.7 -1.2 1 -2.1 2.7 -2.1 3.7 0 1.1 -0.9 2.3 -2 2.6 -1.7 0.5 -2 1.2 -1.5 3.9 0.6 3.2 0.5 3.3 -4.7 5.5 l-5.3 2.1 4 -0.5 c2.2 -0.2 5 -0.5 6.3 -0.5z m93.1 0.4 c1.7 -0.4 2.8 -1 2.5 -1.5 -0.8 -1.4 -3.8 -1.1 -6 0.6 -2.1 1.6 -1.2 1.8 3.5 0.9z m-9.1 -2.4 c-1.1 -1.7 -3.8 -2.8 -3.8 -1.6 0 0.2 -0.3 1.1 -0.6 2 -0.5 1.3 0.1 1.6 2.5 1.6 2.9 0 3 -0.2 1.9 -2z m81 -1.9 c2.6 -2.2 2.8 -3.1 0.8 -3.1 -1.6 0 -4.6 2.6 -4.6 4.1 0 1.4 1.3 1 3.8 -1z m-13.5 -1.5 c0.3 -0.8 1.6 -1.6 2.9 -1.8 2.1 -0.4 2.2 -0.5 0.4 -1.3 -2.2 -1 -5 0.5 -5.4 2.9 -0.4 2 1.4 2.2 2.1 0.2z m-23.5 -2.6 c0.7 0 1.2 -0.4 1.2 -1 0 -1.6 -4.7 -1.1 -5.4 0.6 -1.1 2.9 -0.6 3.7 1.2 2.1 1 -1 2.4 -1.7 3 -1.7z m85.6 -0.8 c-1.8 -0.4 -4.6 1.7 -3.8 2.9 0.3 0.5 1.6 0.1 2.9 -0.8 1.7 -1.3 1.9 -1.9 0.9 -2.1z m9.4 0.7 c-1.5 -1 -3.8 0 -3.8 1.6 0 1 0.5 1.1 2.4 0.2 1.5 -0.7 2 -1.4 1.4 -1.8z m-124.1 0.7 c-0.6 -1.7 -6.7 -2 -6.7 -0.4 0 0.9 1.2 1.4 3.5 1.4 2 0 3.4 -0.5 3.2 -1z m42.7 -0.1 c1.9 -1.4 1.9 -1.5 -0.6 -1.5 -3.3 0 -5.8 0.9 -5.8 2.1 0 1.4 4.3 1 6.4 -0.6z m37.6 -0.5 c1.2 -0.8 1.1 -1 -0.7 -1 -1.3 0 -2.3 0.5 -2.3 1 0 1.3 1.1 1.3 3 0z m15.1 0 c3.2 0 3.9 -1.5 1 -2.5 -2.3 -0.7 -7.1 1 -7.1 2.6 0 0.6 0.7 0.8 1.6 0.5 0.9 -0.3 2.9 -0.6 4.5 -0.6z m9.4 -4 c-0.3 -0.5 -1.5 -1 -2.5 -1 -1 0 -2.2 0.5 -2.5 1 -0.4 0.6 0.7 1 2.5 1 1.8 0 2.9 -0.4 2.5 -1z m-130.4 -5.5 c-0.6 -3.5 -0.9 -4.1 -1 -2 -0.1 3 0.9 7.8 1.5 7.3 0.2 -0.2 -0.1 -2.6 -0.5 -5.3z m148.5 -0.2 c-0.8 -0.8 -3.6 1 -3.6 2.5 0 1.3 0.3 1.2 2 -0.3 1.1 -1 1.8 -2 1.6 -2.2z m9.9 2.7 c0.4 -0.6 -0.5 -1 -1.9 -1 -1.4 0 -2.6 0.5 -2.6 1 0 0.6 0.9 1 1.9 1 1.1 0 2.3 -0.4 2.6 -1z m-231.3 -9.4 c1 -1.9 0.8 -1.8 -1.6 0.3 -1.4 1.4 -2.6 2.9 -2.6 3.4 0 1.3 2.9 -1.2 4.2 -3.7z m-43.2 -7.1 c0 -1.5 0.9 -3.1 2.5 -4.1 3 -2 4.3 -7.5 2.5 -11.2 l-1.3 -2.7 -1.2 3 c-0.8 1.7 -2.9 3.9 -4.9 4.9 -3.5 1.8 -4.1 3 -3.8 6.9 0.2 1.8 3.9 5.6 5.5 5.7 0.4 0 0.7 -1.1 0.7 -2.5z m16.7 -5.2 c0.1 -1 0.5 -3.9 0.8 -6.4 0.6 -3.6 0.3 -5.4 -1.4 -8.7 -2.6 -5.1 -3.6 -5.5 -1.6 -0.8 1.2 2.8 1.2 4.5 0.4 9 -1.1 5.4 -0.8 8.6 0.9 8.6 0.4 0 0.8 -0.8 0.9 -1.7z m47.3 -5.3 c0.8 -0.5 1.2 -1.2 0.9 -1.5 -0.8 -0.8 -3.9 0.5 -3.9 1.6 0 1.1 1.1 1.1 3 -0.1z m-3.2 -3.6 c3.2 -1.3 3.2 -1.4 1.7 -3.7 -1.5 -2.3 -1.7 -2.4 -6.7 -1.1 -7.1 1.9 -8.7 3.6 -2.5 2.8 3.2 -0.5 4.7 -0.3 4.7 0.5 0 0.6 -0.6 1.1 -1.4 1.1 -0.7 0 -2 0.7 -2.7 1.6 -1.2 1.5 -1.1 1.6 1.1 0.9 1.4 -0.4 4 -1.3 5.8 -2.1z m-5.8 -6.4 c2.9 -0.7 3 -2 0.3 -3.5 -1 -0.5 -2.2 -1.6 -2.6 -2.2 -0.4 -0.7 -1.2 -1.3 -1.7 -1.3 -0.6 0 -1.9 -0.9 -3.1 -2.1 -1.2 -1.2 -2.7 -1.8 -3.6 -1.4 -0.9 0.3 -1.9 0.1 -2.3 -0.5 -0.4 -0.7 -2.7 -0.6 -7.4 0.4 -8 1.7 -10 3.1 -3.3 2.4 5.2 -0.6 7.5 0.8 3 1.8 -1.5 0.3 -3.5 0.8 -4.3 1.2 -3.2 1.2 3.5 1.4 9.2 0.2 7.2 -1.6 8.8 -0.7 1.9 1 -2.8 0.7 -5.4 1.6 -5.7 2.1 -0.7 1.2 0.4 1.1 6.4 -0.2 3.3 -0.8 5.8 -0.9 7.8 -0.2 2.9 1 2.8 1 -1.8 1.7 -2.7 0.4 -4.8 1.1 -4.8 1.6 0 0.9 7 0.3 12 -1z"/>
  <path d="M198.5 490 c-0.4 -0.6 -0.2 -1.7 0.4 -2.3 1.5 -1.5 2.5 -0.2 1.3 1.9 -0.7 1.2 -1.1 1.3 -1.7 0.4z"/>
  <path d="M194 488.6 c0 -2 2.3 -5.7 4.1 -6.7 1.9 -1 2.1 -0.9 1.6 0.4 -0.4 1.2 -0.2 1.4 1 1 1.1 -0.4 1.4 -0.2 1.1 0.8 -0.3 0.8 -1.3 1.4 -2.2 1.4 -1 0 -2.2 0.8 -2.7 1.8 -0.9 1.5 -2.9 2.4 -2.9 1.3z"/>
  <path d="M194.6 480.5 c0.9 -1.4 2 -2.5 2.5 -2.5 0.5 0 0.9 -0.4 0.9 -1 0 -0.5 -0.7 -0.6 -1.7 -0.3 -1.1 0.4 -1.4 0.3 -0.9 -0.5 0.4 -0.6 0.3 -2 -0.3 -3 -0.6 -1.1 -0.6 -2.4 0 -3.3 0.7 -1.1 0.9 -0.9 0.9 0.9 0 1.3 0.9 3.2 2 4.4 2.3 2.5 2.7 5.3 0.7 4.5 -0.7 -0.3 -1.9 0.4 -2.5 1.4 -0.7 1 -1.7 1.9 -2.2 1.9 -0.6 0 -0.3 -1.1 0.6 -2.5z"/>
  <path d="M187.1 454.6 c-1.1 -1.3 -1.1 -2 -0.3 -2.8 0.8 -0.8 1.3 -0.7 1.8 0.5 1 2.7 0 4.1 -1.5 2.3z"/>
  <path d="M355.5 391 c0.3 -0.5 0.1 -1 -0.5 -1 -0.6 0 -0.9 -0.4 -0.6 -0.9 0.9 -1.4 -4.7 -0.8 -6.2 0.6 -1.6 1.5 -3.2 1.7 -3.2 0.4 0 -1.3 6.4 -4.4 6.8 -3.3 0.1 0.5 2.2 0.8 4.6 0.6 2.8 -0.3 4.8 0.1 5.5 0.9 0.8 1.1 0.4 1.3 -2.2 0.9 -2.9 -0.5 -3.1 -0.3 -1.8 1.2 1.2 1.4 1.1 1.6 -0.8 1.6 -1.2 0 -1.9 -0.4 -1.6 -1z"/>
  <path d="M171.2 390.1 c-3.1 -0.8 -2.8 -2.4 0.5 -3.3 2.7 -0.7 4.6 0.6 4 2.6 -0.4 1.3 -1.8 1.5 -4.5 0.7z"/>
  <path d="M342.5 386 c0.3 -0.5 2.1 -1 3.8 -1 2.4 0 2.8 0.3 1.7 1 -2 1.3 -6.3 1.3 -5.5 0z"/>
  <path d="M165.9 363.6 c-0.6 -0.6 1.5 -25.3 2.2 -26 1.1 -1.1 2.7 23.8 1.6 25.2 -0.9 1.2 -3 1.6 -3.8 0.8z"/>
  <path d="M209.3 360.5 c-0.9 -2.5 0.4 -2.9 1.7 -0.6 0.7 1.5 0.7 2.1 0 2.1 -0.6 0 -1.3 -0.7 -1.7 -1.5z"/>
  <path d="M157.1 356.6 c-0.6 -2.5 -1 -6.4 -1 -8.8 l0.1 -4.3 0.8 4.8 c0.5 2.7 1.3 6.2 1.9 7.9 1.3 3.8 1.4 4.8 0.2 4.8 -0.5 0 -1.4 -2 -2 -4.4z"/>
  <path d="M159.9 352.5 c-1.1 -5.1 -1 -6.2 1.1 -13.1 1.3 -4.1 2.8 -7.8 3.3 -8.1 0.5 -0.3 0.7 0.3 0.4 1.3 -0.3 1.1 -0.9 7.2 -1.2 13.7 -0.4 6.4 -1.1 11.7 -1.5 11.7 -0.5 0 -1.4 -2.5 -2.1 -5.5z"/>
  <path d="M173.6 350.3 c-0.4 -3.2 -0.9 -8 -1.2 -10.8 -0.8 -6.9 0.9 -4.8 3.4 4.1 1.7 6.2 1.8 7.4 0.5 9.7 -0.7 1.5 -1.5 2.7 -1.7 2.7 -0.2 0 -0.7 -2.6 -1 -5.7z"/>
  <path d="M204 354 c2 -1.3 5.3 -1.3 4.5 0 -0.3 0.6 -1.8 1 -3.3 1 -2.1 0 -2.4 -0.2 -1.2 -1z"/>
  <path d="M33.8 347.8 c-1.6 -0.5 -2.8 -1.7 -2.8 -2.5 0 -1.3 0.3 -1.3 1.5 -0.3 0.9 0.7 3.9 1.9 6.8 2.6 l5.2 1.2 -4 0 c-2.2 0 -5.2 -0.4 -6.7 -1z"/>
  <path d="M103.5 347.1 c3.4 -1.5 9.1 -2.4 8 -1.3 -0.5 0.5 -3 1.3 -5.5 1.6 -2.9 0.4 -3.8 0.3 -2.5 -0.3z"/>
  <path d="M50.8 343.1 c2.1 -3 2.8 -3.5 3 -2 0.5 2.7 -1.6 5.9 -3.8 5.9 -1.8 0 -1.8 -0.3 0.8 -3.9z"/>
  <path d="M36.8 344.8 c-1.6 -0.5 -2.8 -1.5 -2.8 -2.2 0 -1.8 6 -21.8 7.1 -23.6 1 -1.6 1.1 19.6 0.2 24.4 -0.6 2.9 -0.6 2.9 -4.5 1.4z"/>
  <path d="M96 344.7 c0 -1.8 4.6 -5.7 6.7 -5.7 1 0 0.9 0.6 -0.6 2.1 -1.1 1.2 -2.5 1.8 -3.1 1.4 -0.7 -0.4 -1 -0.1 -0.8 1 0.2 1 -0.3 2 -0.9 2.2 -0.7 0.3 -1.3 -0.2 -1.3 -1z"/>
  <path d="M88.5 344 c-0.7 -1.2 0.2 -3 1.6 -3 0.5 0 0.9 0.9 0.9 2 0 2.1 -1.5 2.7 -2.5 1z"/>
  <path d="M103.4 343.6 c-0.6 -1.7 0.2 -3.6 1.7 -3.6 1.2 0 1.2 3.7 -0.1 4.5 -0.6 0.3 -1.3 -0.1 -1.6 -0.9z"/>
  <path d="M46.6 340.3 c-0.9 -5.8 -0.7 -22 0.3 -20.3 1.6 2.8 4 20.4 3 22.3 -1.5 2.7 -2.6 2 -3.3 -2z"/>
  <path d="M25 339.5 c-0.7 -0.8 -1.4 -3.6 -1.6 -6.3 -0.2 -2.6 -0.1 -4 0.2 -3.2 0.4 0.8 1.7 3.6 3 6.3 1.7 3.4 2 4.7 1 4.7 -0.8 0 -1.9 -0.7 -2.6 -1.5z"/>
  <path d="M86 340.2 c0 -1 10.9 -3.6 11.7 -2.8 0.6 0.6 0.4 0.7 -6.3 2.5 -5 1.3 -5.4 1.3 -5.4 0.3z"/>
  <path d="M104.8 338.7 c-0.7 -0.7 -3 -2.3 -5.2 -3.5 l-3.9 -2.3 -1.9 2.1 c-1 1.1 -2.6 2 -3.5 2 -1.8 0 -1.9 0.2 5.7 -9.7 2.5 -3.2 5.3 -7 6.2 -8.3 l1.7 -2.5 2 2.6 c3 3.8 7.2 2.9 11.9 -2.7 3.8 -4.6 6.1 -5.9 4.2 -2.4 -0.7 1.4 -0.7 2 0 2 0.5 0 1 0.5 1 1.1 0 0.6 -0.7 0.9 -1.5 0.5 -0.9 -0.3 -1.5 0 -1.5 0.8 0 0.7 -0.7 1.9 -1.6 2.7 -1 0.8 -1.3 2.1 -0.9 3.6 0.4 1.8 0 2.6 -2 3.5 -1.4 0.6 -2.6 1.6 -2.6 2.2 -0.1 0.6 -0.2 1.6 -0.3 2.1 0 0.6 -1.5 2.5 -3.3 4.3 -2.6 2.7 -3.4 3 -4.5 1.9z"/>
  <path d="M179 338.8 c0 -0.7 -0.3 -2.4 -0.6 -3.8 -0.6 -2.4 -0.6 -2.5 0.9 -0.5 1.8 2.2 2.2 5.5 0.7 5.5 -0.5 0 -1 -0.6 -1 -1.2z"/>
  <path d="M110 337.5 c0 -0.9 0.5 -1.5 1.1 -1.3 0.6 0.2 1.1 0.8 1.1 1.3 0 0.5 -0.5 1.1 -1.1 1.3 -0.6 0.2 -1.1 -0.4 -1.1 -1.3z"/>
  <path d="M28.1 336.6 c-0.7 -0.8 -1.4 -3 -1.8 -4.8 -0.4 -2.9 0.2 -4.6 4.1 -10.6 2.5 -4 5.3 -7.2 6.1 -7.2 0.8 0 1.5 0.3 1.5 0.7 0 1.6 -7.3 22.4 -8 22.8 -0.4 0.3 -1.3 -0.2 -1.9 -0.9z"/>
  <path d="M56 335.4 c0 -0.3 1.1 -2.2 2.5 -4.2 2.2 -3.2 2.5 -3.4 2.5 -1.4 0 3.1 -1.7 6.2 -3.5 6.2 -0.8 0 -1.5 -0.2 -1.5 -0.6z"/>
  <path d="M155 324.4 c0 -5.4 0.4 -10.5 0.9 -11.3 0.5 -0.8 0.7 3 0.4 9.5 -0.3 6 -0.7 11.1 -0.9 11.3 -0.2 0.2 -0.4 -4 -0.4 -9.5z"/>
  <path d="M209.3 331.1 c-0.6 -1.8 -0.7 -3.1 -0.2 -3.1 1.2 0 2.2 2.4 1.7 4.5 -0.2 1.2 -0.7 0.7 -1.5 -1.4z"/>
  <path d="M54.8 332.4 c-1.1 -1.8 -4.9 -16.5 -4.6 -17.6 0.4 -1 7.8 12.4 7.8 14 0 1.5 -2.7 4.5 -3.2 3.6z"/>
  <path d="M158.2 326.6 c0.2 -3.3 0.9 -5.3 2 -6 2.6 -1.6 2.9 -0.4 1 4.7 -2.5 6.5 -3.4 6.9 -3 1.3z"/>
  <path d="M182 329.1 c0 -1.1 -0.4 -2.3 -1 -2.6 -1.5 -0.9 -1.2 -2.5 0.5 -2.5 0.8 0 1.5 0.6 1.5 1.3 0 0.6 0.3 2.2 0.6 3.5 0.4 1.3 0.2 2.2 -0.5 2.2 -0.6 0 -1.1 -0.9 -1.1 -1.9z"/>
  <path d="M20.7 324.3 c-1 -0.9 -0.9 -29.3 0.1 -29.3 0.4 0 0.8 6.8 0.8 15 0.1 8.3 0.1 15 0 15 -0.2 0 -0.6 -0.3 -0.9 -0.7z"/>
  <path d="M23.7 321.3 c-0.4 -0.3 -0.7 -2.3 -0.7 -4.3 0 -3.2 0.5 -3.9 4 -5.9 3.8 -2.1 6 -2.1 6 0 0 1.1 -7.2 10.8 -8.1 10.8 -0.3 0.1 -0.9 -0.2 -1.2 -0.6z"/>
  <path d="M56.7 316.7 c-2.1 -3 -3.7 -5.6 -3.7 -6 0 -0.4 2 0.8 4.5 2.5 3.5 2.5 4.5 3.8 4.5 6 0 1.5 -0.4 2.8 -0.8 2.8 -0.5 0 -2.5 -2.4 -4.5 -5.3z"/>
  <path d="M159.4 315.1 c2.1 -2.3 2.6 -2.6 2.6 -1.1 0 0.5 -1 1.5 -2.2 2.1 -2.3 1.2 -2.3 1.2 -0.4 -1z"/>
  <path d="M23 302.5 c0 -3.7 0.3 -4.5 1.9 -4.5 2.7 0 3.5 6.7 1 8.1 -2.7 1.4 -2.9 1.2 -2.9 -3.6z"/>
  <path d="M31 300.5 c0 -1.5 2.6 -3.2 3.6 -2.3 0.2 0.3 0.2 1.3 -0.2 2.2 -0.8 2 -3.4 2.1 -3.4 0.1z"/>
  <path d="M19 291.8 c0 -5.9 1.3 -9.8 3.1 -9.8 1.4 0 2 1 2.5 4 0.6 3.6 0.8 3.9 3.4 3.4 1.5 -0.4 3.1 -0.1 3.4 0.5 0.5 0.7 -0.9 1.1 -4.3 1.1 -3.9 0 -5.1 0.4 -5.1 1.5 0 0.8 -0.7 1.5 -1.5 1.5 -0.9 0 -1.5 -0.9 -1.5 -2.2z"/>
  <path d="M34.6 280.6 c-2 -4.1 -4 -7.7 -4.6 -8.1 -0.7 -0.4 -0.6 -1.3 0.2 -2.8 1 -2 1.4 -1.6 4.6 5.3 4.1 8.9 5.4 13 4.2 13 -0.5 0 -2.5 -3.3 -4.4 -7.4z"/>
  <path d="M41.9 270 c-0.3 -9.2 0 -16.5 0.6 -18 1.3 -3.3 1.9 18.9 0.7 27.5 -0.8 5.3 -0.9 4.1 -1.3 -9.5z"/>
  <path d="M55 284.4 c0.1 -1.4 3.3 -5 6.3 -6.9 2.4 -1.5 2.7 -1.6 2.7 -0.2 0 0.9 -1 2.2 -2.2 2.8 -1.3 0.6 -3.3 2.1 -4.5 3.2 -1.3 1.1 -2.3 1.6 -2.3 1.1z"/>
  <path d="M52 281.6 c0 -0.5 1.6 -3.1 3.6 -6 2 -2.8 2.4 -3.7 1 -2.1 -3.1 3.6 -3.4 2.1 -0.9 -4.8 0.9 -2.6 2.2 -4.6 2.8 -4.4 1.3 0.5 1.5 7.6 0.2 10.2 -0.9 1.8 -0.8 1.9 0.6 0.6 1.1 -0.8 1.7 -0.9 1.7 -0.3 0 0.6 -1 1.7 -2.2 2.3 -1.3 0.6 -3.3 2.1 -4.5 3.2 -1.3 1.1 -2.3 1.7 -2.3 1.3z"/>
  <path d="M48.5 266 c0.4 -6.3 1 -12.1 1.4 -12.7 0.9 -1.7 5.1 1.1 5.1 3.3 0 1.7 -5.9 19.6 -6.7 20.4 -0.3 0.3 -0.2 -4.7 0.2 -11z"/>
  <path d="M26 272.2 c0 -4 1.6 -7.2 3.5 -7.2 2 0 1.9 0.3 -1 5.8 l-2.5 4.7 0 -3.3z"/>
  <path d="M38 252.7 c0 -0.3 0.4 -1.7 1 -3.1 0.8 -2.2 1.6 -2.6 4.7 -2.6 l3.8 0 -3 1.6 c-1.6 0.8 -3.8 2.3 -4.7 3.1 -1 0.9 -1.8 1.3 -1.8 1z"/>
 </g>
 <g fill="#838383">
  <path d="M34.5 372.9 c-2.3 -4.2 -2.5 -5.5 -1.6 -7.5 1.3 -3 2.3 -3 3.6 -0.2 1.3 2.9 3.9 3.4 7.1 1.3 1.9 -1.2 2.4 -2.3 2.2 -4.3 -0.3 -2.4 -0.7 -2.7 -4.1 -2.7 -3.6 0 -4.7 -0.8 -2.7 -2 1.9 -1.2 11.6 -13.9 17.3 -22.7 3.1 -4.9 5.9 -8.8 6.2 -8.8 0.3 0 1.4 0.9 2.5 2 1.1 1.1 2.7 2 3.5 2 2.1 0 7.8 -3 7.1 -3.7 -0.3 -0.3 -1.2 0 -2 0.6 -0.8 0.7 -2.1 0.9 -2.7 0.5 -0.8 -0.5 -0.1 -1.6 2.2 -3.6 2 -1.7 2.5 -2.5 1.2 -1.9 -2.7 1.4 -4.3 1.4 -4.3 0.1 0 -0.5 0.6 -1 1.4 -1 0.7 0 1.9 -0.7 2.6 -1.6 1.2 -1.3 1 -1.4 -1.3 -0.3 -1.5 0.7 -3 0.9 -3.5 0.4 -0.4 -0.4 -0.1 -1 0.6 -1.3 0.8 -0.2 2.8 -1.7 4.6 -3.2 5.3 -4.7 23.6 -11.3 23.6 -8.6 0 2 -23.2 31.7 -37.9 48.6 -7.8 9 -21.3 23 -22.2 23 -0.3 0 -1.8 -2.3 -3.4 -5.1z"/>
  <path d="M161.7 371.8 c-1.7 -1.7 -3.2 -5.4 -4.8 -11.9 -2 -8 -2.3 -11.9 -2.3 -26.4 0 -9.3 0.4 -18.7 1 -20.8 0.6 -2.7 0.9 1.6 0.9 16 0 17.9 0.2 20.5 2.3 27.3 2.7 8.5 5.4 12 9.2 12 3.7 0 8.5 -5.9 13.2 -16.1 1.5 -3.4 5.1 -5.9 6.5 -4.6 1 1.1 -2.9 10.6 -6.6 16.4 -5 7.7 -7.2 9.4 -12.5 10 -3.8 0.5 -4.8 0.2 -6.9 -1.9z"/>
  <path d="M41 362.5 c0 -0.8 0.7 -1.5 1.5 -1.5 0.8 0 1.5 0.4 1.5 0.9 0 0.5 -0.7 1.1 -1.5 1.5 -0.9 0.3 -1.5 0 -1.5 -0.9z"/>
  <path d="M29 358.9 c-3.3 -1.3 -8 -5.9 -8 -7.8 0 -1 0.8 -0.7 2.8 1.2 1.5 1.4 4.6 3.4 6.9 4.5 5.8 2.5 4.2 4.4 -1.7 2.1z"/>
  <path d="M31 350.9 c-1.9 -1.1 -4.7 -3.7 -6.3 -5.7 -5.7 -7.4 -9.3 -26.3 -8.5 -44.2 l0.5 -10.6 -3.3 0.4 c-3.8 0.5 -4.8 -1.4 -1.1 -2.1 l2.2 -0.4 -2.2 -0.2 c-1.3 0 -2.3 -0.6 -2.3 -1.2 0 -0.7 1.1 -0.8 3 -0.4 1.9 0.4 3 0.3 3 -0.4 0 -0.6 -0.9 -1.1 -1.9 -1.1 -3.2 0 -3.5 -2 -0.4 -2.1 2.1 -0.1 2.3 -0.3 0.8 -0.6 -1.1 -0.3 -2.4 -0.9 -3 -1.4 -1.3 -1.2 2.1 -1.2 4.5 0.1 1.6 0.8 2 0.5 3 -2.8 1.8 -5.6 10.8 -22.6 14.2 -26.7 4.1 -4.9 12.3 -9.5 17.2 -9.5 3.4 0 4.6 0.7 8.5 4.8 5 5.2 8.3 11.1 10.3 18.5 1.1 4.1 1 4.9 -0.2 5.7 -2.8 1.8 -3.8 1 -4.4 -3.2 -0.4 -2.4 -2.1 -7 -3.9 -10.2 -3.6 -6.5 -8 -9.6 -13.5 -9.6 -6.7 0 -15.9 13.2 -22 31.5 -6.6 19.6 -5 47.3 3.3 60.5 3.2 5.1 5.9 6.9 11.7 7.6 4.7 0.6 4.7 0.7 3.1 3 -2 3.1 -7.4 3.2 -12.3 0.3z"/>
  <path d="M265 348.2 c0 -0.4 2.6 -1.2 5.8 -1.9 3.1 -0.6 6.6 -1.5 7.7 -1.9 1.9 -0.7 1.9 -0.7 0.3 0.9 -0.9 0.9 -2.8 1.7 -4.2 1.7 -1.4 0 -2.6 0.5 -2.6 1 0 0.6 -1.6 1 -3.5 1 -1.9 0 -3.5 -0.3 -3.5 -0.8z"/>
  <path d="M256 345.4 c0 -0.4 0.8 -1.3 1.8 -2 1.6 -1.3 1.6 -1.3 0 -1.4 -2.4 0 -2.3 -2.2 0.3 -4.4 1.7 -1.4 4.3 -1.9 11.9 -2.2 l9.8 -0.4 0 2.4 c0 2.1 -0.7 2.6 -4.7 3.5 l-4.6 1 4.9 -0.4 c6 -0.5 5.3 0.3 -2.2 2.7 -5.5 1.7 -17.2 2.5 -17.2 1.2z"/>
  <path d="M229.8 333.3 c1.2 -0.2 3 -0.2 4 0 0.9 0.3 -0.1 0.5 -2.3 0.4 -2.2 0 -3 -0.2 -1.7 -0.4z"/>
  <path d="M219.3 332.3 c1.5 -0.2 3.7 -0.2 5 0 1.2 0.2 0 0.4 -2.8 0.4 -2.7 0 -3.8 -0.2 -2.2 -0.4z"/>
  <path d="M228.8 331.3 c2 -0.4 2.1 -0.6 0.6 -2 -1.2 -1.3 -1.9 -1.4 -3.8 -0.4 -1.2 0.7 -3.8 1.1 -5.7 0.8 l-3.4 -0.4 3.8 -0.1 c2 -0.1 3.7 -0.6 3.7 -1.2 0 -0.5 0.9 -1 2 -1 1.1 0 2 -0.7 2 -1.5 0 -0.9 0.9 -1.5 2.3 -1.4 2.1 0 2.1 0.1 0.2 1 -1.6 0.7 -1.3 0.8 1.3 0.4 3.6 -0.5 4.5 1.1 1 1.8 l-2.3 0.4 2.3 0.2 c1.2 0 2.2 0.4 2.2 0.9 0 1 -5 3.2 -6.9 3.1 -0.9 -0.1 -0.6 -0.4 0.7 -0.6z"/>
  <path d="M214.5 325 c2.8 -0.6 2.6 -0.8 -2.5 -1.6 -5.2 -0.8 -5.3 -0.9 -2 -1.4 2.6 -0.4 3.5 -1 3.5 -2.5 0 -1.1 -0.8 -2.3 -2 -2.7 -1.3 -0.4 -0.3 -0.6 2.7 -0.7 2.6 -0.1 5 0.4 5.4 1.1 0.5 0.8 0 0.9 -1.7 0.5 -2.3 -0.6 -2.3 -0.5 -0.5 0.8 2 1.5 2 1.5 0 1.5 -1.6 0 -1.7 0.2 -0.4 1 0.8 0.5 4.1 1 7.3 1 4.4 0 5.7 -0.3 5.7 -1.5 0 -0.8 0.9 -1.5 1.9 -1.5 2.8 0 3.5 -1.7 1.1 -2.5 -3 -0.9 -1.4 -2.5 2.6 -2.5 3.5 0 4.3 1.8 1.4 3.2 -1 0.4 -0.6 0.7 1.3 0.7 3.9 0.1 3.3 2.1 -0.7 2.1 -2.1 0 -3.6 0.6 -4 1.5 -0.3 0.9 -1.8 1.5 -3.9 1.5 -1.8 0 -4.2 0.7 -5.3 1.5 -1.2 0.9 -4 1.4 -7.4 1.3 -4.5 0 -4.9 -0.2 -2.5 -0.8z"/>
  <path d="M209 319 c0 -0.5 0.7 -1 1.5 -1 0.8 0 1.5 0.5 1.5 1 0 0.6 -0.7 1 -1.5 1 -0.8 0 -1.5 -0.4 -1.5 -1z"/>
  <path d="M174 318.3 c0 -0.4 0.9 -1.4 2.1 -2.1 1.8 -1.2 2 -1.1 1.7 0.5 -0.3 1.7 -3.8 3.2 -3.8 1.6z"/>
  <path d="M69.6 316.2 c-0.2 -0.4 -0.1 -1.4 0.4 -2.2 0.4 -0.7 0.6 -1.9 0.3 -2.7 -0.3 -0.9 0 -1.1 1 -0.7 2.4 0.9 2.8 4.3 0.7 5.4 -1 0.6 -2.1 0.6 -2.4 0.2z"/>
  <path d="M221 316.2 c0 -0.5 -2.1 -0.9 -4.7 -1.1 -5.9 -0.3 -6.4 -0.7 -2.2 -2 1.9 -0.5 2.6 -1 1.7 -1 -1 -0.1 -1.8 -0.7 -1.8 -1.3 0 -0.8 1.7 -1.4 4.5 -1.5 l4.5 -0.2 0 3.9 c0 2.2 -0.4 4 -1 4 -0.5 0 -1 -0.4 -1 -0.8z"/>
  <path d="M170.9 314.3 c0 -1.1 -0.3 -1.3 -0.6 -0.5 -1 2.6 -3 1.2 -2.5 -1.9 0.3 -2.1 -0.1 -3.4 -1.4 -4.4 -1.5 -1.1 -1.7 -1.8 -0.8 -3.2 1.3 -2.2 3.5 -2.7 8 -1.9 3.3 0.7 3.3 0.7 1.4 2.6 -1.1 1.1 -2 2.8 -2 3.8 0 1.3 0.3 1.1 1.3 -0.7 0.6 -1.4 1.9 -2.7 2.7 -2.9 1.2 -0.4 1.1 -0.1 -0.2 1.5 -1 1.1 -1.8 3 -1.8 4.3 0 1.8 -0.3 2 -1.4 1.1 -1.1 -0.9 -1.2 -0.6 -0.8 1.4 0.2 1.5 0 2.5 -0.7 2.5 -0.6 0 -1.1 -0.8 -1.2 -1.7z"/>
  <path d="M109 313.9 c0 -0.6 1.5 -3.8 3.4 -7.2 3 -5.4 9.3 -19.8 11 -25 0.5 -1.5 0.8 -1.6 2.6 -0.5 1.7 1.1 2.2 1 3 -0.2 1.4 -2.3 1.2 -5.6 -0.5 -7 -0.9 -0.7 -1.3 -1.5 -1 -1.8 1 -1.1 3.4 3.3 3.5 6.3 0 4.2 -1.2 5.7 -4.1 5 -2.2 -0.5 -2.7 0 -5.4 6.7 -1.6 4 -2.9 7.9 -2.9 8.6 0.1 0.6 -0.1 1.2 -0.5 1.2 -0.4 0 -2.3 3.4 -4.2 7.5 -3.1 6.8 -4.9 9.2 -4.9 6.4z"/>
  <path d="M156.8 305.5 c0.2 -1.4 0.6 -2.5 0.8 -2.5 0.2 0 0.4 1.1 0.4 2.5 0 1.4 -0.4 2.5 -0.9 2.5 -0.4 0 -0.6 -1.1 -0.3 -2.5z"/>
  <path d="M179.6 302.9 c1.1 -0.6 2.5 -2.9 3.3 -5.5 1.5 -5.1 3.1 -5.8 3.1 -1.3 0 2.1 0.4 2.8 1.3 2.3 0.7 -0.5 0.7 -0.1 -0.2 1 -1.7 2 -6.4 4.6 -8.3 4.5 -0.7 0 -0.4 -0.5 0.8 -1z"/>
  <path d="M71.5 299.8 c0.6 -1.9 0.5 -2.1 -0.6 -1 -2 1.9 -3.1 1.4 -1.9 -0.8 1.1 -2 -0.3 -3 -1.5 -1 -1.2 2 -2.1 0.9 -1.7 -2 0.5 -3.3 -1.3 -4.2 -2.3 -1.1 -0.8 2.5 -3.8 3.5 -6.5 2.1 -2.3 -1.2 -2.6 -3.9 -0.7 -5.9 1 -1.1 1 -1.4 0 -1.8 -0.7 -0.3 -1.3 -1.4 -1.3 -2.6 0.1 -4.5 7.8 -10.8 12.2 -10 1.4 0.3 2.9 0 3.2 -0.6 0.4 -0.5 1.4 -0.7 2.3 -0.4 1.3 0.5 1.5 0.2 1 -1.1 -0.6 -1.4 -0.2 -1.7 2.5 -1.3 1.8 0.2 7.5 -0.8 12.8 -2.1 5.2 -1.3 11.5 -2.8 14 -3.4 2.5 -0.5 10 -2.5 16.7 -4.4 6.8 -1.9 12.9 -3.4 13.6 -3.4 0.7 0 2.8 -1.1 4.7 -2.5 4.3 -3.1 8.4 -3.2 10.4 -0.3 2.4 3.4 2.1 6.8 -0.6 6.9 -1.3 0.1 -2.6 0.1 -3 0 -0.5 0 -0.8 0.5 -0.8 1.3 0 0.9 -0.7 1.2 -2 0.9 -1.2 -0.3 -2 0 -2 0.6 0 0.7 -0.4 1 -0.9 0.7 -1.4 -0.9 -4.1 0.4 -4.1 1.9 0 0.7 -0.6 1.5 -1.2 1.8 -0.8 0.2 0 1.1 1.7 2 3 1.6 3 1.6 0.5 1.7 -1.4 0 -3.8 -0.7 -5.3 -1.5 -7.1 -3.7 -13.6 -2.5 -15.3 2.7 -0.8 2.7 -4.3 6 -5.5 5.2 -0.5 -0.3 -0.9 0 -0.9 0.6 0 0.6 -0.4 0.8 -1 0.5 -0.5 -0.3 -1.1 0.4 -1.1 1.7 -0.1 1.7 -0.3 1.8 -0.6 0.6 -0.2 -1 -0.9 -1.8 -1.4 -1.8 -0.6 0 -0.7 0.5 -0.3 1.2 0.5 0.7 0.2 0.9 -0.9 0.5 -1 -0.4 -1.7 0 -2 1.1 -0.4 1.5 -0.5 1.5 -0.6 -0.1 -0.1 -1.6 -0.3 -1.7 -1.6 -0.3 -0.8 0.8 -1.5 2.1 -1.6 2.8 0 0.7 -0.4 0.4 -0.9 -0.7 -0.7 -1.7 -0.9 -1.4 -1 1.5 -0.1 3.2 -0.2 3.3 -1 1.2 -0.8 -1.9 -1.3 -2.1 -3 -1.2 -1.1 0.6 -2.1 0.7 -2.1 0.3 -0.1 -0.4 -0.5 0.6 -0.9 2.2 l-0.7 3 -1.1 -2.5 -1.1 -2.5 0 2.7 c-0.1 1.5 -0.4 2.9 -0.9 3.2 -0.4 0.2 -0.6 -1.2 -0.4 -3.2 0.4 -4.9 -3.4 -12.6 -6.5 -13 -2.8 -0.4 -2.8 -0.6 -0.2 5.3 1.6 3.7 2 6 1.6 9.8 -0.6 5 -2.2 8.1 -3.7 7.2 -0.5 -0.3 -1.1 -0.1 -1.5 0.5 -0.3 0.5 -1.3 1 -2.1 1 -1.1 0 -1.4 -0.6 -0.9 -2.2z"/>
  <path d="M150 299.3 c0 -0.8 1.2 -1.3 3 -1.3 1.7 0 3 0.4 3 0.9 0 0.5 -1.3 1.1 -3 1.3 -2 0.3 -3 0 -3 -0.9z"/>
  <path d="M424 300 c0 -0.5 0.7 -1 1.5 -1 2.5 0 1.7 -2 -1.2 -3 -1.6 -0.5 -4 -1.6 -5.4 -2.3 -2.1 -1.2 -2.9 -1.2 -4.4 -0.1 -1.6 1.2 -1.3 1.4 2.9 2.5 2.5 0.6 4.6 1.7 4.6 2.5 0 0.9 -1.7 0.7 -6.7 -1 -4.9 -1.7 -6.8 -2.8 -6.7 -4 0.1 -1.2 -0.3 -1.5 -1.7 -1.1 -1.3 0.4 -1.9 0.2 -1.9 -0.9 0 -0.8 0.4 -1.7 0.8 -2 0.8 -0.5 15.7 -1.5 22 -1.6 1.3 0 2.2 -0.6 2.2 -1.5 0 -0.8 0.5 -1.5 1.1 -1.5 0.8 0 0.9 2.2 0.4 7.3 -0.4 3.9 -0.9 7.5 -1.2 8 -0.6 1.1 -6.3 0.9 -6.3 -0.3z"/>
  <path d="M39 296 c0 -2.2 0.5 -3 1.8 -3 1.5 0 1.8 0.6 1.4 3 -0.2 1.7 -1 3 -1.8 3 -0.9 0 -1.4 -1.1 -1.4 -3z"/>
  <path d="M144.8 298.3 c-1 -0.3 -1.8 -0.8 -1.8 -1.3 0 -1.9 1.3 -4 2.5 -4 1.6 0 2.5 -2.2 2.5 -6.1 0 -1.7 0.6 -3.2 1.5 -3.5 0.8 -0.4 1.5 -1.2 1.5 -2 0 -0.8 0.5 -1.4 1.1 -1.4 0.6 0 0.8 0.9 0.4 2.1 -0.4 1.2 -1.5 5.1 -2.6 8.7 -2.1 7.3 -2.6 8 -5.1 7.5z"/>
  <path d="M161.1 296.3 c0.1 -2.5 1.7 -6.3 1.8 -4.3 0.1 0.8 0.4 2.5 0.7 3.8 0.5 1.6 0.2 2.2 -1 2.2 -0.9 0 -1.6 -0.8 -1.5 -1.7z"/>
  <path d="M151 294.1 c0 -3.6 2.9 -14 5.6 -19.9 1.3 -2.9 2.4 -5.6 2.4 -6.1 0 -0.5 0.7 -1.4 1.5 -2.1 0.8 -0.6 1.3 -1.7 1.2 -2.3 -0.1 -0.7 1.3 -1.3 3.1 -1.5 1.8 -0.2 3.2 0.1 3.2 0.7 0 0.6 -1.2 1.2 -2.7 1.2 -1.7 0.1 -2.1 0.3 -1 0.6 2.5 0.6 2.1 2.3 -0.5 2.3 -2.2 0.1 -2.2 0.1 -0.5 1.4 1.8 1.4 1.6 2 -2.4 14 -3.7 11.4 -4.4 12.6 -6.2 12 -1.2 -0.4 -2.3 -0.1 -2.8 0.7 -0.6 1 -0.9 0.7 -0.9 -1z"/>
  <path d="M7.1 292.8 c0 -1 -0.6 -1.8 -1.2 -1.8 -1.2 0 -0.3 -7.1 1 -8 0.4 -0.3 0.7 -2.3 0.7 -4.5 0 -4.9 5 -17.6 9.8 -24.8 1.9 -2.8 6.2 -8 9.6 -11.5 5.5 -5.6 6.2 -6.1 7.6 -4.7 1.4 1.4 1.3 1.7 -0.8 3.5 l-2.3 1.9 3 0.2 c1.7 0.1 3.4 0.1 4 -0.1 0.5 -0.1 0.2 0.7 -0.8 1.8 -1.2 1.3 -2.7 1.8 -4.5 1.5 -2.4 -0.4 -2.5 -0.3 -0.9 0.7 1.8 1.2 1.8 1.3 -0.1 3.3 -3 3.4 -8.9 13.7 -12.1 21.3 -2.5 5.9 -3.3 6.9 -5.7 7.2 -2.6 0.4 -2.7 0.3 -2.1 -3.8 0.3 -2.2 2.3 -7.8 4.6 -12.3 2.2 -4.5 3.3 -7.3 2.4 -6.2 -4.6 5.9 -8.8 18.1 -11.2 32.5 -0.5 3 -0.9 4.7 -1 3.8z m20.3 -44.9 c3.9 -4.3 2.7 -4.6 -1.4 -0.4 -1.9 1.9 -2.9 3.5 -2.4 3.5 0.6 0 2.3 -1.4 3.8 -3.1z"/>
  <path d="M160.1 289.8 c0.9 -5.1 5.3 -17.6 8.1 -23.3 2.5 -4.9 9.6 -12.5 11.9 -12.5 4.4 0 9.8 7.8 11.4 16.4 1.1 5.5 -1.5 4.4 -3.2 -1.4 -1.3 -4.5 -4.7 -9 -6.9 -9 -4.3 0 -12 7.5 -15 14.5 -1.6 3.9 -1.8 5.7 -0.4 3.5 1.4 -2.2 1.7 -1.2 2.4 7.3 0.5 5.4 0.4 7.7 -0.4 7.2 -0.5 -0.3 -1 -1.6 -1.1 -2.8 0 -1.2 -0.6 -4 -1.3 -6.2 l-1.2 -4 -1.9 7.3 c-2 7.8 -3.7 9.9 -2.4 3z"/>
  <path d="M140 290.6 c0 -0.2 0.6 -1.8 1.4 -3.6 1.1 -2.7 1.4 -2.9 1.8 -1.3 0.3 1.1 0 2.7 -0.7 3.6 -1.1 1.6 -2.5 2.3 -2.5 1.3z"/>
  <path d="M118.6 282.2 c-0.4 -0.7 -0.2 -1.2 0.3 -1.2 0.6 0 1.1 -0.7 1.1 -1.5 0 -0.8 0.5 -1.5 1 -1.5 1.4 0 1.3 1.3 -0.3 3.5 -1 1.2 -1.6 1.4 -2.1 0.7z"/>
  <path d="M171.7 279 c-1.1 -4.1 -0.7 -9.4 0.8 -11.4 2.4 -3.1 2.7 -1.3 1.3 6.5 -1.1 5.9 -1.5 6.9 -2.1 4.9z"/>
  <path d="M194.2 275.8 c-0.3 -5.5 -4.6 -16.5 -7.6 -19.3 -2.7 -2.5 -3.8 -2.9 -9.8 -4 -2.5 -0.4 -3.8 -1.1 -3.8 -2.2 0 -1.3 0.2 -1.4 1.7 -0.2 0.9 0.8 1.4 0.9 1 0.3 -1.2 -2.1 2 -2.3 4.2 -0.3 2.1 2 3.1 1.3 1 -0.8 -0.7 -0.7 -0.3 -0.9 1.5 -0.6 1.4 0.3 2.6 0.9 2.6 1.4 0 0.5 1.8 2.8 4.1 5.1 3 3.1 3.8 3.6 2.9 1.8 -0.7 -1.4 -1.9 -3.3 -2.8 -4.2 -2.7 -3.1 -0.2 -1.9 3.5 1.7 2.5 2.4 3.4 4 3 5.5 -0.3 1.2 0 2 0.8 2 0.7 0 1.6 0.7 1.9 1.6 1.1 2.8 -0.2 2.8 -2.7 -0.1 -1.4 -1.7 -2.6 -2.4 -3 -1.8 -0.4 0.6 0.2 2.1 1.3 3.3 1.1 1.3 2 2.9 2 3.6 0 0.8 0.6 1.1 1.5 0.8 0.8 -0.4 1.5 -0.1 1.5 0.5 0 0.6 -0.9 1.1 -1.9 1.1 -1.6 0 -2.1 0.8 -2.4 4.3 -0.3 4.2 -0.4 4.2 -0.5 0.5z"/>
  <path d="M151.6 276.1 c-1.4 -2.2 0.7 -11.9 2.8 -13.3 0.7 -0.5 0.8 -1.1 0.1 -1.5 -0.5 -0.5 -1.9 -2.6 -3 -4.7 -3.1 -6.1 -6.3 -6.6 -13.3 -2.4 -3.1 1.9 -8.4 4.1 -11.7 4.8 -3.3 0.8 -6.4 1.5 -7 1.6 -13.2 3.8 -37.7 9.4 -42.1 9.6 l-5.7 0.3 -1.6 -6.5 c-2 -8.1 -5.9 -14.8 -11.1 -19.3 -3.3 -2.8 -5.2 -3.6 -10.1 -4.1 -5.4 -0.6 -5.8 -0.8 -4.4 -2.3 2 -1.9 10.3 -1.2 13.7 1.2 2.8 1.9 3.8 1.9 3.8 0 0 -2.6 1.7 -1.6 2.3 1.3 0.3 1.6 1.7 3.4 3.1 4.2 1.4 0.7 2.6 2.2 2.6 3.2 0 1.6 -0.3 1.7 -2.2 0.8 -1.9 -0.9 -1.8 -0.7 0.5 1.4 1.6 1.5 2.6 3 2.2 3.5 -0.3 0.6 0 2.8 0.7 5.1 1.3 4 1.4 4.1 4.8 3.6 11.4 -1.7 14 -1.8 14 -0.6 0 0.8 -1 1.1 -3 0.8 -1.7 -0.3 -3.3 -0.1 -3.6 0.4 -0.3 0.4 -0.2 0.8 0.3 0.8 0.4 0.1 2.7 0.5 5.1 0.9 2.3 0.5 4.2 0.4 4.2 0 0 -0.5 1 -0.9 2.3 -1 2.1 0 2.1 -0.1 0.2 -1 -1.5 -0.7 -0.8 -0.8 2.4 -0.5 2.5 0.3 3.9 0.1 3.2 -0.3 -1 -0.6 -0.9 -1 0.3 -1.4 0.8 -0.3 1.8 -0.3 2 0.2 0.3 0.4 1.9 0.6 3.6 0.3 3.5 -0.5 2.9 -1.8 -1 -2.5 -1.4 -0.2 0.2 -0.3 3.5 -0.2 6.4 0.3 13.7 -0.9 19.2 -3.1 l3.4 -1.4 -2.8 -2.6 -2.8 -2.5 4 0.4 c2.2 0.2 4.9 0.8 5.9 1.2 1.6 0.7 1.8 0.5 1.3 -0.8 -0.6 -1.7 1.2 -2.4 2.6 -1.1 0.9 1 8.7 1.1 8.1 0.2 -0.3 -0.4 0.2 -0.8 1 -0.8 0.9 0 1.6 1.1 1.8 2.7 0.2 1.7 1 2.9 2.3 3.3 1.4 0.3 2.1 1.5 2.3 4 0.6 5.9 0.8 5.9 5.9 -0.9 0.2 -0.2 0.5 -0.2 0.8 0.1 0.3 0.3 -0.7 2.9 -2.3 5.9 -1.5 3 -3.6 7.3 -4.5 9.7 -1.6 4 -3 5.2 -4.1 3.3z m-69.6 -9.1 c1.3 -0.8 1.2 -1 -0.2 -1 -1 0 -1.8 -0.6 -1.9 -1.2 0 -1 -0.2 -1 -0.6 0 -0.2 0.6 -1.2 1.2 -2.1 1.2 -1.5 0 -1.5 -0.2 -0.2 -1 1.2 -0.8 1.1 -1 -0.7 -1 -3.6 0 -3.6 1.8 -0.1 2.9 4.3 1.2 4.1 1.2 5.8 0.1z"/>
  <path d="M177.4 270.8 c0.7 -5.3 2 -7.8 3.2 -6.5 1 1 -1.7 11.7 -2.9 11.7 -0.6 0 -0.7 -2.1 -0.3 -5.2z"/>
  <path d="M431.7 273.1 c0.4 -1.5 -0.1 -2 -2.4 -2.4 l-2.8 -0.4 3 -0.3 c2.3 -0.2 1.8 -0.5 -1.9 -0.9 -6.8 -0.8 -7.3 -3 -0.6 -2.3 3.3 0.3 5 0.1 5 -0.7 0 -0.6 0.6 -1.1 1.4 -1.1 1.5 0 2.6 3 2.6 7.3 0 2.2 -0.4 2.7 -2.4 2.7 -1.9 0 -2.3 -0.4 -1.9 -1.9z"/>
  <path d="M348.8 271.3 c-3.5 -0.9 -1.1 -3.3 3.3 -3.3 1.2 0 1.9 0.7 1.9 2 0 2 -1.4 2.3 -5.2 1.3z"/>
  <path d="M319.7 266.1 c-1.6 -3.3 -1.3 -4.1 1.5 -4.1 1 0 1.7 -0.3 1.7 -0.7 -0.1 -0.5 -0.1 -2 0 -3.5 0.1 -2.1 0.6 -2.8 2.2 -2.8 1.9 0 2 0.4 1.5 3.5 -0.4 2.1 -0.3 3.5 0.3 3.5 0.5 0 0.9 0.9 0.8 2 -0.1 1.2 -0.7 1.8 -1.4 1.6 -0.8 -0.3 -1.3 0.2 -1.3 1.4 0 3.1 -3.6 2.5 -5.3 -0.9z"/>
  <path d="M329.2 262.9 c0.1 -2.7 -0.1 -5.1 -0.7 -5.3 -0.5 -0.3 -0.2 -0.5 0.8 -0.5 0.9 -0.1 1.7 0.4 1.7 0.9 0 0.6 0.7 1 1.6 1 1.2 0 1.5 0.6 1 2.3 -0.3 1.2 -0.6 2.9 -0.6 3.8 0 0.9 -0.9 1.9 -2.1 2.2 -1.9 0.5 -2.1 0.2 -1.7 -4.4z"/>
  <path d="M348.5 265.1 c2.3 -0.5 2.9 -1.1 2.7 -2.6 -0.6 -3.2 -2.7 -3.8 -3 -1 -0.5 4 -2.2 2.9 -2.2 -1.4 0 -3.8 0 -3.8 4.1 -3.8 3.4 0 4.2 0.4 5 2.6 0.6 1.4 0.8 3.3 0.6 4.3 -0.3 1.1 0.2 1.8 1.7 2.1 1.1 0.2 -1 0.4 -4.9 0.4 -4.6 0.1 -6 -0.2 -4 -0.6z"/>
  <path d="M386.1 265.3 c0 -0.7 -1 -1.3 -2.2 -1.3 -1.1 0 -1.8 -0.4 -1.4 -1 0.3 -0.5 1.1 -0.7 1.8 -0.4 0.8 0.3 1.7 -0.8 2.2 -2.8 0.9 -3 1.3 -3.2 5.6 -3.3 3.4 0 4.6 0.3 4.5 1.3 -0.2 0.8 -0.7 1.7 -1.3 2 -0.6 0.4 -1.5 2 -1.8 3.5 -0.7 2.8 -3.5 3.8 -3.5 1.2 0 -2.1 -2.8 -1.9 -3.3 0.3 -0.3 0.9 -0.5 1.1 -0.6 0.5z"/>
  <path d="M395 264 c0 -1.3 0.7 -2 2 -2 1.3 0 2 0.7 2 2 0 1.3 -0.7 2 -2 2 -1.3 0 -2 -0.7 -2 -2z"/>
  <path d="M422.8 264.3 c1.2 -0.2 3 -0.2 4 0 0.9 0.3 -0.1 0.5 -2.3 0.4 -2.2 0 -3 -0.2 -1.7 -0.4z"/>
  <path d="M194.5 254 c-1 -1.1 -1.3 -2 -0.8 -2 1.3 0 3.8 2.9 3.1 3.5 -0.3 0.3 -1.3 -0.4 -2.3 -1.5z"/>
  <path d="M125.6 253.5 c-0.4 -1.2 -0.1 -1.6 1.1 -1.3 1.8 0.3 2.1 2 0.5 2.6 -0.5 0.1 -1.2 -0.4 -1.6 -1.3z"/>
  <path d="M393 254.3 c0 -0.5 0.9 -1.4 2 -2.1 1.1 -0.7 2 -0.8 2 -0.2 0 0.5 -0.9 1.4 -2 2 -1.1 0.6 -2 0.7 -2 0.3z"/>
  <path d="M390 252.5 c0.7 -0.8 2 -1.5 2.8 -1.5 1.3 0 1.2 0.3 -0.4 1.5 -2.5 1.9 -4 1.9 -2.4 0z"/>
 </g>
 <g fill="#00a1f2">
  <path d="M230 396 c-2.3 -1.8 -3.3 -1.9 -10.5 -1.1 -4.4 0.5 -10.8 0.7 -14.2 0.4 -6 -0.6 -6.3 -0.7 -6.3 -3.2 0 -3.2 1.8 -6.2 10.9 -18.2 3.9 -5.1 7.1 -9.8 7.1 -10.4 0 -0.6 1.3 -2.4 3 -4 1.6 -1.6 3 -3.5 3 -4.2 0 -0.7 0.9 -1.3 2 -1.3 2.7 0 2.7 3.6 -0.1 4.3 -1.3 0.3 -1.8 1 -1.4 1.7 1.8 3 36.6 -1.4 55.5 -7 11.8 -3.5 19 -7.4 25.2 -13.7 4.2 -4.3 4.3 -4.5 4.3 -11.2 0 -5.5 -0.4 -7.4 -2.5 -10.4 -2.5 -3.6 -9.1 -7.7 -16 -9.8 -6.4 -1.9 -27.4 -7.1 -32.5 -7.9 -2.7 -0.5 -7.6 -1.5 -10.9 -2.4 -3.2 -0.8 -8.8 -1.8 -12.5 -2.1 -7.4 -0.7 -13.8 -1.8 -25.9 -4.7 -8.7 -2 -10.4 -1.9 -8.2 0.7 1.1 1.3 0.9 1.5 -1.4 1.5 -3.2 0 -3.3 -0.3 -3.9 -10.2 -0.4 -6 -0.2 -7.8 0.8 -7.8 0.7 0 1.5 0.8 1.7 1.8 0.4 1.5 2.6 2.2 10.4 3.6 5.4 0.9 13.2 2.4 17.2 3.3 7.2 1.4 7.4 1.4 9.4 -0.7 1.1 -1.2 2.3 -1.9 2.6 -1.6 0.3 0.4 -0.3 1.2 -1.3 2 -2.6 1.9 -1.3 2.3 10.5 3.6 25.7 2.8 85.1 14.1 102.1 19.5 14.4 4.5 26.3 11.2 37.9 21.1 7.1 6 9 9 9 14 0 6.3 -4.2 13.3 -12.8 21.6 -8.4 8 -14.8 12.5 -26.8 19 -7.7 4.1 -18.6 7.1 -22.4 6.1 -2.5 -0.7 -7 0.4 -7 1.7 0 0.6 1.2 1.1 2.8 1.1 1.5 0.1 0 0.5 -3.3 1 -3.9 0.5 -6.7 0.4 -8.2 -0.3 -2.6 -1.3 -8.6 -0.3 -10.2 1.6 -1.2 1.4 -4.6 0.8 -9.3 -1.5 -0.9 -0.4 -3.9 -1.1 -6.8 -1.5 -4.5 -0.6 -5.3 -0.4 -6.6 1.5 -1.2 1.6 -2.6 2.1 -5.9 2.1 -2.4 0 -4.7 0.5 -5 1 -0.3 0.6 -1.9 1 -3.5 1 -1.6 0 -3.2 -0.4 -3.5 -1 -0.3 -0.6 0.4 -1 1.7 -1 l2.3 0 -2.5 -2 c-2.8 -2.3 -9.1 -2.3 -9.8 -0.1 -0.3 1 0.2 1.1 1.9 0.6 2.3 -0.7 2.3 -0.6 -0.3 1.4 -2.5 2 -3.1 2.1 -6.3 1 -2.9 -1.1 -4 -1 -6.9 0.4 -2.1 1 -3.8 1.2 -4.1 0.7 -0.9 -1.5 -5.1 -1.2 -6.5 0.5 -1.6 1.9 -2.9 1.8 -6 -0.5z m50 -5 c0 -1.6 -2.7 -2.3 -5.5 -1.6 -3.9 1 -2.9 2.6 1.5 2.6 2.2 0 4 -0.5 4 -1z"/>
  <path d="M350.1 388.1 c-0.9 -0.6 0.4 -1.8 4.6 -4.1 19.3 -10.8 23.9 -13.6 28.6 -17.2 l5.2 -3.9 -5.5 5.3 c-9.2 8.8 -30.2 21.5 -32.9 19.9z"/>
  <path d="M377.5 316.9 c-1.6 -1.1 -5.6 -3.4 -8.9 -5 -3.2 -1.7 -5.6 -3.3 -5.2 -3.6 0.6 -0.6 16.3 8.3 17.2 9.8 0.7 1.2 0.4 1.1 -3.1 -1.2z"/>
 </g>
 <g fill="#fefe00">
  <path d="M233 489.4 c0 -0.3 0.7 -1.2 1.5 -2 1.2 -1.3 1.5 -4.9 1.5 -19.4 0 -9.8 -0.3 -18.1 -0.7 -18.3 -1.6 -1 -5.4 1.4 -7.3 4.5 l-2 3.3 0 -5.7 0 -5.8 14 -0.1 c7.7 -0.1 14.5 -0.2 15.2 -0.3 1.3 -0.1 3.1 6.8 2.5 9.9 -0.3 1.8 -0.5 1.7 -1.5 -0.7 -1.4 -3.3 -5.6 -6.2 -7.8 -5.4 -1.5 0.6 -1.6 2.5 -1.1 18.2 0.4 13.7 0.9 18 2.1 19.9 l1.6 2.5 -9 0 c-4.9 0 -9 -0.3 -9 -0.6z"/>
  <path d="M271.5 486.7 c1.6 -2.5 1.6 -1.4 -1.1 -27.5 -0.8 -7.4 -2.2 -12 -4 -13 -1 -0.5 2.8 -1.5 10.3 -2.5 6.5 -0.9 12.7 -2 13.9 -2.3 1.7 -0.5 2.2 0 2.7 2.4 0.3 1.6 0.9 4.3 1.3 5.8 l0.7 2.9 -2.4 -2.1 c-3.7 -3.3 -6.1 -4.2 -10.3 -3.6 l-3.8 0.4 0.6 5.2 c0.4 2.8 1 6.1 1.3 7.4 1 4 7.5 2.3 9.5 -2.6 l1.1 -2.7 0.7 2.7 c0.4 1.5 1.1 5.1 1.5 8 l0.7 5.3 -1.9 -2.4 c-1.5 -1.8 -3 -2.5 -5.6 -2.5 -2 0 -3.9 0.3 -4.3 0.6 -1 1.1 1.8 15.9 3.1 16.5 2.3 0.8 9.7 -1.8 12 -4.3 1.3 -1.4 2.7 -4 3.1 -5.7 0.7 -3.2 0.7 -3.2 1.5 -0.7 0.4 1.4 0.7 4.6 0.8 7.2 l0.1 4.6 -5.2 1.2 c-4.5 0.9 -24.6 3.9 -27.1 4 -0.4 0 -0.1 -1.1 0.8 -2.3z"/>
  <path d="M314.7 476.6 c0.8 -4.9 -7.7 -31.3 -11.2 -34.6 -1.4 -1.3 -2.5 -2.6 -2.5 -2.9 0 -0.3 2.5 -1.3 5.5 -2.2 l5.5 -1.6 4.8 3.4 c6.2 4.5 18.2 11.6 18.8 11.1 0.2 -0.3 -1.4 -4.2 -3.6 -8.7 -2.6 -5.4 -4.7 -8.5 -6 -8.8 -2.9 -0.8 -2.5 -1.7 1.3 -3.1 4.7 -1.7 5.5 -1.5 5 1.1 -0.4 2.1 5.7 16.7 13.4 32.1 1.9 3.7 3.1 7.1 2.8 7.4 -0.9 1 -14.2 -6.1 -25.7 -13.8 -5.7 -3.7 -10.4 -6.4 -10.6 -6 -0.5 1.3 5.8 21.1 7.5 23.7 0.8 1.3 2.2 2.3 2.9 2.3 2.8 0 1.3 1.7 -2.5 2.8 -5.7 1.8 -6 1.6 -5.4 -2.2z"/>
  <path d="M361.8 459.5 c0.8 -4.6 -13 -29.4 -18.6 -33.1 l-3.2 -2.2 5.1 -3 5.2 -3 4.6 2 c7.6 3.3 21.2 8.1 21.6 7.6 0.5 -0.4 -6.3 -9.8 -9.8 -13.5 -1.1 -1.3 -3 -2.3 -4.1 -2.3 -1.5 0 -1.1 -0.6 2 -2.9 l3.9 -3 0.6 2.9 c0.6 2.7 6.5 11.2 19.8 28.5 4.7 6.1 5.1 7 3.4 7.3 -2.5 0.4 -22.5 -6 -31.2 -9.9 -3.5 -1.6 -6.8 -2.9 -7.3 -2.9 -1 0 4 9.6 9.8 18.7 2.5 3.9 4 5.2 6.1 5.5 2.7 0.3 2.7 0.3 -1.8 3.1 -5.7 3.3 -6.8 3.4 -6.1 0.2z"/>
  <path d="M404.7 432.1 c0.6 -2.5 -0.2 -3.7 -13.1 -18.1 -7.7 -8.5 -11.4 -12 -13.3 -12.2 -2.4 -0.3 -1.7 -1.1 7.6 -9.7 l10.2 -9.4 3.6 3 c5.2 4.2 5.2 5.2 0 4.6 -3.6 -0.4 -5.1 -0.1 -7.6 1.8 -1.7 1.2 -3.1 2.8 -3.1 3.4 0 0.6 2.3 3.3 5.1 6 l5 5 2.5 -2.9 c2 -2.3 2.4 -3.5 1.8 -6 l-0.7 -3.1 5.4 5 c6.5 6 6.9 6.6 3.2 5.6 -3.2 -0.9 -6.2 -0.1 -8.2 2.3 -1.1 1.3 -0.7 2.3 2.9 6.6 6.2 7.4 7.4 7.8 11.5 3.7 4 -4 5.1 -7.7 3.7 -12.3 -0.5 -1.9 -0.7 -3.4 -0.3 -3.4 0.7 0 5.8 6 7.5 8.7 0.8 1.4 -7.5 10.1 -17.5 18.6 -6.3 5.2 -6.9 5.6 -6.2 2.8z"/>
  <path d="M431.6 395.9 c-3.1 -2.2 -5.6 -4.2 -5.6 -4.4 0 -0.2 2.6 -0.1 5.8 0.2 9.1 0.8 14.8 -3 14 -9.5 -0.2 -1.6 -1.3 -3.2 -2.8 -4 -2.3 -1.3 -3.2 -1.2 -10.2 2.2 -9.8 4.6 -14.4 4.8 -19.2 0.6 -7.2 -6.3 -6.9 -15 0.6 -21.4 2.3 -2 4.6 -3.6 5.1 -3.6 0.9 0 9.7 5 9.7 5.5 0 0.2 -2.1 0.2 -4.7 -0.1 -5.9 -0.7 -10.3 2.1 -10.3 6.5 0 6.1 4.5 6.6 14.4 1.6 3.7 -1.9 7.9 -3.5 9.3 -3.5 6.6 0 14.3 6.6 14.3 12.3 -0.1 5 -3.3 10.8 -9.2 16.4 l-5.5 5.3 -5.7 -4.1z"/>
  <path d="M455 360.5 l-6.5 -3.4 5.5 -0.1 c3.7 0 6.5 -0.7 8.4 -1.9 5.4 -3.6 7.1 -9.4 3.8 -12.4 -2.9 -2.6 -6.1 -2 -11.6 2.2 -6.9 5.2 -8.8 6.1 -13.3 6.1 -6.9 0 -13.3 -6.3 -13.3 -13 0 -3.6 1.9 -7.7 5.6 -12.4 l2.2 -2.6 5.8 2.2 c3.3 1.3 5.2 2.4 4.4 2.5 -9.6 1.2 -13 3.2 -13 7.6 0 3.3 3.3 6.1 6.3 5.3 1.3 -0.3 4.5 -2.2 7 -4.1 9.6 -7.3 15.8 -7.9 22.3 -2.3 5.9 5.2 5.5 13.9 -1.1 22 -2 2.4 -3.8 5.1 -4.1 6.1 -0.8 2.2 -0.7 2.2 -8.4 -1.8z"/>
  <path d="M477.9 324.6 c-1.2 -1.6 -6 -3.6 -16.5 -6.9 -17.8 -5.6 -20.9 -6.3 -21.8 -4.8 -1.8 2.9 -2.3 0.5 -0.9 -4.1 0.9 -2.9 2.6 -8.8 3.8 -13.1 1.1 -4.3 2.3 -7.8 2.5 -7.9 1.8 -0.3 11 1.5 11 2.1 0 0.5 -1.4 1.2 -3.1 1.7 -3.6 1 -6.7 4.7 -7.1 8.3 -0.3 2.1 0.4 2.6 6.6 4.3 5.6 1.6 7 1.7 7.7 0.6 1.5 -2.4 0.9 -6.1 -1.3 -8.6 l-2.3 -2.4 4 0.8 c2.2 0.4 5.8 1.2 8 1.9 l4 1.2 -3.6 1.5 c-3.6 1.6 -6 6.1 -4.2 7.9 0.5 0.5 3.9 1.6 7.5 2.6 8.2 2.1 8.9 1.6 9.6 -6.1 0.4 -5.3 0.3 -5.7 -3.1 -9.1 -3.9 -3.9 -3.4 -4.1 3.8 -1.6 6.4 2.3 6.6 3.3 2 19 -4.4 15.2 -4.5 15.5 -6.6 12.7z"/>
  <path d="M488.9 279.7 c-1.3 -1.7 -4 -2.3 -19.8 -4 -14.9 -1.7 -18.6 -1.9 -20.3 -0.8 -2 1.2 -2 1.1 -1.3 -7.6 0.9 -12.4 1.4 -17.6 1.9 -18 0.2 -0.2 3 -0.3 6.2 -0.1 l5.9 0.3 -3.2 1.8 c-3.6 1.9 -6.3 6.3 -6.3 10 0 2.3 0.5 2.5 7 3.1 3.8 0.4 7.4 0.4 8 0.1 1.8 -1.1 1 -5.6 -1.5 -8 l-2.4 -2.5 7.5 0 c4.8 0 7.3 0.4 6.9 1 -0.3 0.6 -1.2 1 -2 1 -1.9 0 -4.5 3.9 -4.5 6.7 0 2.8 2.4 3.5 11 3.1 l6.5 -0.3 0.3 -5.3 c0.3 -4.7 0 -5.6 -2.5 -8 -1.6 -1.5 -3.8 -3.3 -4.8 -4 -1.7 -1.1 -1.3 -1.2 3 -0.7 9.5 1.1 8.9 0 8.1 14.9 -0.3 7.2 -1 14.5 -1.4 16.2 -0.7 3.1 -0.7 3.1 -2.3 1.1z"/>
  <path d="M50.7 220.5 c-1 -0.7 -7.9 -2 -15.5 -2.9 -20.4 -2.5 -20.8 -2.5 -23.6 -1.1 l-2.5 1.4 0.5 -4.7 c0.3 -2.6 1 -6.4 1.6 -8.5 0.8 -3.2 1.2 -3.6 2.4 -2.6 1.2 1 11.9 3.8 15.1 3.9 0.6 0 1.7 -2.5 2.4 -5.6 1.1 -4.7 1 -5.7 -0.2 -6.4 -2.4 -1.6 -12.2 -2.3 -15.1 -1.2 -2.7 1 -2.8 0.9 -2.2 -1.6 0.4 -1.5 1.7 -5.8 2.9 -9.7 2.1 -6.7 2.3 -6.9 3.3 -4.3 0.9 2.2 2.4 3.1 7.9 4.7 15.4 4.5 26.3 7.1 29.2 7.1 3.6 0 3.7 0.4 1.4 8.3 -1.4 5.1 -1.8 5.7 -2.9 4.3 -1.2 -1.7 -13.1 -5.6 -17.1 -5.6 -2.7 0 -2.9 0.4 -3.8 6 l-0.7 4.6 7.1 1.2 c3.9 0.7 8.7 1.2 10.7 1.2 l3.5 0 -0.6 5.8 c-0.8 6.7 -1.4 7.5 -3.8 5.7z"/>
  <path d="M460.6 214.9 c-3.4 -2.7 -3.7 -8.8 -0.4 -11.9 3.1 -2.8 8.3 -2.6 11.3 0.5 5.1 5 1.1 13.5 -6.4 13.5 -1 0 -3 -0.9 -4.5 -2.1z"/>
  <path d="M437.5 185.2 c-0.4 -0.9 -1.5 -4 -2.5 -6.9 l-1.9 -5.2 2.9 0.5 c2.6 0.6 8.7 -1.2 16.2 -4.7 2.7 -1.2 11.7 -14.9 15.1 -22.9 l1.5 -3.5 3.1 6.7 c3.4 7.5 3.7 8.8 1.8 8.8 -1.8 0 -10.1 14.6 -9.4 16.4 0.8 2 14.5 4.2 16.9 2.7 1.6 -1 2 -0.7 2.8 1.4 1.8 4.8 1.4 5.6 -2.2 4.1 -4.8 -2 -22.5 -4.9 -25.7 -4.3 -4.9 1 -14.3 4.9 -16.1 6.7 -1.7 1.7 -1.9 1.7 -2.5 0.2z"/>
  <path d="M61 183.1 c0 -0.5 -3.2 -3.4 -7.1 -6.6 -15.4 -12.5 -25.4 -21.9 -25.4 -23.9 0 -2.4 -1.5 -2.4 19.5 -0.4 7.4 0.7 16.5 1.3 20.3 1.3 3.7 0 6.7 0.3 6.7 0.6 0 0.4 -1.4 3.7 -3.1 7.4 -2.8 5.8 -3.3 6.5 -4.2 4.9 -1.5 -2.8 -2.8 -3.4 -7.4 -3.4 -4.1 0 -4.3 0.1 -5.5 4.1 -1.1 3.9 -1.1 4.3 1.2 6.1 1.6 1.3 3.5 1.8 5.7 1.6 3.8 -0.5 4 0.3 1.8 5.6 -1.5 3.5 -2.5 4.6 -2.5 2.7z m-9.7 -18 c1.4 -2.8 1.4 -2.9 -1.6 -3.5 -1.6 -0.3 -4.3 -0.6 -6 -0.6 l-3 0 4.4 3.4 c2.4 1.9 4.5 3.5 4.6 3.5 0.1 0.1 0.8 -1.2 1.6 -2.8z"/>
  <path d="M76 150.6 c0 -1.6 -2.1 -3.1 -21.4 -15 -8.5 -5.3 -11.4 -6.6 -13.3 -6.1 l-2.6 0.6 2 -3.3 c4.4 -7.4 4.8 -7.8 7.6 -7.8 1.5 0 8.4 1.2 15.3 2.6 6.9 1.4 12.8 2.4 13 2.1 0.3 -0.3 -1.2 -2.4 -3.3 -4.9 -2.1 -2.4 -6.2 -7.6 -9.2 -11.6 l-5.3 -7.2 2.8 -3.8 c1.5 -2 2.9 -3.9 3.1 -4.2 0.2 -0.2 1.4 0.7 2.6 2.1 2.4 2.8 18.1 14.7 26.1 19.8 2.8 1.7 6.1 3.1 7.5 3.1 2.4 0 2.3 0.2 -1.9 4.5 -4.5 4.6 -6 5.4 -6 3.3 0 -0.7 -2.3 -2.9 -5.2 -4.8 -2.8 -1.9 -8.7 -6.3 -13.2 -9.6 -4.5 -3.4 -8.2 -6.1 -8.4 -5.9 -0.5 0.5 9.1 12.8 16.5 21.1 6.6 7.5 7.8 10 4.2 8.9 -3 -1 -29.3 -5.4 -29.7 -5.1 -0.7 0.8 21.5 12.6 23.6 12.6 l2.3 0 -2.3 4.1 c-2.7 4.9 -4.8 6.9 -4.8 4.5z"/>
  <path d="M420.5 147.5 c-1 -2.2 -2.6 -5.2 -3.6 -6.7 -2.4 -3.3 -2.4 -3.3 0.9 -3.4 2.8 -0.1 32.2 -17.8 32.2 -19.4 0 -2.1 -4.6 -5 -7.9 -5 l-3.6 -0.1 3.5 -2.9 c1.9 -1.6 4.2 -3 5 -3 2.1 0 18 26.6 18 30.2 0 0.8 -2.2 2.4 -5 3.5 -2.7 1.2 -5 1.9 -5 1.7 0 -0.3 1 -1.8 2.1 -3.4 1.5 -1.9 2 -3.6 1.5 -5.2 -1.4 -5.2 -1.7 -5.2 -13.7 1.5 -6.3 3.4 -13.5 7.4 -16.1 8.7 -2.9 1.5 -5.1 3.5 -5.7 5 -0.9 2.5 -0.9 2.4 -2.6 -1.5z"/>
  <path d="M406 125.2 c0 -1.1 0.4 -3.2 1 -4.8 1.6 -4.7 7.8 -32.9 7.4 -33.3 -0.9 -0.9 -20.4 19.4 -20.4 21.1 0 3 -1.6 2.8 -5 -0.7 l-3.4 -3.5 2.6 0 c1.8 0 5.2 -2.3 10.9 -7.3 12.4 -10.9 16.9 -16.1 16.9 -19.6 0 -4.7 1.8 -4.7 6.7 0 l4.4 4.4 -0.6 5.5 c-0.4 3 -1.7 9.5 -2.9 14.3 -1.6 6.1 -1.9 8.6 -1 8.3 3.3 -1.2 13.5 -10.2 14 -12.3 0.8 -3.1 1.4 -2.9 4.6 1.1 l2.7 3.4 -3.7 0.6 c-2.6 0.4 -6 2.5 -11.2 6.9 -4.1 3.4 -11 8.8 -15.2 12 -6.2 4.5 -7.8 5.3 -7.8 3.9z"/>
  <path d="M103 111.1 c-1.8 -3.4 -26.6 -26.1 -28.6 -26.1 -2.3 0 -1.6 -1.4 3.4 -6.3 5 -5 6.2 -5.6 6.2 -3.3 0 2.9 24.7 27.3 29.2 28.9 0.9 0.3 -0.3 2 -3.3 5.1 -2.6 2.5 -4.9 4.6 -5 4.6 -0.2 0 -1.1 -1.3 -1.9 -2.9z"/>
  <path d="M122.5 94.2 c-1 -4.7 -22.2 -30.2 -25 -30.2 -2.8 0 -1.1 -2.3 4.5 -6.2 6.2 -4.4 6.6 -4.5 7.5 -1.8 0.4 1.2 2.9 5.5 5.7 9.8 14 21.5 13.4 21 20.9 17.1 7.7 -3.9 9.9 -6 10.6 -10.2 0.6 -3.9 0.6 -3.9 1.8 -1.6 3.1 5.9 2.9 6.4 -3.5 10.3 -3.3 2 -9.5 6.3 -13.9 9.6 l-8 5.9 -0.6 -2.7z"/>
  <path d="M375.3 93.5 c-5.2 -1.6 -11.8 -6.7 -13.9 -10.8 -2.4 -4.5 -1.3 -8.3 5.8 -19.3 8.2 -12.5 9 -14.1 9.7 -18.2 l0.6 -3.3 6.8 4.7 c3.7 2.5 6.7 4.9 6.7 5.3 0 0.3 -1.4 1.3 -3 2.1 -3.4 1.7 -21 25.4 -21 28.3 0 2.5 3.6 5.7 6.4 5.7 3.1 0 4.9 -1.6 13.8 -12.5 9.6 -11.6 11.1 -14.1 10.5 -16.5 -0.3 -1.1 -0.2 -2 0.2 -2 1 0 12.5 9 12.9 10 0.2 0.5 -0.8 1.2 -2.2 1.6 -1.5 0.4 -6 4.5 -11 10.3 -14.1 16.1 -15.2 16.8 -22.3 14.6z"/>
  <path d="M156 72.5 c0 -2.4 -14.9 -33.5 -16 -33.5 -2 0 -4.4 3.3 -5.4 7.5 l-1.3 4.8 -2.6 -4.8 c-1.5 -2.6 -2.4 -5.1 -2.1 -5.6 1.4 -2.3 28.2 -14.9 31.8 -14.9 1.3 0 5.1 8.8 4.2 9.8 -0.3 0.2 -1.8 -0.6 -3.4 -1.8 -2.3 -1.7 -3.7 -2 -6.1 -1.5 -1.7 0.4 -3.1 1.2 -3.1 1.9 0 0.6 1.6 5 3.6 9.6 2 4.7 4.9 11.6 6.5 15.4 1.6 3.9 3.7 7.8 4.6 8.8 2 2.2 2 2.2 -4.1 4.7 -6.1 2.7 -6.6 2.6 -6.6 -0.4z"/>
  <path d="M332.8 69.8 c-9.1 -5.2 -12.1 -20 -6.3 -30.8 5.9 -10.8 18.5 -14.7 28.7 -8.7 6.9 4 9.2 7.8 9.6 15.8 0.3 5.3 0 7.4 -1.7 10.8 -2.8 5.3 -9.3 11.9 -13.7 13.7 -4.9 2.1 -12.2 1.7 -16.6 -0.8z m11.7 -7.1 c9.3 -9.6 14.2 -24 9.6 -28.6 -3.6 -3.6 -7.8 -2.3 -13 4.2 -5.9 7.5 -9.8 22.6 -7.2 27.6 1.9 3.5 5.1 2.5 10.6 -3.2z"/>
  <path d="M183.5 60.4 c-15.9 -8.7 -18.7 -31.9 -4.8 -40 14.9 -8.8 31.5 2 31.7 20.7 0 5.4 -0.5 7.3 -2.7 11.1 -3.9 6.7 -7.8 9.2 -15.2 9.5 -4.1 0.2 -6.9 -0.2 -9 -1.3z m15.2 -5.4 c3.3 -6.5 -0.1 -24 -5.8 -30.5 -3.9 -4.4 -8 -4.8 -10.5 -1 -3.6 5.4 0.2 24.3 6.3 31.6 3.3 3.8 8.1 3.8 10 -0.1z"/>
  <path d="M297 58.2 c-7.4 -3.4 -11.5 -10.6 -11.5 -20.3 0 -5.6 0.5 -7.3 3 -11.4 1.7 -2.7 5 -6.3 7.3 -7.9 5.7 -4 12.9 -4.1 20.3 -0.2 2.8 1.4 6 2.6 7.1 2.6 1.4 0 1.8 0.5 1.4 1.8 -0.3 0.9 -1 3.9 -1.7 6.5 -1.3 5.4 -2 5.2 -3.8 -1 -0.6 -2.3 -2.3 -5.1 -3.8 -6.2 -8.2 -6.5 -17.9 3.1 -19.1 18.8 -0.4 6.4 -0.3 7 2.4 10 1.9 2.1 4.2 3.4 6.6 3.8 3.4 0.5 4.2 0.2 7.9 -3.6 2.3 -2.3 4.4 -3.9 4.7 -3.7 0.9 1 -4.2 7.9 -7.2 9.7 -3.1 1.9 -10.5 2.5 -13.6 1.1z"/>
  <path d="M216.8 54.8 c1.8 -1.8 1.5 -7.7 -1.2 -22.7 -2 -11.8 -2.6 -13.7 -5 -15.7 -1.4 -1.3 -2.6 -2.7 -2.6 -3.2 0 -1 7 -2.2 12.5 -2.2 2.9 0 4.3 1.2 12 10 4.9 5.5 9.1 10 9.4 10 1.2 0 -0.1 -15.5 -1.5 -18.4 -0.8 -1.6 -1.4 -3 -1.4 -3.2 0 -0.1 2 -0.2 4.5 -0.2 2.5 0.1 4.5 0.5 4.5 1 0 0.4 -0.4 0.8 -0.9 0.8 -1.8 0 -2 3.3 -1.1 22.2 0.5 10.6 0.5 19.7 0.1 20.1 -0.4 0.4 -3.8 -2.9 -7.5 -7.5 -8.2 -10 -19.6 -22.1 -20.3 -21.5 -0.9 1 3.9 24.3 5.7 27.3 l1.8 3.2 -3 0.6 c-5.1 1 -7.4 0.8 -6 -0.6z"/>
 </g>
 <g fill="#b4f2ff">
  <path d="M198.5 246.8 c-5.7 -3 -6.7 -3.2 -23 -4 -9.3 -0.4 -20.3 -1.3 -24.3 -1.9 -4.1 -0.6 -10.4 -1.3 -14 -1.5 -3.7 -0.3 -9.8 -1.1 -13.7 -2 -4.5 -1 -14.2 -1.6 -27.5 -1.8 -11.3 -0.2 -22.8 -0.7 -25.7 -1.1 -5 -0.7 -5.2 -0.7 -5.9 1.9 -1.3 5.5 -1.9 2.2 -1.2 -6.6 4.5 -51.4 35.8 -103.3 80 -132.9 38.5 -25.7 83.1 -36.7 127.8 -31.4 89 10.4 157.6 79.7 165.9 167.6 0.6 5.8 0.8 11.5 0.4 12.7 -0.9 3.4 -3 2.6 -4 -1.5 l-0.9 -3.8 -6.4 0 c-3.6 0 -14.6 0.7 -24.5 1.4 -16.5 1.3 -24 1.2 -55 -0.3 -2.2 -0.1 -8.3 0.1 -13.5 0.6 -25.9 2.2 -41.6 2.5 -55.5 1.2 -12.1 -1.2 -16 -1.2 -28.5 0.1 -14.6 1.5 -26.7 2.3 -39.5 2.5 -6 0 -6.8 0.2 -5.2 1.4 1.8 1.4 2.3 2.6 1 2.5 -0.5 0 -3.5 -1.4 -6.8 -3.1z m-3 -80.7 c4 -2.2 6.9 -8.2 6.1 -12.5 -1 -5.4 -4.3 -8.5 -13.1 -12.6 -8.7 -4 -10.6 -6.2 -8.5 -9.9 3 -5.7 10.1 -5.1 15.5 1.1 l3.6 4.2 -0.2 -5.1 -0.2 -5.1 -5.8 -1.2 c-3.2 -0.7 -7.7 -1 -9.9 -0.7 -8.6 1.1 -14.9 9.8 -12.1 16.6 1.7 4 3.6 5.6 12.2 9.9 9 4.5 11.2 7.6 8.5 11.7 -1.7 2.6 -2.2 2.7 -7.7 2.3 -6.5 -0.5 -10.1 -2.8 -12.5 -8.3 -1.3 -2.9 -1.3 -2.7 -1.4 3.6 l0 6.6 6.8 1 c8.1 1.3 14.7 0.7 18.7 -1.6z m46.8 0.2 c0.3 -0.5 0.8 -3 1.2 -5.7 l0.7 -4.9 -3.4 3.5 c-2.5 2.7 -4.5 3.8 -8 4.3 -8.3 1.3 -8.8 0.7 -8.8 -9.7 l0 -9.1 4.2 0.6 c3.1 0.4 4.9 1.4 6.5 3.4 l2.3 2.8 0 -6.9 0 -6.9 -2.2 2 c-2.6 2.3 -6.9 3.6 -9.2 2.7 -1.3 -0.5 -1.6 -2.2 -1.6 -7.9 0 -4.1 0.5 -7.7 1 -8 0.6 -0.3 3.1 -0.3 5.8 0.1 3.6 0.5 5.5 1.5 8 4.2 l3.3 3.5 -0.3 -5.4 -0.3 -5.4 -15.7 -0.3 c-8.7 -0.1 -15.8 -0.1 -15.8 0.2 0 0.2 0.7 1.7 1.5 3.2 2.2 4.3 2.2 35 -0.1 38.2 l-1.5 2.2 16 0 c8.8 0 16.2 -0.3 16.4 -0.7z m16.9 -1.3 c-2.5 -2.3 -2.9 -6.7 -0.9 -9.4 1 -1.4 2.5 -1.7 7.1 -1.4 5.9 0.3 5.9 0.3 7.3 4.2 1.1 3.4 1.1 4.3 -0.2 6.3 l-1.5 2.3 8.8 0 8.9 0 -2.9 -5.7 c-1.5 -3.2 -5.7 -13 -9.3 -21.8 -3.6 -8.8 -7 -16 -7.6 -16 -1 0 -4.9 8.6 -13.1 29 -2.2 5.5 -4.9 11 -6.1 12.3 l-2 2.2 6.8 0 6.9 0 -2.2 -2z m68.9 -1.6 c0.4 -1.6 0.7 -4.7 0.8 -6.9 l0.1 -4 -1.9 3.1 c-3.7 6 -10.8 9.6 -16 7.9 -2 -0.6 -2.1 -1.3 -2.1 -18.6 0 -16.6 0.1 -18 2 -19.9 l2 -2 -8.5 0 c-8.2 0 -8.5 0.1 -7.5 1.9 1.6 3.1 1.3 35 -0.4 38.3 l-1.4 2.7 5.1 0.3 c2.9 0.2 10.2 0.2 16.2 0.2 l11 -0.1 0.6 -2.9z m-133.5 -50.5 c4.5 -4.2 4 -13 -1 -16.4 -2.8 -2 -9.1 -1.9 -12.7 0.2 -5.9 3.5 -5.7 13.6 0.4 17.4 4 2.5 9.9 2 13.3 -1.2z m11.6 -2.9 c-0.3 -4 -0.1 -5 1.2 -5 0.8 0 2 0.8 2.5 1.8 0.8 1.4 1 0.9 1.1 -2.2 0 -3.7 -0.1 -3.8 -1.8 -2.3 -2.8 2.5 -3.2 2.1 -3.2 -2.8 0 -4.2 0.2 -4.5 2.7 -4.5 1.4 0 3.5 0.8 4.6 1.8 1.9 1.6 1.9 1.6 1.6 -0.3 -0.4 -1.7 -1.3 -2 -7.4 -2.3 l-7 -0.3 0 10.6 0 10.5 3 0 c3 0 3 0 2.7 -5z m19 0 c-0.4 -5.2 0.9 -6.5 3.6 -3.8 0.9 0.9 1.2 0.6 1.2 -1.7 0 -2.3 -0.3 -2.6 -1.2 -1.7 -2.5 2.5 -3.8 1.3 -3.8 -3.3 0 -4.3 0.1 -4.5 2.9 -4.5 1.6 0 3.7 0.7 4.5 1.6 1.5 1.4 1.6 1.4 1.6 -0.5 0 -1.9 -0.6 -2.1 -7.2 -2.1 l-7.3 0 0 10.5 0 10.5 3 0 c3 0 3 0 2.7 -5z m20.3 -5.5 l0 -10.5 -4 0 c-2.5 0 -3.5 0.3 -2.7 0.9 1 0.6 1.3 3.3 1 10.5 l-0.3 9.6 3 0 3 0 0 -10.5z m19.6 8.4 l2.4 -2.1 -2.5 1.6 c-1.3 0.9 -3.7 1.6 -5.2 1.6 -6.9 0 -8 -15.1 -1.3 -18.2 2.2 -1 3 -0.8 5.5 1.1 2.6 1.9 3.1 2 3.6 0.6 0.8 -2.1 0.7 -2.2 -5.1 -2.9 -8.6 -1.1 -14.4 4.3 -13.1 12.4 1.1 7.2 10.3 10.7 15.7 5.9z m13.1 0.9 c-0.7 -0.7 -1.2 -4.3 -1.2 -9.3 0 -5 0.5 -8.6 1.2 -9.3 0.9 -0.9 0.4 -1.2 -2.2 -1.2 l-3.5 0 0 10.5 0 10.5 3.5 0 c2.6 0 3.1 -0.3 2.2 -1.2z m7.6 0 c-0.3 -2 1.2 -5.8 2.3 -5.8 0.6 0 0.7 -0.5 0.4 -1 -0.8 -1.2 0.3 -5 1.4 -5 0.4 0 1.3 1.1 1.9 2.5 0.7 1.5 0.8 2.5 0.2 2.5 -0.6 0 -0.1 0.9 1 2 1.1 1.1 2 2.9 2 4 0 1.5 0.7 2 3 2 l2.9 0 -3.4 -8 c-4.6 -10.7 -5.5 -12.4 -6.5 -11.4 -0.5 0.5 -2.4 5.1 -4.3 10.2 -2.6 6.9 -3.1 9.2 -2 9.2 0.8 0 1.3 -0.6 1.1 -1.2z m35.2 -1.5 l0 -2.7 -2.1 2.3 c-1.4 1.4 -3 2.1 -4.7 1.9 -2.7 -0.3 -2.7 -0.4 -3 -9.2 -0.2 -6.5 0.1 -9.2 1 -9.8 0.8 -0.5 -0.4 -0.8 -3 -0.8 -3.9 0 -4.2 0.2 -3.2 1.9 1.4 2.7 1.3 16.4 -0.2 17.9 -0.9 0.9 0.6 1.2 7 1.2 l8.2 0 0 -2.7z"/>
  <path d="M261 149.3 c0 -1.8 3.5 -10.3 4.2 -10.3 0.9 0 2.7 4.1 3.5 8.3 0.5 2.6 0.4 2.7 -3.6 2.7 -2.2 0 -4.1 -0.3 -4.1 -0.7z"/>
  <path d="M183.4 112.5 c-2.1 -3.2 -2.4 -12.6 -0.5 -14.9 1.7 -2.1 6.5 -2.1 8.2 0 2.1 2.6 1.8 12.7 -0.5 15.3 -2.6 2.8 -5.2 2.7 -7.2 -0.4z"/>
  <path d="M264.6 248.6 c0.6 -1.7 3.4 -3 3.4 -1.6 0 0.5 -0.9 1.4 -2 2 -1.6 0.8 -1.8 0.8 -1.4 -0.4z"/>
  <path d="M126 244.5 c-2 -2.4 -0.6 -2.8 1.5 -0.5 1 1.1 1.3 2 0.8 2 -0.6 0 -1.6 -0.7 -2.3 -1.5z"/>
 </g>
 <g fill="#ffffff">
  <path d="M366.6 393.2 c-0.3 -0.5 2.7 -3.6 6.5 -7 3.9 -3.4 6.8 -6.2 6.5 -6.2 -0.3 0 -3.9 2 -8 4.6 -5.7 3.4 -8.7 4.6 -12.6 4.9 -2.7 0.1 -5 0.2 -5 0 0 -0.2 4.6 -2.9 10.3 -6.1 14.7 -8.4 25.8 -15.7 28.7 -19 2.2 -2.4 1.9 -2.3 -1.7 0.7 -4.5 3.7 -15.5 10.6 -30 18.8 -6.9 3.9 -9.7 5 -10.9 4.3 -1.4 -0.8 -0.4 -1.7 5.2 -4.7 25.6 -14.1 36.2 -21.9 40.7 -30.2 2.9 -5.4 4.3 -12.6 3.4 -16.5 -1.5 -5.7 -13.1 -15 -30.7 -24.8 -5.2 -2.9 -10.5 -6.1 -11.7 -7.3 -2.5 -2.3 -2.9 -5.7 -1.1 -8.7 2 -3.1 -0.6 -4.7 -12.6 -7.7 -6 -1.5 -11 -3.3 -11.3 -4 -0.3 -0.8 0.3 -2.3 1.2 -3.3 1 -1.1 1.6 -2.2 1.3 -2.5 -0.7 -0.7 -16.4 -5.1 -24.8 -6.9 -4.1 -0.9 -13.1 -2.2 -20 -3 -6.9 -0.7 -13.3 -1.6 -14.2 -2.1 -1.3 -0.5 -1.8 -0.3 -1.8 1 0 2.7 -2.5 1.1 -2.8 -1.9 -0.3 -2.1 -0.8 -2.7 -2.2 -2.3 -1 0.2 -2.4 0 -3.1 -0.5 -1.1 -0.8 -1 -0.9 0.3 -0.5 0.9 0.3 1.9 0.3 2.3 -0.1 0.3 -0.3 2.2 -0.7 4.2 -0.8 2.6 -0.1 3.7 0.4 4 1.6 0.4 1.3 2.7 1.9 11.6 2.9 17.1 1.9 48.9 8.3 52.7 10.6 1.6 1 1.2 2.9 -1 4.3 -4.2 2.6 -2 4.3 9.7 7.2 4.3 1.1 9.4 2 11.3 2 l3.5 0 -2.5 -2 c-1.4 -1.1 -3.8 -2.2 -5.5 -2.4 -16 -2.6 -15.8 -2.5 -6 -2.2 10.9 0.4 18 2.8 17.1 5.9 -0.4 1.7 -0.1 1.8 2.7 1.2 3 -0.6 18.6 -1.2 46.7 -1.8 l12.5 -0.3 0 -2.5 c0 -2.3 -0.3 -2.4 -5 -2.1 -2.7 0.2 -7.9 0.3 -11.4 0.3 -5.2 -0.1 -6.2 0.2 -5.7 1.4 0.6 1.8 -0.5 2 -2.2 0.3 -0.8 -0.8 -1.5 -0.8 -2.6 0.1 -0.8 0.7 -1.7 0.8 -2 0.3 -0.3 -0.6 0.1 -1.3 1 -1.6 0.8 -0.3 1.2 -1 0.9 -1.6 -0.3 -0.6 0.1 -0.7 1 -0.4 2.3 0.9 16.6 -0.6 15.9 -1.7 -0.3 -0.5 -1.8 -0.9 -3.5 -0.9 -1.6 0 -3.9 -0.6 -5 -1.2 -1.7 -1 -2.3 -1 -2.6 0 -0.6 1.5 -10.9 1.7 -11.8 0.2 -0.4 -0.6 0.5 -1 1.9 -1 1.4 0 2.6 -0.4 2.6 -0.9 0 -1.5 -6.2 -2 -15.5 -1.2 -4.9 0.5 -8.3 0.9 -7.5 1 1.1 0.2 0.9 0.5 -0.5 1.1 -1.2 0.4 2.1 0.6 7.8 0.3 6.4 -0.3 9.7 0 9.7 0.6 0 0.6 -0.9 1.1 -2.1 1.1 -1.1 0 -1.8 0.4 -1.5 0.8 0.2 0.4 -3.1 0.7 -7.5 0.7 -8.9 0 -10.4 1 -2.9 2 2.8 0.4 5 1.1 5 1.6 0 1.6 -4.8 1 -10.1 -1.3 -4.7 -2.1 -4.9 -2.3 -2.8 -3 1.3 -0.4 -1.6 -0.5 -6.6 -0.2 -4.9 0.2 -10.3 0.4 -12 0.4 -1.6 0 -4.7 0 -6.7 0 -2.1 0 -3.8 -0.4 -3.8 -1 0 -0.5 1.8 -1 4.1 -1 2.8 0 3.9 -0.4 3.6 -1.2 -0.2 -0.8 -1.7 -1.2 -3.6 -1 -1.7 0.1 -3.1 -0.2 -3.1 -0.8 0 -0.6 3 -1 7.1 -1 3.8 0 6.8 -0.4 6.5 -0.9 -0.3 -0.4 -3.3 -1.4 -6.6 -2.1 -8.9 -1.9 -7.6 -3.8 2.5 -3.6 3.7 0.1 4.9 0.5 4.7 1.5 -0.2 0.8 0.3 1.1 1.2 0.8 0.9 -0.4 2.2 0 2.9 0.8 1.5 1.4 19.9 2.7 19 1.3 -0.2 -0.5 -2.4 -0.8 -4.9 -0.8 -2.4 0 -4.4 -0.4 -4.4 -1 0 -1.3 12.1 -1.3 15.7 0.1 4.3 1.6 19.3 2.4 19.3 1 0 -0.6 0.7 -1.1 1.6 -1.1 0.9 0 1.4 0.6 1.2 1.3 -0.3 0.6 -2.9 1.4 -5.9 1.7 -8.2 0.9 -2.4 2.4 13.1 3.6 3.6 0.3 7.5 1 8.7 1.6 3.2 1.6 5.4 0.4 5.1 -3 -0.1 -1.5 0.1 -3.3 0.6 -4 0.5 -0.8 -0.2 -1.2 -2.1 -1.3 -2.3 -0.2 -2.4 -0.2 -0.5 -0.6 2.6 -0.5 2.9 -2 0.5 -2.6 -1.6 -0.4 -1.6 -0.5 -0.1 -0.6 2.5 -0.2 3.8 -5.5 3.8 -16.3 0 -8.9 0.2 -9.9 1.8 -9.6 2.3 0.4 2.7 7.5 1.2 23.3 -4.1 45.5 -21.5 82.9 -53.6 115.3 -13.6 13.6 -15.6 15.2 -16.8 13.4z m34.6 -38.7 c1.1 -2.1 1 -2 -3.7 3.5 l-3 3.5 2.8 -2.5 c1.6 -1.4 3.3 -3.4 3.9 -4.5z m11.9 -19.7 c2.2 -4.6 3.8 -9.1 3.5 -10 -0.2 -1 0.3 -1.9 1.3 -2.1 0.9 -0.3 -0.8 -0.5 -3.6 -0.6 -7.2 -0.1 -6.7 -1.7 1 -2.7 l6.2 -0.9 -7.4 -0.5 c-4.7 -0.3 -7.6 -1 -7.9 -1.7 -0.3 -1 1.8 -1.3 8 -1.4 7.3 0 8 -0.2 5.3 -1.2 l-3 -1.1 3.5 -0.6 c2.5 -0.4 3.6 -1.1 3.8 -2.5 0.2 -1.8 -1.5 -2.7 -12.6 -6.8 -7.8 -2.8 -14.4 -4.7 -16.8 -4.6 l-3.9 0.1 3.5 1.6 3.5 1.7 -4.2 0.3 c-2.9 0.2 -5.8 -0.4 -9 -1.9 -4.7 -2.2 -4.8 -2.3 -1.8 -2.6 1.7 -0.2 5.4 -1.1 8.3 -2 4.8 -1.5 5.5 -1.5 9 0 5.6 2.5 23.5 8.7 25 8.7 0.6 0 1.2 -0.6 1.2 -1.4 0 -0.9 -3.1 -2.4 -8.2 -4.1 -8.4 -2.8 -11.7 -4.5 -8.5 -4.5 0.9 0 2.6 0.4 3.9 0.9 1.3 0.5 4.7 1.7 7.7 2.6 7.3 2.2 8.8 0.5 1.9 -2.4 l-5.3 -2.1 4.5 0.5 c2.4 0.3 4.8 1.1 5.3 1.8 0.5 0.8 0.7 0.5 0.5 -0.8 -0.3 -1.9 -1 -2 -21.8 -1.7 -11.8 0.2 -24.1 0.7 -27.4 1.2 -5.9 0.9 -9.6 3.1 -9.6 5.7 0 2.7 7.1 9 16.1 14.3 15.7 9.3 22.9 17.3 22.9 25.5 0 1.9 0.2 3.5 0.5 3.5 0.3 0 2.4 -3.7 4.6 -8.2z m-17.6 -10.4 c-2.2 -2 -5.3 -4.2 -7 -5 -3.4 -1.7 -3.3 -1.6 5.5 5.1 5.8 4.4 6.6 4.4 1.5 -0.1z m-10.5 -6.9 c0 -0.2 -1.3 -1.1 -3 -2 -3.8 -1.9 -4 -1.1 -0.2 0.9 3.1 1.7 3.2 1.8 3.2 1.1z m-14.2 -9.2 c-5.9 -6.5 -7 -9.9 -4.2 -12.7 1.4 -1.5 1.4 -1.6 -0.1 -1.6 -3.1 0 -6.5 3.1 -6.5 6 0 3 1.4 4.5 8 8.3 5.7 3.4 6 3.3 2.8 0z m2.4 -29.9 c0.9 -0.3 1.6 -1.3 1.5 -2.4 -0.1 -1.5 -0.5 -1.7 -2 -0.9 -1 0.6 -3.3 0.9 -5 0.8 -6.3 -0.4 -9.7 0.1 -9.7 1.4 0 1 1.9 1.4 6.8 1.4 3.7 0.1 7.5 -0.1 8.4 -0.3z"/>
  <path d="M410.5 328 c0.3 -0.5 1.2 -1 2 -1 0.8 0 1.7 0.5 2 1 0.4 0.6 -0.5 1 -2 1 -1.5 0 -2.4 -0.4 -2 -1z"/>
  <path d="M409 324 c-1.2 -0.8 -0.9 -1 1.2 -1 1.5 0 3 0.5 3.3 1 0.8 1.3 -2.5 1.3 -4.5 0z"/>
  <path d="M404.5 314.2 c-0.3 -0.3 -0.5 -1.3 -0.5 -2.2 0 -1.1 -2.2 -2.6 -6.5 -4.5 -6.3 -2.7 -8.3 -4.5 -4.7 -4.5 0.9 0 3.7 0.9 6.1 2 4.6 2.1 6.6 2.6 4.1 1 -1.1 -0.7 -0.1 -0.9 3.5 -0.9 2.8 0.1 4.1 0.3 3 0.6 -1.1 0.2 -2.7 0.6 -3.5 0.9 -2.7 0.9 1.8 2.6 7.8 3 7.9 0.5 7.7 1.4 -0.4 1.4 -6 0.1 -6.7 0.2 -5.1 1.4 1.6 1.3 1.6 1.4 -0.8 1.8 -1.3 0.3 -2.7 0.3 -3 0z"/>
  <path d="M397.3 312.8 c0.2 -0.7 1.4 -1.3 2.7 -1.3 1.3 0 2.5 0.6 2.8 1.3 0.2 0.8 -0.7 1.2 -2.8 1.2 -2.1 0 -3 -0.4 -2.7 -1.2z"/>
  <path d="M393.5 311.8 c-6 -3.2 -6.9 -4 -5.2 -4.9 1 -0.6 2.9 -0.3 5.4 0.8 5 2.3 4.9 2.1 3.2 3.8 -1 1 -1.9 1.1 -3.4 0.3z"/>
  <path d="M379.3 304 c-2.1 -1.2 -3.1 -2.6 -3 -3.9 0.1 -1.2 0.2 -2.1 0.2 -2.1 1.4 0 13.3 6.8 12.9 7.3 -1.4 1.4 -7 0.7 -10.1 -1.3z"/>
  <path d="M362.5 302.8 c-1.3 -4.3 -1.3 -4.8 0.1 -4.8 0.9 0 1.3 0.4 1 0.8 -0.3 0.5 0.1 2 0.9 3.5 1.1 2.2 1.1 2.7 0.1 2.7 -0.8 0 -1.7 -1 -2.1 -2.2z"/>
  <path d="M27.5 357.8 c-2.8 -1.5 -6.5 -5 -6.5 -6 0 -0.5 1.5 0.2 3.3 1.6 1.8 1.4 4.8 3.2 6.7 4 3.1 1.4 3.2 1.5 1 1.5 -1.4 0 -3.4 -0.5 -4.5 -1.1z"/>
  <path d="M223.9 357.8 c-0.1 -0.2 -0.2 -3.3 -0.3 -6.9 -0.2 -8 -2 -11.2 -8.2 -14.2 -3.7 -1.8 -4.9 -3.1 -7 -7.8 -1.9 -4.2 -3.5 -6.2 -6.4 -7.8 -2.1 -1.1 -4.4 -2.1 -5.2 -2.1 -1.1 0 -1.4 -3.2 -1.4 -17.7 -0.1 -26.9 -2.5 -39.3 -9 -45.4 -2.5 -2.3 -13.5 -4.6 -17.4 -3.6 -3.1 0.8 -8.6 8.7 -12.6 18 -1.5 3.7 -3.1 6.7 -3.5 6.7 -0.4 0 -1.2 -0.7 -1.9 -1.5 -1.7 -2 -6.6 -1.9 -7.4 0.1 -0.9 2.2 -0.8 2.4 1.1 2.4 1.5 0 1.5 0.2 0.1 1.8 -0.9 0.9 -1.8 3.5 -2 5.7 -0.3 2.2 -0.8 4.8 -1.2 5.8 -0.7 1.4 -0.3 1.7 2.3 1.7 3.3 0 4 -0.9 4.5 -5.4 0.1 -1.5 0.8 -3.2 1.4 -3.8 0.7 -0.7 1.2 -1.9 1.2 -2.7 0 -0.8 0.3 -1.2 0.6 -0.8 0.6 0.6 0 3.8 -2.7 14 -1 3.6 -1.1 3.7 -5.7 3.7 -2.6 0 -5.4 -0.4 -6.2 -1 -1.2 -0.8 -1.2 -1.1 0.2 -2.7 3 -3.4 4.8 -8.1 4.3 -11.2 -0.3 -1.7 -0.7 -4.4 -0.9 -6 -0.4 -2.3 0 -3 2 -4 1.4 -0.6 3.3 -1.1 4.4 -1.1 2.9 0 6 -5.2 6 -10.1 0 -3 -0.7 -5.2 -2.6 -7.7 -2.4 -3 -3.1 -3.4 -6.2 -2.8 -1.9 0.3 -5.1 1.7 -7.1 3.1 -2.7 1.8 -10.9 4.3 -29.1 8.9 -14 3.5 -27.8 6.6 -30.7 6.8 l-5.1 0.5 -1.7 -6.1 c-2.6 -9.4 -5.3 -14.5 -10 -19.1 -4.8 -4.6 -8 -5.5 -20.4 -5.5 l-6.6 0 -6.7 7 c-11.7 12.1 -17.3 26.3 -19.3 48.2 -0.6 6.7 -0.9 7.6 -2.1 6.4 -1.8 -1.8 -1.8 -3.1 0.2 -14.7 2.9 -17.2 8.2 -29.6 16.6 -39.4 9.3 -10.7 10.6 -11.5 18 -11.5 8.4 0 15.6 1.5 18.8 4 l2.5 1.9 1.1 -3.7 1.2 -3.7 0.1 3.6 c0.1 3.1 0.9 4.3 5.6 8.4 5.2 4.4 7.2 7.3 4.1 6.2 -2.8 -1.1 -4 2 -2.6 6.3 1.1 3.2 1.8 4 3.9 4.1 2.4 0.2 2.4 0.2 0.4 0.6 -1.3 0.2 -2.3 0.8 -2.3 1.3 0 1.4 7.1 3 9.9 2.3 l2.6 -0.7 -2.5 -0.7 c-2 -0.6 -1.6 -0.7 2 -0.9 2.5 -0.1 6.5 -0.5 9 -0.9 l4.5 -0.8 -5.5 -0.2 c-3 -0.2 -6.4 -0.7 -7.5 -1.2 -1.3 -0.6 0.6 -0.7 5.7 -0.3 4.7 0.3 8.4 0.1 9.7 -0.5 1.2 -0.7 2.2 -0.7 2.6 -0.2 0.3 0.5 -0.5 1.2 -1.7 1.4 -2 0.4 -2 0.4 0.4 0.6 1.5 0 3 -0.3 3.3 -0.9 0.3 -0.5 1.5 -1 2.6 -1 1.1 0 1.7 -0.5 1.4 -1 -0.3 -0.6 -1.7 -1 -3.1 -1 -1.3 0 -2.4 -0.4 -2.4 -1 0 -1.2 0.3 -1.2 7.5 0.1 5.1 0.9 6.7 0.8 12.9 -1.1 3.9 -1.3 7.3 -2.4 7.5 -2.6 0.2 -0.2 -1.6 -2.2 -4 -4.3 -4.2 -3.9 -3.8 -5.9 0.5 -2.4 1.2 1 0.8 0.3 -0.8 -1.5 -4.2 -4.6 -2 -4 4.4 1.3 5.5 4.5 8.2 4.5 3.9 -0.1 -1.7 -1.8 -1.9 -2.4 -0.7 -2.4 0.8 0 2.5 1.1 3.8 2.5 2.9 3 4.1 2.4 1.4 -0.7 l-1.9 -2.3 2.5 2.1 c1.4 1.2 3.9 2.5 5.5 2.9 l3 0.7 -2.3 -2.4 c-1.2 -1.4 -1.9 -2.7 -1.6 -3.1 1 -1 11.4 8.5 10.6 9.7 -0.8 1.4 -0.3 6.8 0.8 7.9 0.4 0.5 1.7 -0.7 2.9 -2.7 l2.2 -3.5 -3.7 -3.3 c-2 -1.8 -4.2 -3.6 -4.8 -4 -0.6 -0.4 -0.7 -1 -0.4 -1.3 0.4 -0.4 2.3 0.5 4.3 2 1.9 1.5 3.8 2.5 4.1 2.3 0.3 -0.3 -0.6 -1.5 -2 -2.6 -1.5 -1.1 -2.6 -2.2 -2.6 -2.6 0 -1 3.4 0.6 5.9 2.8 l2.4 2.1 -1.2 -2.2 c-0.9 -1.9 -0.9 -2.3 0.2 -2.3 0.8 0 2 0.7 2.7 1.5 1.4 1.7 3.5 2.1 2.5 0.5 -1 -1.6 1.8 -1.2 4.5 0.7 2.2 1.5 2.3 1.5 1.2 0.1 -2.3 -2.8 0.4 -3 3.7 -0.2 2.9 2.4 4.5 2.2 2 -0.3 -0.7 -0.7 -0.3 -0.9 1.6 -0.6 1.4 0.3 2.4 1 2.3 1.5 -0.4 1.2 7.2 9.1 8 8.4 0.3 -0.3 -0.7 -2.1 -2.2 -4.1 -1.5 -1.9 -2.4 -3.5 -2.1 -3.5 1.5 0 10 9.8 10 11.5 0 1.7 0.7 2 5.2 2 6.7 0 7 1.9 0.4 2.3 -4.5 0.3 -5.3 0 -7.7 -2.7 -3.6 -4.1 -4.9 -2.9 -2.2 1.8 1.6 2.7 2.7 3.7 4 3.3 1.1 -0.3 1.8 0.1 1.8 1 0 1.9 4.2 3.8 9.9 4.3 4.4 0.5 4.3 0.4 -1.4 -1 -6.3 -1.7 -8.4 -2.9 -6.6 -3.9 0.6 -0.4 1.1 -0.2 1.1 0.3 0 1.8 3.9 1.2 6 -0.9 1.1 -1.1 2 -2.4 2 -2.9 0 -1.4 6.4 -6.1 8.1 -6.1 0.8 0 2 -0.5 2.6 -1.1 1.4 -1.4 4.7 -0.4 3.8 1.1 -0.3 0.5 -1.9 1 -3.4 1 -1.9 0 -4 1.4 -7.4 4.9 -2.6 2.7 -4.7 5.2 -4.7 5.5 0 1.1 5.8 0.6 6.2 -0.5 0.2 -0.5 1.1 -0.7 2.1 -0.4 0.9 0.4 1.4 1.1 1.1 1.6 -0.3 0.5 1.1 0.9 3 0.9 4.1 0 4.8 1.7 1.2 2.6 -1.4 0.3 -3.2 1.4 -4.2 2.5 -1.7 1.9 -4 2.7 -2.9 1 0.3 -0.5 0.1 -1.2 -0.4 -1.5 -0.5 -0.4 -1.3 -0.1 -1.7 0.5 -0.5 0.8 -0.9 0.8 -1.4 -0.1 -0.5 -0.9 -1.3 -0.9 -2.6 -0.2 -1.3 0.7 -2.2 0.6 -3.2 -0.5 -1 -1 -1.8 -1.1 -2.5 -0.4 -1.5 1.5 -3 1.4 -2.1 0 0.5 -0.9 -0.1 -1 -2 -0.5 -1.7 0.4 -2.5 0.3 -2.4 -0.5 0.2 -0.6 -0.2 -1.3 -0.8 -1.6 -0.8 -0.3 -0.9 0.9 -0.3 3.9 0.4 2.4 0.8 5.9 0.9 7.9 0 4.1 2.3 6.7 6.6 7.5 1.6 0.3 3.2 1 3.5 1.6 0.4 0.6 1.2 0.7 1.8 0.3 0.7 -0.4 1.8 -0.2 2.5 0.4 0.7 0.6 2.1 0.9 3 0.5 0.9 -0.3 2.2 -0.1 2.9 0.4 0.7 0.6 2.6 1 4.2 0.8 3 -0.3 3.5 -0.2 9.3 2.7 3.8 1.9 6.8 2.2 7.7 0.7 0.4 -0.6 1.7 -0.1 3.4 1.1 3 2.2 5.3 2.7 14.6 3.3 5.1 0.3 11.8 1.9 18.5 4.3 0.8 0.3 2.5 0.5 3.8 0.4 1.2 -0.1 2.2 0.2 2.2 0.8 0 0.6 1.4 0.7 3.5 0.4 2.8 -0.4 3.5 -0.2 3.5 1.1 0 0.9 0.5 1.7 1 1.7 1.4 0.2 2.2 0.5 4.2 1.3 0.9 0.4 2.2 0.5 2.7 0.1 2 -1.2 6.1 2.6 6.1 5.6 0 1.5 0.4 3 0.9 3.4 0.6 0.3 0.9 2.4 0.8 4.6 -0.1 3.6 -0.4 3.9 -2.2 3.4 -4.1 -1.3 -5 -1.1 -4.7 1 0.3 2.6 -5.8 5.6 -12.1 5.9 -10.2 0.7 -19.8 2 -20.4 2.8 -0.6 1.1 8.6 0.4 15.1 -1.2 2.2 -0.5 4.4 -0.6 4.9 -0.3 1.8 1.1 7.9 -0.9 12.1 -4.2 4.1 -3.1 4.4 -3.2 4.9 -1.4 0.4 1.5 -0.4 2.4 -3.4 3.9 -2.1 1.1 -3.9 2.7 -3.9 3.6 0 1 -0.6 1.3 -1.9 0.9 -1.2 -0.3 -2.1 0 -2.5 1 -0.3 0.9 -1.1 1.3 -1.6 1 -0.6 -0.4 -1.7 -0.1 -2.5 0.5 -0.8 0.6 -1.8 0.9 -2.2 0.7 -0.8 -0.5 -9.6 2.2 -13.8 4.2 -1.1 0.6 -4.9 1.5 -8.5 2.1 -3.6 0.6 -7.8 1.3 -9.5 1.6 -1.6 0.3 -4.9 0.6 -7.2 0.7 -2.4 0 -4.3 0.5 -4.3 0.9 0 0.4 -2.9 0.6 -6.5 0.4 -3.7 -0.1 -6.8 0.1 -7.1 0.6 -0.5 0.7 -3.3 1.2 -3.5 0.6z m18.7 -4 c1.3 0 2.4 -0.4 2.4 -0.8 0 -0.4 2.1 -1.1 4.6 -1.5 2.5 -0.3 6.4 -1.5 8.7 -2.5 4.2 -1.9 4.2 -1.9 1.2 -2.1 -1.6 -0.1 -5.2 -0.1 -8 0 -4.7 0.2 -4.9 0.1 -3.1 -1.4 1.5 -1.1 1.6 -1.5 0.5 -1.5 -0.9 -0.1 -0.5 -0.8 1.1 -2.2 l2.5 -2.1 -3.3 0.6 c-2.1 0.4 -3.1 0.3 -2.7 -0.3 0.3 -0.6 -0.1 -1 -1 -1 -1.5 0 -1.5 -0.1 -0.1 -1.6 2.4 -2.3 1.9 -2.6 -1.3 -0.9 -2.2 1.1 -5 1.4 -10.8 1 l-7.8 -0.5 5.6 1.3 c5.6 1.3 10.9 4 10.9 5.6 0 2.2 -5.4 5.9 -10.5 7 -3 0.7 -5.5 1.6 -5.5 2 0 1.8 1.8 2.2 7.8 1.5 3.5 -0.3 7.4 -0.6 8.8 -0.6z m-5.8 -7.4 c1.2 -0.8 2.2 -1.8 2.2 -2.2 -0.1 -1.3 -7.4 -3.9 -11.5 -4.1 -5 -0.2 -3.8 1.1 1.7 1.8 3.9 0.6 6.8 3.1 3.5 3.1 -0.8 0 -2.5 0.9 -3.8 2.1 l-2.4 2 4 -0.6 c2.2 -0.4 5 -1.3 6.3 -2.1z m41 -2 c8.4 -3.3 2.7 -2.7 -9.3 1 l-5 1.6 5.1 -0.4 c2.7 -0.3 6.9 -1.2 9.2 -2.2z m-17.8 -1.9 c2.3 -1.2 2.2 -1.3 -2 -0.8 -2.5 0.4 -5.1 1.3 -5.9 2.1 -1.3 1.3 -1.1 1.4 2 0.7 1.9 -0.4 4.5 -1.3 5.9 -2z m10.5 -3.5 c1.7 -0.7 1.5 -0.9 -1 -0.8 -1.6 0 -4.1 0.4 -5.5 0.8 -2.3 0.7 -2.2 0.8 1 0.8 1.9 0 4.4 -0.3 5.5 -0.8z m-1 -4.5 c2.7 -0.8 5.2 -1.2 5.7 -0.9 0.5 0.3 4.1 0.3 7.9 -0.1 5.4 -0.6 6.9 -1 6.5 -2.1 -0.3 -0.9 0.6 -1.9 2.7 -2.7 1.8 -0.8 3.8 -2.1 4.5 -3 0.8 -0.9 2.1 -1.3 3 -1 1.5 0.4 1.5 0.3 0.2 -0.6 -1.3 -1 -1.3 -1.2 0 -2.1 1.1 -0.7 0.7 -1 -1.7 -1 -1.8 0 -3.3 -0.4 -3.3 -1 0 -0.5 -1.1 -1 -2.5 -1 -1.3 0 -2.8 -0.6 -3.2 -1.4 -1.1 -1.8 -3.5 -2.5 -5.4 -1.5 -1 0.5 -3 0.1 -5.5 -1.3 -2.7 -1.4 -5.9 -2.1 -10.6 -2.2 -3.6 0 -6.1 -0.4 -5.5 -0.8 3.2 -2 -5.1 -3 -10.2 -1.3 -2 0.7 -2.3 0.5 -1.8 -0.8 1 -2.7 -0.6 -2.7 -6 -0.3 -3.1 1.5 -5.2 3.2 -5.6 4.5 -0.5 2 -0.4 2 2.6 0.4 2.4 -1.2 3.2 -1.3 3.5 -0.3 1.1 3.3 4.2 5 8.5 4.7 4.2 -0.4 10.2 1.6 7.5 2.5 -0.7 0.3 0.5 0.4 2.7 0.3 2.2 -0.2 4.9 -0.6 6 -0.9 1.8 -0.6 1.7 -0.5 -0.2 1 -4.1 3 -2.1 5.9 2.5 3.5 0.9 -0.4 3.1 -1.1 4.7 -1.5 2.8 -0.6 2.9 -0.5 1.1 0.9 -1.1 0.8 -2.8 1.5 -3.7 1.5 -1 0 -3 1.1 -4.5 2.5 -1.5 1.4 -3.5 2.5 -4.5 2.5 -1.1 0 -1.9 0.5 -1.9 1 0 0.6 -0.9 1 -1.9 1 -1.1 0 -2.7 0.3 -3.7 0.7 -1.6 0.6 -1.6 0.7 0.2 1.4 3 1.2 6.7 1 11.9 -0.6z m-47.5 -0.5 c2.2 -0.7 2.1 -0.8 -1.2 -0.9 -2.1 -0.1 -3.8 0.4 -3.8 0.9 0 1.1 1.4 1.1 5 0z m16.8 -1.6 c5.1 -0.4 9.5 -1 9.7 -1.4 0.7 -1.2 -7.4 -2.1 -12.2 -1.4 -4.3 0.6 -6.2 -0.9 -2.5 -2 0.9 -0.3 -0.5 -0.3 -3.3 -0.1 l-5 0.4 4 -1.4 c2.2 -0.7 5.8 -1.4 8.1 -1.4 6.7 -0.1 13.4 -1.3 12.8 -2.2 -0.3 -0.5 -3.3 -1 -6.7 -1 -5 -0.1 -5.6 -0.3 -3.2 -0.9 2.4 -0.6 1.7 -0.8 -3.5 -1 l-6.5 -0.2 4.5 -1.1 4.5 -1 -4 -0.8 c-2.2 -0.5 -6.2 -0.6 -8.9 -0.3 -2.8 0.3 -5.1 0.1 -5.5 -0.4 -0.3 -0.6 -4.4 -1.2 -9.1 -1.3 -7.8 -0.2 -8.5 -0.1 -8.8 1.8 -0.4 2.7 3.1 4.9 9.3 5.6 3.3 0.5 4.3 0.4 3 -0.2 -1.9 -0.9 -1.9 -1 0.3 -1 1.4 -0.1 2.2 0.5 2.2 1.5 0 1.4 -0.7 1.5 -4 1 -3.1 -0.5 -4 -0.3 -4 0.8 0 1 1.2 1.3 4.3 1.1 2.3 -0.1 2.9 0 1.2 0.2 -3.1 0.5 -6 2.3 -3.6 2.3 0.7 0 0.9 0.5 0.5 1.1 -0.4 0.7 0 0.9 1.4 0.5 1.6 -0.6 1.9 -0.3 1.5 1.2 -0.4 1.7 0 1.8 5.3 1.4 4.4 -0.4 5.5 -0.2 4.9 0.8 -0.6 1 -0.2 1.1 1.6 0.7 1.3 -0.3 6.6 -0.9 11.7 -1.3z m58.7 -1.4 c1 -1.1 2.4 -2 3.2 -2 0.7 0 1.3 -0.4 1.3 -1 0 -0.5 -0.8 -0.6 -1.7 -0.3 -2.9 1 -6.3 3.5 -6.3 4.4 0 1.5 1.6 1 3.5 -1.1z m-92.2 -18.7 c-1.3 -0.2 -3.3 -0.2 -4.5 0 -1.3 0.2 -0.3 0.4 2.2 0.4 2.5 0 3.5 -0.2 2.3 -0.4z m13 0 c-1.3 -0.2 -3.3 -0.2 -4.5 0 -1.3 0.2 -0.3 0.4 2.2 0.4 2.5 0 3.5 -0.2 2.3 -0.4z m20.7 -2 c4.5 -2 4.3 -1.8 3.1 -4.1 -0.9 -1.7 -1.4 -1.8 -5.6 -0.8 -5.4 1.4 -8.6 4.9 -5.8 6.4 1.8 1.1 2.8 0.9 8.3 -1.5z m-27.9 -1.2 c-2.2 -1.4 0.3 -2.1 6.6 -1.9 3.2 0.1 6.7 -0.1 7.8 -0.6 l2 -0.9 -2 1.7 c-2 1.7 -2 1.7 0.3 1.1 2.3 -0.7 6.2 -3.9 6.2 -5.1 0 -0.4 -1.3 -0.4 -2.9 -0.1 -1.5 0.3 -3.3 0.1 -4 -0.6 -1.3 -1.3 -10.1 -1 -11.8 0.5 -0.9 0.7 -1.3 0.7 -1.3 -0.1 0 -0.6 0.7 -1.4 1.5 -1.7 3.2 -1.2 1.4 -2.6 -2.5 -1.9 -3.4 0.6 -4.3 0.3 -6.3 -1.9 -1.4 -1.4 -2.9 -2.6 -3.5 -2.6 -1.6 0 -1 4.3 0.8 5.8 1.3 1.1 1.3 1.3 -0.2 2.6 -1 0.7 -1.8 1.9 -1.8 2.7 0 1.7 5 2.2 6.8 0.7 0.9 -0.8 1.1 -0.7 0.6 0.5 -0.3 0.9 -1.8 1.8 -3.2 2 -1.5 0.2 -0.2 0.5 2.8 0.5 3.4 0.1 5 -0.2 4.1 -0.7z m-142.9 -60.1 c-1.2 -1.2 -2.2 -1.8 -2.2 -1.4 0 1.2 3.3 4.5 3.8 3.9 0.3 -0.3 -0.4 -1.4 -1.6 -2.5z"/>
  <path d="M273.4 330.2 c0.3 -0.6 1.9 -1.2 3.6 -1.4 3.7 -0.6 2.7 0.7 -1.3 1.6 -1.7 0.4 -2.6 0.3 -2.3 -0.2z"/>
  <path d="M222.6 323.5 c-0.4 -1.2 0.4 -1.5 5.2 -1.3 4.7 0.1 5 0.2 1.7 0.5 -2.2 0.3 -4.5 0.9 -5.1 1.4 -0.8 0.6 -1.4 0.4 -1.8 -0.6z"/>
  <path d="M211.3 316.3 c0.9 -0.2 2.5 -0.2 3.5 0 0.9 0.3 0.1 0.5 -1.8 0.5 -1.9 0 -2.7 -0.2 -1.7 -0.5z"/>
  <path d="M181.1 310.6 c-1 -1.2 -0.8 -1.7 0.7 -2.5 2.2 -1.2 3.2 -0.6 3.2 2.1 0 2.1 -2.3 2.4 -3.9 0.4z"/>
  <path d="M161.1 297.8 c0.1 -1.3 0.4 -3.4 0.8 -4.8 0.7 -2.4 0.7 -2.4 1.4 0.9 1 4.9 0.9 6.1 -0.8 6.1 -0.9 0 -1.5 -0.9 -1.4 -2.2z"/>
  <path d="M182.5 298.3 c0.4 -1 1 -2.6 1.2 -3.5 0.3 -1 0.8 -1.8 1.2 -1.8 0.9 0 0.8 4.2 -0.2 5.8 -1.2 1.9 -3 1.5 -2.2 -0.5z"/>
  <path d="M177.6 296.5 c-0.3 -0.9 0.8 -6.2 2.6 -11.8 1.8 -5.6 3.4 -9.4 3.6 -8.4 0.2 0.9 0.8 1.5 1.3 1.1 2.4 -1.4 1.7 3.2 -1.6 10.8 -4.1 9.4 -5 10.6 -5.9 8.3z"/>
  <path d="M326.2 296.8 c0.5 -1.5 2.8 -2.3 2.8 -1 0 0.5 -0.7 1.3 -1.6 1.6 -1 0.4 -1.4 0.1 -1.2 -0.6z"/>
  <path d="M341.3 295.9 c0.5 -1.7 0.3 -1.8 -0.9 -0.8 -1.1 0.9 -2.3 0.9 -5.4 0 -4.5 -1.3 -4.8 -2 -2.2 -4.4 2 -1.9 4.2 -2.2 4.2 -0.7 0 0.5 1.8 1.4 4.1 2 4.3 1.2 6.1 3.6 3.8 5.1 -2.5 1.6 -4.2 1 -3.6 -1.2z"/>
  <path d="M318.6 294.2 c-1.3 -1.2 -0.5 -2.2 1.9 -2.2 1.4 0 2.5 0.4 2.5 0.9 0 1 -3.6 2.1 -4.4 1.3z"/>
  <path d="M324.5 293 c0.3 -0.5 1.2 -1 2 -1 0.8 0 1.7 0.5 2 1 0.4 0.6 -0.5 1 -2 1 -1.5 0 -2.4 -0.4 -2 -1z"/>
  <path d="M167.6 292.2 c-1.1 -1.8 -1.9 -14.7 -0.8 -13.7 0.9 0.9 2.4 14.5 1.6 14.5 -0.1 0 -0.5 -0.4 -0.8 -0.8z"/>
  <path d="M290.5 290.7 c0.4 -0.8 0.1 -1.8 -0.6 -2.3 -0.7 -0.4 -1 -0.3 -0.6 0.3 0.4 0.6 -0.3 1.3 -1.5 1.6 -2 0.6 -4.2 -0.9 -3.3 -2.3 0.2 -0.3 2.7 -0.7 5.5 -0.8 5.6 -0.2 6.2 0.9 2.2 3.6 -2 1.3 -2.2 1.3 -1.7 -0.1z"/>
  <path d="M315.3 288.9 c2.1 -0.5 6 -0.5 9 0 4.9 0.8 4.7 0.9 -3.8 0.9 -7.4 0 -8.3 -0.2 -5.2 -0.9z"/>
  <path d="M302 288.3 c-6.8 -0.6 -7.4 -2.3 -0.8 -2.3 3.1 0 6.3 0.3 7.2 0.6 1.8 0.7 1.2 2.5 -0.7 2.2 -0.7 -0.1 -3.2 -0.3 -5.7 -0.5z"/>
  <path d="M372.3 288.3 c-2.4 -0.9 -1.3 -2.3 1.8 -2.3 2 0 2.9 0.4 2.7 1.3 -0.5 1.3 -2.6 1.8 -4.5 1z"/>
  <path d="M351.4 286.9 c-0.3 -0.5 0.6 -0.9 2 -0.9 3.1 0 3.4 0.6 0.6 1.3 -1.1 0.3 -2.3 0.1 -2.6 -0.4z"/>
  <path d="M260 285.9 c0 -0.5 -0.8 -0.9 -1.7 -0.9 -1.4 0 -1.4 -0.3 -0.5 -1.2 1 -1 1.5 -1 2.1 0.1 0.5 0.7 1.3 1.1 1.9 0.7 0.6 -0.3 1.3 -0.2 1.6 0.3 0.3 0.5 -0.3 1.1 -1.4 1.4 -1.1 0.3 -2 0.1 -2 -0.4z"/>
  <path d="M313.7 286.3 c-0.7 -0.6 -1 -4.3 -0.4 -4.3 0.1 -0.1 3.7 -0.3 8 -0.6 7.7 -0.6 7.7 -0.6 7.7 1.9 0 1.4 -0.7 2.8 -1.6 3.1 -2.1 0.8 -12.9 0.8 -13.7 -0.1z"/>
  <path d="M392.5 285 c2.8 -1.2 3.7 -1.2 3 0 -0.3 0.6 -1.6 1 -2.8 0.9 -2.1 0 -2.1 -0.1 -0.2 -0.9z"/>
  <path d="M250 283.9 c0 -0.3 -1.1 -0.4 -2.5 -0.1 -1.5 0.2 -2.5 0 -2.5 -0.7 0 -0.6 0.5 -1.1 1 -1.1 0.6 0 1 -0.5 1 -1.1 0 -0.8 -1.2 -1 -3.5 -0.6 -1.9 0.3 -3.5 0.2 -3.5 -0.4 0 -1.4 -3.4 -1.1 -5.6 0.6 -2.2 1.7 -3.8 2 -2.9 0.5 0.9 -1.5 -0.2 -1.2 -3.2 0.7 -2.5 1.7 -2.5 1.7 -1.9 -0.5 0.6 -1.8 0.4 -2.2 -1.6 -2.2 -1.3 0 -3 0.6 -3.7 1.3 -1.1 1 -1.3 0.9 -0.9 -0.3 0.3 -0.8 1.8 -1.7 3.3 -2 1.6 -0.3 2.8 -0.9 2.7 -1.5 -0.3 -2 5.4 -2.5 14.8 -1.4 5.2 0.6 10 1.3 10.7 1.4 1.6 0.5 0.4 4.5 -1.4 4.5 -0.8 0 -1.1 0.5 -0.8 1 0.3 0.6 1.5 1 2.5 1 1 0 2.2 0.4 2.5 1 0.4 0.6 -0.5 0.9 -1.9 0.8 -1.5 -0.1 -2.6 -0.5 -2.6 -0.9z"/>
  <path d="M297 281.3 c0 -2.2 -0.5 -4.4 -1.1 -5 -0.8 -0.8 0 -1.1 3.2 -0.9 2.8 0.1 4.3 0.6 4.2 1.4 -0.2 0.7 0.2 1.2 0.8 1.2 0.5 0 0.7 0.5 0.4 1 -0.3 0.6 0.1 1 1 1 1.1 0 1.5 0.7 1.3 2.3 -0.3 1.9 -1 2.2 -5 2.5 l-4.8 0.3 0 -3.8z"/>
  <path d="M176.1 283 c-0.1 -2.5 2.6 -18 3.3 -18.7 1.8 -1.8 1.6 1.6 -0.7 10.4 -1.4 5.4 -2.5 9.1 -2.6 8.3z"/>
  <path d="M264 281.7 c0 -1.3 -0.9 -3.6 -2.1 -5.1 -1.9 -2.5 -2 -2.6 -0.2 -2.6 1.1 0 2.5 0.6 3.2 1.3 1.1 1 1.3 1 0.7 0 -0.7 -1.2 2.3 -1.9 6.4 -1.3 2.3 0.2 7.2 5.8 6.8 7.8 -0.6 2.9 -4.3 2.1 -4.6 -1 -0.2 -1.4 -1 -2.9 -1.8 -3.2 -1.2 -0.5 -1.5 0 -1.2 2.1 0.2 2 -0.2 2.9 -1.5 3.1 -1.5 0.3 -1.8 -0.2 -1.5 -2.4 0.2 -1.5 -0.2 -2.9 -0.7 -3.1 -0.6 -0.2 -1 1.1 -1 2.9 0 1.7 -0.6 3.3 -1.2 3.5 -0.8 0.3 -1.3 -0.5 -1.3 -2z"/>
  <path d="M280 281.4 c0 -1.7 -1 -3.4 -2.7 -4.8 l-2.7 -2.1 2.9 -0.6 c1.7 -0.3 4.5 0 6.4 0.8 1.8 0.7 3.7 1 4.2 0.8 1.3 -0.8 7.1 2.4 6.4 3.5 -0.4 0.6 -0.1 1 0.4 1 0.6 0 1.1 0.9 1.1 2 0 1.1 -0.7 2 -1.5 2 -0.8 0 -1.5 -0.5 -1.5 -1.2 0 -0.9 -0.3 -0.9 -1.2 0 -0.7 0.7 -2.5 1.2 -4 1.2 -2.3 0 -2.8 -0.4 -2.8 -2.4 0 -2.6 -2.4 -5.3 -3.4 -3.7 -0.4 0.5 -0.2 1.2 0.4 1.6 1.6 1 1.2 4.5 -0.5 4.5 -0.9 0 -1.5 -1 -1.5 -2.6z m13 -2 c0 -0.8 -3.2 -3.3 -4.2 -3.4 -1 0 2.4 3.8 3.5 3.9 0.4 0.1 0.7 -0.2 0.7 -0.5z"/>
  <path d="M255 281.8 c0 -0.5 0.4 -0.8 1 -0.8 0.5 0 0.7 -0.7 0.4 -1.5 -0.9 -2.2 2.9 -1.9 5 0.4 1.6 1.8 1.6 1.9 -2.3 2.3 -2.3 0.2 -4.1 0 -4.1 -0.4z"/>
  <path d="M171.8 276 c-0.4 -6 0.4 -9 2.2 -9 0.6 0 -0.5 11.9 -1.4 14.5 -0.2 0.6 -0.5 -1.9 -0.8 -5.5z"/>
  <path d="M309.8 278.3 c1.2 -0.2 3 -0.2 4 0 0.9 0.3 -0.1 0.5 -2.3 0.4 -2.2 0 -3 -0.2 -1.7 -0.4z"/>
  <path d="M306.5 274.5 l-3 -1.5 4.8 0.4 c2.7 0.2 5.4 0.9 6 1.5 1.7 1.7 -4.1 1.3 -7.8 -0.4z"/>
  <path d="M411.7 275.4 c-1.6 -1.6 1 -2.4 7.9 -2.4 5.9 0 7.4 0.3 7.4 1.5 0 1.2 -1.5 1.5 -7.3 1.5 -4.1 0 -7.7 -0.3 -8 -0.6z"/>
  <path d="M233.8 273.1 c-4.8 -0.4 -8.9 -0.9 -9.2 -1.2 -0.3 -0.3 3 -0.4 7.4 -0.1 5.4 0.3 8.5 0.1 9.5 -0.8 1.1 -0.9 1.9 -0.8 3.7 0.4 1.2 0.9 1.7 1.6 1.1 1.6 -0.6 0 -1.7 0.2 -2.5 0.3 -0.7 0.2 -5.2 0.1 -10 -0.2z"/>
  <path d="M336.4 273 c-5.2 -1.2 -7.2 -3.8 -7.2 -9.2 0.1 -4.6 0.2 -4.8 3 -4.8 2.2 0 2.8 0.5 3 2.3 0 1.2 0.4 0.2 0.7 -2.3 0.5 -4 0.9 -4.5 3.1 -4.5 2.3 0 2.5 0.4 2.8 5.4 l0.3 5.3 -3 -0.4 c-2.9 -0.4 -3.1 -0.3 -3.1 2.7 l0 3.2 6.5 0.6 c9.4 0.9 11.8 2.7 3.5 2.6 -3.6 -0.1 -7.9 -0.4 -9.6 -0.9z"/>
  <path d="M296 272 c-2.4 -0.8 -2.4 -0.8 0.7 -0.9 1.7 -0.1 3.5 0.4 3.8 0.9 0.7 1.1 -0.9 1.1 -4.5 0z"/>
  <path d="M365 268.9 c0 -2.8 0.2 -3 3.3 -2.7 2.7 0.2 3.3 0.8 3.5 3.1 0.3 2.5 0.1 2.7 -3.2 2.7 -3.3 0 -3.6 -0.2 -3.6 -3.1z"/>
  <path d="M250.7 269.3 c-1 -0.9 -0.8 -9.6 0.2 -11.2 0.5 -0.8 1.6 -1.1 3 -0.6 1.9 0.6 2.1 1.3 2 6.6 -0.2 5.3 -0.4 5.9 -2.4 5.9 -1.2 0 -2.5 -0.3 -2.8 -0.7z"/>
  <path d="M258 264 c0 -5.7 0.1 -6 2.5 -6 2.3 0 2.5 0.4 2.5 4.4 0 5.7 -0.8 7.6 -3.1 7.6 -1.7 0 -1.9 -0.8 -1.9 -6z"/>
  <path d="M338 269.6 c0 -0.9 5 -1.2 6.2 -0.5 0.8 0.6 -0.1 0.9 -2.4 0.9 -2.1 0 -3.8 -0.2 -3.8 -0.4z"/>
  <path d="M320 266.5 c0 -1.4 -0.5 -2.5 -1.2 -2.5 -0.9 0 -0.9 -0.3 -0.1 -1.1 1.3 -1.3 4.7 -0.4 3.9 1 -0.4 0.5 -0.1 1.1 0.6 1.3 0.6 0.2 1.2 1.2 1.4 2.1 0.1 1.2 -0.5 1.7 -2.2 1.7 -1.9 0 -2.4 -0.5 -2.4 -2.5z"/>
  <path d="M387.2 268.2 c-0.7 -0.2 -1.2 -1.2 -1.2 -2.2 0 -1.1 -0.9 -2 -2.2 -2.3 -2.2 -0.4 -2.2 -0.4 -0.2 -0.6 1.3 0 2.4 -1 2.7 -2.1 0.4 -1.5 1.4 -2 4.4 -2.1 3.4 -0.1 3.5 -0.2 1.3 -0.9 -2.3 -0.7 -2.3 -0.8 -0.3 -0.9 1.2 -0.1 2.8 -0.3 3.6 -0.6 0.8 -0.4 1.4 0.1 1.4 1.1 0 0.9 -0.9 1.9 -1.9 2.2 -1.3 0.3 -1.8 1.4 -1.8 4.2 0 3.1 -0.4 3.8 -2.3 4.2 -1.2 0.2 -2.8 0.3 -3.5 0z"/>
  <path d="M313 266.1 c0 -1.9 2.3 -3.5 3.4 -2.4 1.4 1.5 0.5 4.3 -1.4 4.3 -1.3 0 -2 -0.7 -2 -1.9z"/>
  <path d="M395.2 265.3 c0.2 -2.2 0.9 -2.9 3.1 -3.1 2.6 -0.3 2.8 -0.1 2.5 2.5 -0.2 2.2 -0.9 2.9 -3.1 3.1 -2.6 0.3 -2.8 0.1 -2.5 -2.5z"/>
  <path d="M413 265.5 c-1.1 -1.3 -0.2 -1.5 7.1 -1.3 5.4 0.1 6.7 0.3 3.6 0.5 -2.6 0.2 -4.5 0.8 -4.2 1.4 1 1.5 -5.2 1 -6.5 -0.6z"/>
  <path d="M352.7 265.3 c1.8 -0.2 5 -0.2 7 0 2.1 0.2 0.7 0.4 -3.2 0.4 -3.8 0 -5.5 -0.2 -3.8 -0.4z"/>
  <path d="M290 261.2 c0 -4.4 -1.4 -6.2 -4.9 -6.2 -2.2 0 -1.8 -0.5 2.6 -3 7.3 -4.2 9.7 -4 5.4 0.4 -3 3.1 -3.1 3.4 -1.2 3.9 1.4 0.3 2.1 0 2.1 -0.9 0 -0.8 0.5 -1.4 1 -1.4 0.6 0 0.9 -0.5 0.8 -1.1 -0.2 -0.6 0.7 -1.8 2 -2.6 1.5 -1 2.2 -1.2 2.2 -0.4 0 0.8 0.7 0.7 2.2 -0.3 1.2 -0.9 2.7 -1.6 3.3 -1.6 0.5 0 -0.7 1.2 -2.8 2.7 -2.2 1.5 -3.4 2.9 -2.8 3.1 0.6 0.2 1.1 2.6 1.1 5.3 l0 4.9 -3.4 0 c-2.4 0 -3.6 -0.5 -3.9 -1.7 -0.4 -1.4 -0.5 -1.2 -0.6 0.5 -0.1 1.2 -0.7 2.2 -1.6 2.2 -1.1 0 -1.5 -1.1 -1.5 -3.8z"/>
  <path d="M305.2 260.3 c0.3 -4.6 0.4 -4.8 3.6 -5.1 3 -0.3 3.2 -0.1 3.2 2.7 0 1.6 -0.5 3.3 -1 3.6 -0.8 0.5 -0.7 1.1 0.1 2.1 0.9 1.1 0.7 1.4 -0.9 1.4 -1.6 0 -2 -0.5 -1.6 -1.7 0.5 -1.7 0.5 -1.7 -0.9 0 -2.3 2.7 -2.8 2 -2.5 -3z"/>
  <path d="M368.9 264.8 c-1.4 -4.8 -0.5 -8.8 2.1 -8.8 1.6 0 2 0.7 2 3.5 0 2.5 -0.4 3.5 -1.6 3.5 -0.8 0 -1.2 0.5 -0.9 1 0.3 0.6 0.1 1 -0.4 1 -0.6 0 -1.1 -0.1 -1.2 -0.2z"/>
  <path d="M374.4 260.8 c0.8 -5.1 0.7 -4.9 3.4 -4.1 1.8 0.4 2.2 1.3 2.2 4.4 0 3.7 -0.2 3.9 -3.1 3.9 -3.1 0 -3.2 0 -2.5 -4.2z"/>
  <path d="M281 260.5 c0 -3.1 0.3 -3.5 2.5 -3.5 2.2 0 2.5 0.4 2.5 3.5 0 3.1 -0.3 3.5 -2.5 3.5 -2.2 0 -2.5 -0.4 -2.5 -3.5z"/>
  <path d="M343.9 263.8 c0 -0.2 -0.1 -1.9 -0.2 -3.8 -0.2 -3.4 -0.1 -3.5 3.4 -3.5 2 0 4.3 -0.6 5.2 -1.3 2.4 -2 3.7 -0.6 3.7 3.9 0 3.6 -0.2 4 -2.2 3.7 -1.3 -0.2 -2.3 -1 -2.3 -1.8 0 -0.8 -0.8 -1.6 -1.7 -1.8 -1.4 -0.3 -1.8 0.3 -1.8 2.2 0 1.9 -0.5 2.6 -2 2.6 -1.1 0 -2 -0.1 -2.1 -0.2z"/>
  <path d="M359.2 260.8 c0.2 -1.8 1 -2.3 4.3 -2.4 2.8 -0.2 3.4 0 2 0.6 l-2 0.7 2 0.5 c1.6 0.5 1.7 0.6 0.3 0.7 -1 0 -1.8 0.6 -1.8 1.1 0 0.6 -1.2 1 -2.6 1 -2 0 -2.5 -0.4 -2.2 -2.2z"/>
  <path d="M196.1 255.3 c-6.8 -6.8 -6.2 -6.8 2.1 0 4.2 3.5 6.7 6.7 5.2 6.7 -0.4 0 -3.6 -3 -7.3 -6.7z"/>
  <path d="M241 260.5 c0 -0.8 0.7 -1.5 1.5 -1.5 0.8 0 1.5 0.7 1.5 1.5 0 0.8 -0.7 1.5 -1.5 1.5 -0.8 0 -1.5 -0.7 -1.5 -1.5z"/>
  <path d="M322.8 261.3 c-0.2 -0.5 -0.3 -1.9 -0.3 -3.3 0 -1.9 0.6 -2.6 2.4 -2.8 2.1 -0.3 2.3 -0.1 1.8 2 -0.4 1.2 -0.7 2.9 -0.7 3.6 0 1.3 -2.7 1.7 -3.2 0.5z"/>
  <path d="M416.5 260.4 l-4 -1.3 5.4 0.2 c3.3 0.1 5.6 0.7 5.9 1.5 0.5 1.5 -2.1 1.4 -7.3 -0.4z"/>
  <path d="M427.5 261 c-0.3 -0.5 0.3 -1 1.4 -1 1.2 0 2.1 0.5 2.1 1 0 0.6 -0.6 1 -1.4 1 -0.8 0 -1.8 -0.4 -2.1 -1z"/>
  <path d="M200.6 255.2 c-4.5 -4.8 -4.7 -5.1 -2 -4.2 4.7 1.7 8.2 5.2 7.5 7.5 -0.5 1.8 -1.2 1.4 -5.5 -3.3z"/>
  <path d="M227.5 259.9 c-0.4 -0.6 -0.5 -1.3 -0.2 -1.6 0.7 -0.7 2.7 0.6 2.7 1.8 0 1.2 -1.7 1.2 -2.5 -0.2z"/>
  <path d="M231 259.5 c0 -0.8 0.7 -1.5 1.5 -1.5 0.8 0 1.5 0.7 1.5 1.5 0 0.8 -0.7 1.5 -1.5 1.5 -0.8 0 -1.5 -0.7 -1.5 -1.5z"/>
  <path d="M235.5 260.1 c-0.3 -0.5 -0.1 -1.2 0.5 -1.6 1.2 -0.7 3 0.2 3 1.6 0 1.2 -2.7 1.2 -3.5 0z"/>
  <path d="M314 257.6 c0 -3.2 0.3 -3.6 2.6 -3.6 2.3 0 2.5 0.3 2.2 3.3 -0.2 2.4 -0.8 3.3 -2.5 3.5 -2 0.3 -2.3 -0.1 -2.3 -3.2z"/>
  <path d="M398 258.9 c0 -0.5 1.4 -0.9 3 -0.9 1.7 0 3 0.4 3 0.8 0 0.5 -1.3 0.9 -3 1 -1.6 0 -3 -0.4 -3 -0.9z"/>
  <path d="M211.7 256 c-0.3 -1 -2.6 -3.2 -5.1 -4.8 -5.3 -3.4 -5.1 -5 0.3 -2.3 2 1 5.5 1.7 7.9 1.6 l4.3 -0.1 -2.3 1.9 c-1.6 1.3 -1.9 2 -1 2.4 1 0.4 1 0.8 0.1 1.9 -1.6 2 -3.6 1.7 -4.2 -0.6z"/>
  <path d="M222.1 254.3 c2.3 -3 4.3 -4.2 5 -3.2 0.3 0.6 2.1 0.1 4.2 -1.1 2 -1.2 4.2 -2 4.9 -1.7 0.9 0.3 0.6 0.8 -0.7 1.3 -1.1 0.4 -3.9 2.1 -6.1 3.6 -4.9 3.3 -9.5 4 -7.3 1.1z"/>
  <path d="M270 255.1 c0 -1.3 5.4 -5.1 7.2 -5.1 0.7 0 -0.3 1.4 -2.2 3 -3.7 3.1 -5 3.6 -5 2.1z"/>
  <path d="M273 255.6 c0 -0.9 7.1 -4.8 7.7 -4.3 0.3 0.4 2 -0.1 3.7 -0.9 l3.1 -1.5 -2.9 2.6 c-1.9 1.7 -3.1 2.3 -3.6 1.5 -0.4 -0.7 -1.5 -0.4 -3.2 1 -2.4 1.8 -4.8 2.6 -4.8 1.6z"/>
  <path d="M116.9 250.8 c-1.8 -2.4 -4.9 -6.1 -6.8 -8.2 -3.6 -3.9 -3.6 -4 -0.6 -2.1 1.7 1 4.6 3.7 6.5 5.9 1.9 2.3 4.5 5.1 5.7 6.4 2 2 2.1 2.2 0.3 2.2 -1 0 -3.3 -1.9 -5.1 -4.2z"/>
  <path d="M122.7 250.7 c-2.2 -2.4 -3.4 -4.3 -2.7 -4.5 1.5 -0.5 9.1 6.8 8.4 8 -0.8 1.3 -1.7 0.8 -5.7 -3.5z"/>
  <path d="M233.5 253 c1.9 -2.1 9.5 -6.3 10.2 -5.6 0.5 0.5 -10 7.6 -11.2 7.6 -0.4 0 0 -0.9 1 -2z"/>
  <path d="M242 254 l-2.4 -0.6 2.4 -2.4 c2.1 -2.1 2.4 -2.2 3 -0.6 0.5 1.6 0.7 1.6 2.5 -0.4 1.9 -2.1 1.9 -2.1 -0.1 -1.4 -1.4 0.5 -1.6 0.4 -0.8 -0.5 0.6 -0.6 1.8 -0.9 2.8 -0.5 1.6 0.6 1.6 0.8 0 2.5 -2.4 2.6 -0.6 2.4 2.3 -0.3 1.8 -1.6 2.7 -1.9 4.4 -1.2 2 0.9 2 1 0.3 2.4 -1.6 1.4 -1.7 1.3 -1.1 -0.2 0.9 -2.4 0.2 -2.3 -3.6 0.6 -3.8 2.8 -6.3 3.5 -9.7 2.6z"/>
  <path d="M263.2 253.8 c0.5 -1.5 9.6 -6.3 10.4 -5.6 0.5 0.6 -8.7 6.8 -10 6.8 -0.4 0 -0.6 -0.6 -0.4 -1.2z"/>
  <path d="M414.4 254.1 c0.4 -0.5 -0.4 -0.7 -1.6 -0.3 l-2.3 0.6 1.9 -3 c1 -1.6 2.8 -3.7 4 -4.6 2.5 -2.1 5.1 -2.4 3.9 -0.5 -0.4 0.6 -0.9 2 -1 3 -0.3 1.5 0.5 1.2 4.2 -1.4 6.9 -5 6.4 -2.8 -0.6 2.5 -5.5 4.1 -9.9 6.1 -8.5 3.7z"/>
  <path d="M425 253.7 c0 -2 2.7 -5.3 3.6 -4.4 0.4 0.4 1.7 -0.1 2.8 -1 1.9 -1.7 1.9 -1.7 -0.1 1.7 -2.3 3.6 -6.3 6 -6.3 3.7z"/>
  <path d="M74.2 248.1 c-3.2 -3.4 -5.4 -6.1 -4.9 -6.1 1.4 0 12.2 10.8 11.5 11.5 -0.4 0.4 -3.3 -2.1 -6.6 -5.4z"/>
  <path d="M84.4 253 c-2.5 -1 -10.9 -10.3 -9.6 -10.8 1 -0.3 12.7 10.6 12.1 11.2 -0.2 0.2 -1.3 0 -2.5 -0.4z"/>
  <path d="M103.5 253.1 c-1.7 -0.4 -4.2 -1.8 -5.5 -3.2 -1.4 -1.3 -4.5 -4.1 -6.9 -6.1 -2.5 -2.2 -3.5 -3.5 -2.3 -3.2 1.1 0.3 4.1 2.8 6.8 5.5 7.3 7.4 8.6 6.2 1.6 -1.5 -5.6 -6.1 -2 -4 4.8 2.9 3.5 3.6 6 6.5 5.5 6.4 -0.6 -0.1 -2.4 -0.4 -4 -0.8z"/>
  <path d="M109.7 247.5 c-7.6 -8.4 -6 -8.4 2.3 0 3.5 3.6 5.8 6.5 5 6.5 -0.8 -0.1 -4.1 -3 -7.3 -6.5z"/>
  <path d="M304.9 251.9 c1.3 -1.1 2.6 -1.7 2.9 -1.4 0.8 0.8 -2 3.5 -3.7 3.5 -1.2 -0.1 -1.1 -0.5 0.8 -2.1z"/>
  <path d="M363 252.8 c0 -0.4 2 -2.1 4.5 -3.8 4.2 -2.9 6 -3 3.3 -0.1 -1.1 1.1 -0.7 1.2 2.2 0.6 1.9 -0.4 4.1 -1.2 4.8 -1.8 2.6 -2.1 2.5 0.5 -0.2 3.1 -1.9 1.8 -3 2.3 -3.3 1.5 -0.3 -0.9 -1 -1 -2.4 -0.3 -1 0.6 -1.9 0.8 -1.9 0.4 0 -0.3 -0.6 -0.2 -1.3 0.4 -1.4 1.2 -5.7 1.2 -5.7 0z"/>
  <path d="M378 253.3 c0 -1.8 3.5 -4.1 6 -4 1.4 0.1 3.9 -0.2 5.5 -0.7 l3 -0.7 -2.9 2.8 c-1.9 1.9 -3 2.4 -3.3 1.5 -0.4 -1 -0.8 -1 -2.1 0 -1.3 1.1 -1.5 1 -0.9 -0.5 0.7 -2 -0.4 -1.6 -3.5 1.1 -1 0.8 -1.8 1.1 -1.8 0.5z"/>
  <path d="M391.5 251 c2.7 -2.8 5.5 -4 5.5 -2.2 0 0.8 -6.5 5.2 -7.7 5.2 -0.4 0 0.6 -1.3 2.2 -3z"/>
  <path d="M395.5 252 c1.6 -1 3.1 -1.7 3.4 -1.4 0.7 0.6 -3.2 3.3 -4.9 3.4 -0.8 0 -0.2 -0.9 1.5 -2z"/>
  <path d="M403.3 252.7 c0.2 -0.6 2.2 -2 4.4 -3.2 2.2 -1.1 4.8 -2.6 5.7 -3.4 2.8 -2.3 2.6 -0.8 -0.4 2.7 -2.7 3.3 -10.6 6.4 -9.7 3.9z"/>
  <path d="M84.2 247.4 c-5.9 -5.3 -7.4 -7.4 -5.2 -7.4 0.5 0 4 2.9 7.7 6.5 8.4 8 6.2 8.8 -2.5 0.9z"/>
  <path d="M89.9 247.1 c-3.5 -3.3 -5.9 -6 -5.4 -6.1 1.4 0 13.1 10.7 12.4 11.4 -0.3 0.3 -3.5 -2.1 -7 -5.3z"/>
  <path d="M104 246.7 c-3 -3.3 -4.6 -5.5 -3.5 -4.9 3.1 1.6 12.1 11.2 10.5 11.1 -0.8 -0.1 -4 -2.8 -7 -6.2z"/>
  <path d="M311.4 251.1 c2 -2.2 3.6 -2.7 3.6 -1.3 0 0.5 -1.2 1.4 -2.7 2.1 -2.8 1.3 -2.8 1.3 -0.9 -0.8z"/>
  <path d="M327 252.1 c0 -1.5 6.9 -6.5 7.8 -5.7 0.4 0.4 -0.1 1.3 -1.1 2 -0.9 0.7 -1.7 2.1 -1.7 3 0 1 -0.8 1.6 -2.5 1.6 -1.4 0 -2.5 -0.4 -2.5 -0.9z"/>
  <path d="M334.7 251.8 c0.4 -0.7 0.8 -2 0.8 -2.8 0 -0.8 0.6 -1.5 1.3 -1.4 0.6 0.1 2.4 0.2 3.8 0.3 1.5 0 2.3 0.5 1.9 1.2 -0.4 0.5 1 0.3 3.1 -0.6 4.6 -1.9 5.3 -1.4 1.7 1.4 -2.1 1.7 -3.5 2.1 -6.4 1.6 -2.2 -0.4 -4 -0.2 -4.4 0.4 -0.3 0.6 -1.1 1.1 -1.6 1.1 -0.6 0 -0.7 -0.6 -0.2 -1.2z"/>
  <path d="M355.3 250.5 c1.5 -1.4 3.3 -2.5 4 -2.5 0.7 0 -0.1 1.2 -1.6 2.5 -1.5 1.4 -3.3 2.5 -4 2.5 -0.7 0 0.1 -1.2 1.6 -2.5z"/>
  <path d="M359.1 251.4 c1.5 -1.9 6.9 -4.7 7.6 -4.1 0.5 0.6 -6.7 5.7 -8.1 5.7 -0.4 0 -0.3 -0.7 0.5 -1.6z"/>
  <path d="M263.2 249.5 c1.5 -1.4 3.3 -2.5 4 -2.5 1.5 0 -4.2 4.9 -5.7 5 -0.5 0 0.2 -1.1 1.7 -2.5z"/>
  <path d="M319.3 250.6 c0.4 -1.1 0.1 -1.3 -1.1 -0.9 -1.3 0.5 -1.4 0.3 -0.6 -0.6 1.2 -1.3 6.4 -2.3 6.4 -1.2 0 0.3 -0.7 1.4 -1.4 2.4 -1.6 2.1 -4 2.3 -3.3 0.3z"/>
  <path d="M349 250.5 c0 -0.9 6.1 -3.6 7.3 -3.2 0.7 0.2 -0.2 1.1 -2 2 -3.2 1.7 -5.3 2.2 -5.3 1.2z"/>
 </g>
</svg>