<svg id="Layer_1" data-name="Layer 1" xmlns="http://www.w3.org/2000/svg" viewBox="0 0 172.61 72.24">
  <defs>
    <style>
      .cls-1 {
        fill: #919195;
      }

      .cls-2 {
        fill: #002d73;
      }

      .cls-3 {
        fill: #ee3424;
      }

      .cls-4 {
        fill: none;
      }

      .cls-5 {
        fill: #fff;
      }
    </style>
  </defs>
  <title>TN Department of Health</title>
  <path class="cls-5" d="M92.27,62.68A4,4,0,0,1,89.09,64H84.94V51.85h4.15a4,4,0,0,1,3.18,1.27c1.07,1.16,1.07,2.92,1.07,4.78S93.34,61.52,92.27,62.68Zm-1-8.79A3,3,0,0,0,88.87,53H86.23V62.8h2.63a3,3,0,0,0,2.38-.88c0.78-.83.8-2.33,0.8-4S92,54.72,91.25,53.89Z" transform="translate(-12.69 -17.88)" />
  <path class="cls-5" d="M96.42,60.1c0,1.84.85,2.89,2.46,2.89a2.74,2.74,0,0,0,2.19-1l0.83,0.73a3.86,3.86,0,0,1-3.06,1.29c-2.23,0-3.65-1.33-3.65-4.28,0-2.72,1.31-4.28,3.43-4.28s3.43,1.55,3.43,4.06V60.1H96.42Zm4.17-2.31a2.15,2.15,0,0,0-3.91,0,3.18,3.18,0,0,0-.25,1.39h4.44A3.44,3.44,0,0,0,100.58,57.78Z" transform="translate(-12.69 -17.88)" />
  <path class="cls-5" d="M109.78,63.33a2.88,2.88,0,0,1-2,.73A2.72,2.72,0,0,1,105.38,63v4.73h-1.22V55.59h1.22v1a2.7,2.7,0,0,1,2.36-1.09,2.88,2.88,0,0,1,2,.73,5,5,0,0,1,1,3.55A5,5,0,0,1,109.78,63.33Zm-2.29-6.75c-1.83,0-2.11,1.56-2.11,3.2s0.27,3.2,2.11,3.2,2.09-1.56,2.09-3.2S109.3,56.58,107.48,56.58Z" transform="translate(-12.69 -17.88)" />
  <path class="cls-5" d="M117.65,64v-0.8a3.85,3.85,0,0,1-4.78.14,2.33,2.33,0,0,1-.63-1.7c0-1.48,1-2.41,2.91-2.41h2.5v-0.8c0-1.21-.59-1.84-2.14-1.84a2.24,2.24,0,0,0-2.11,1l-0.83-.76a3.22,3.22,0,0,1,3-1.26c2.26,0,3.35,1,3.35,2.79V64h-1.22Zm0-3.86h-2.33q-1.89,0-1.89,1.48c0,1,.6,1.43,1.94,1.43a2.52,2.52,0,0,0,1.85-.56,1.93,1.93,0,0,0,.42-1.44V60.1Z" transform="translate(-12.69 -17.88)" />
  <path class="cls-5" d="M125.76,57.19a1.75,1.75,0,0,0-1.45-.61,2,2,0,0,0-2,2.24V64h-1.22V55.59h1.22v1a2.81,2.81,0,0,1,2.35-1.12,2.58,2.58,0,0,1,2,.78Z" transform="translate(-12.69 -17.88)" />
  <path class="cls-5" d="M130.76,64a2.05,2.05,0,0,1-2.14-2.24V56.53h-1.05V55.59h1.05V53h1.22v2.57h1.79v0.94h-1.79v5.15A1.06,1.06,0,0,0,131,62.9h0.65V64h-0.87Z" transform="translate(-12.69 -17.88)" />
  <path class="cls-5" d="M144.11,64V58.8a2.08,2.08,0,1,0-4.15-.14V64h-1.22V58.8a2,2,0,0,0-2.06-2.23,2,2,0,0,0-2.09,2.23V64h-1.22V55.59h1.22v0.92a3.05,3.05,0,0,1,2.36-1,2.76,2.76,0,0,1,2.57,1.39,3.2,3.2,0,0,1,2.75-1.39,3,3,0,0,1,2.16.78,3.11,3.11,0,0,1,.9,2.33V64h-1.22Z" transform="translate(-12.69 -17.88)" />
  <path class="cls-5" d="M148.5,60.1c0,1.84.85,2.89,2.46,2.89a2.74,2.74,0,0,0,2.19-1L154,62.76a3.86,3.86,0,0,1-3.06,1.29c-2.23,0-3.65-1.33-3.65-4.28,0-2.72,1.31-4.28,3.43-4.28s3.43,1.55,3.43,4.06V60.1H148.5Zm4.16-2.31a2.15,2.15,0,0,0-3.91,0,3.19,3.19,0,0,0-.25,1.39h4.44A3.42,3.42,0,0,0,152.66,57.78Z" transform="translate(-12.69 -17.88)" />
  <path class="cls-5" d="M161.46,64V58.8a2,2,0,0,0-2.06-2.23,2,2,0,0,0-2.07,2.23V64H156.1V55.59h1.22v0.92a3,3,0,0,1,2.35-1,2.93,2.93,0,0,1,2.14.78,3.09,3.09,0,0,1,.87,2.33V64h-1.22Z" transform="translate(-12.69 -17.88)" />
  <path class="cls-5" d="M167.22,64a2.05,2.05,0,0,1-2.14-2.24V56.53H164V55.59h1.05V53h1.22v2.57h1.79v0.94H166.3v5.15a1.06,1.06,0,0,0,1.14,1.22h0.65V64h-0.87Z" transform="translate(-12.69 -17.88)" />
  <path class="cls-5" d="M179.12,63.1a3.49,3.49,0,0,1-4.79,0,4.49,4.49,0,0,1-1-3.33,4.46,4.46,0,0,1,1-3.33,3.49,3.49,0,0,1,4.79,0,4.47,4.47,0,0,1,1,3.33A4.49,4.49,0,0,1,179.12,63.1Zm-0.87-5.92a2.1,2.1,0,0,0-1.53-.61,2.06,2.06,0,0,0-1.51.61,3.63,3.63,0,0,0-.68,2.58,3.59,3.59,0,0,0,.68,2.58,2.06,2.06,0,0,0,1.51.61,2.1,2.1,0,0,0,1.53-.61,3.66,3.66,0,0,0,.66-2.58A3.62,3.62,0,0,0,178.25,57.19Z" transform="translate(-12.69 -17.88)" />
  <path class="cls-5" d="M183.52,56.53V64H182.3V56.53h-1.07V55.59h1.07V54.06a2,2,0,0,1,2.13-2.24h0.88v1.05h-0.66a1,1,0,0,0-1.12,1.22v1.5h1.78v0.94h-1.78Z" transform="translate(-12.69 -17.88)" />
  <path class="cls-5" d="M95.7,90v-8H89.19v8H85.44V70.74h3.75V78.6H95.7V70.74h3.75V90H95.7Z" transform="translate(-12.69 -17.88)" />
  <path class="cls-5" d="M105.42,84a2.88,2.88,0,0,0,3.08,3.13,4,4,0,0,0,3.18-1.32l2.13,2.08a6.61,6.61,0,0,1-5.34,2.21c-3.32,0-6.51-1.51-6.51-7.21,0-4.59,2.48-7.18,6.13-7.18,3.91,0,6.13,2.81,6.13,6.8V84h-8.8Zm5-3.91a2.62,2.62,0,0,0-4.7,0,3.45,3.45,0,0,0-.32,1.51h5.34A3.45,3.45,0,0,0,110.44,80.11Z" transform="translate(-12.69 -17.88)" />
  <path class="cls-5" d="M123.67,90V88.75a4.27,4.27,0,0,1-3.46,1.35,4.87,4.87,0,0,1-3.59-1.24,4.51,4.51,0,0,1-1.16-3.16c0-2.24,1.54-4.08,4.86-4.08h3.27v-0.7c0-1.54-.76-2.21-2.62-2.21a3.11,3.11,0,0,0-2.7,1.21l-2.21-2.19c1.38-1.51,2.7-2,5-2,4,0,6,1.67,6,5V90h-3.43ZM123.59,84h-2.67c-1.4,0-2.08.57-2.08,1.62s0.68,1.59,2.13,1.59a2.67,2.67,0,0,0,2.08-.67,2.17,2.17,0,0,0,.54-1.78V84Z" transform="translate(-12.69 -17.88)" />
  <path class="cls-5" d="M133.85,90a3.82,3.82,0,0,1-4.1-4V70.74h3.51v15A1.09,1.09,0,0,0,134.5,87h1.35v3h-2Z" transform="translate(-12.69 -17.88)" />
  <path class="cls-5" d="M142.06,90a3.81,3.81,0,0,1-4.08-4V79H136.5V76.3H138V72.14h3.51V76.3H144V79h-2.48v6.75A1.1,1.1,0,0,0,142.71,87H144v3h-1.92Z" transform="translate(-12.69 -17.88)" />
  <path class="cls-5" d="M154.34,90v-8.5a2.35,2.35,0,1,0-4.67,0V90h-3.51V70.74h3.51v6.45a4.51,4.51,0,0,1,3.43-1.46A4.57,4.57,0,0,1,156.42,77a5.21,5.21,0,0,1,1.43,4v9h-3.51Z" transform="translate(-12.69 -17.88)" />
  <polygon class="cls-3" points="0 0 0 64.12 64.12 64.12 64.12 0 0 0 0 0" />
  <polygon class="cls-2" points="64.12 66.66 64.12 72 0 72 0 66.66 64.12 66.66 64.12 66.66" />
  <rect class="cls-4" width="64.12" height="72" />
  <path class="cls-5" d="M41.8,44.82H40.12l-0.06-.21c-0.42-1.6-.77-2.54-1.41-3a5.86,5.86,0,0,0-3.31-.68H34.23V60.08l2.86,0.27,0.1,1.84h-10l0.09-1.81,0.21,0a5.29,5.29,0,0,0,2-.76l0.11-.12c0.35-.35.58-0.58,0.58-3.2V40.94H29a5.86,5.86,0,0,0-3.31.68c-0.64.45-1,1.39-1.41,3l-0.06.21H22.55L23.19,38h18l0.64,6.79h0Z" transform="translate(-12.69 -17.88)" />
  <path class="cls-5" d="M65.43,39.73l-0.25.09a3.76,3.76,0,0,0-1.54.81,2.56,2.56,0,0,0-.47,1.79V62.19h-2.9l-0.08-.13L49.74,45V60.09l2.16,0.27L52,62.19H43.59l0.13-1.79,0.18-.06a7.86,7.86,0,0,0,2-.92c0.32-.34.42-0.45,0.42-2.64V43.54A4.84,4.84,0,0,0,46,41a4.83,4.83,0,0,0-2.38-1.28l-0.16-.06,0-.18L43.3,38.36l0-.33h7.22l9.4,15.49V42.33a2.52,2.52,0,0,0-.42-1.67,2.94,2.94,0,0,0-2-.84l-0.21,0L57,38h8l0.46,1.69h0Z" transform="translate(-12.69 -17.88)" />
  <polygon class="cls-5" points="64.12 66.66 0 66.66 0 64.12 64.12 64.12 64.12 66.66 64.12 66.66" />
  <rect class="cls-4" width="64.12" height="72" />
  <path class="cls-2" d="M81.17,88.22a1.68,1.68,0,1,1-1.68-1.64A1.65,1.65,0,0,1,81.17,88.22Zm-2.95,0a1.27,1.27,0,0,0,1.28,1.31,1.26,1.26,0,0,0,1.25-1.3A1.27,1.27,0,1,0,78.22,88.22Zm1,0.86H78.85V87.44a3.29,3.29,0,0,1,.63-0.05,1,1,0,0,1,.57.12,0.46,0.46,0,0,1,.16.36,0.42,0.42,0,0,1-.34.38v0a0.48,0.48,0,0,1,.3.4,1.27,1.27,0,0,0,.12.41H79.88a1.37,1.37,0,0,1-.13-0.4,0.29,0.29,0,0,0-.34-0.26H79.23v0.66Zm0-.93h0.18c0.21,0,.38-0.07.38-0.24s-0.11-.25-0.35-0.25l-0.21,0v0.47Z" transform="translate(-12.69 -17.88)" />
</svg>